{
.appVersion = "1357";
DisplayStrings = (
"onononononono/space noevembher/space bhersabhb\012\012Le/space vif/space zephyr/space jubile/space sur/space les/space kumquats/space du/space clownnnnonono/space gravcieux./space combomncbo/space combo/space shnot/space artèéréewvorke/space rares\012\012tuer/nbspace ;/space malgré/space tout,/space ça/space le/space rendait/space toujours/space un/space rien/space nerveux/space lorsqu/quoteright il/space patinait,/space surtout/space lorsqu/quoteright il/space fonçait/space à/space cent/space à/space l'/quoteright heure/space dans/space une/space artère/space bondée./space Mais/space",

glyphs = (
{
color = 5;
glyphname = A;
lastChange = "2021-11-15 17:29:38 +0000";
layers = (
{
background = {
paths = (
{
closed = 1;
nodes = (
"147 0 LINE",
"144 20 LINE",
"128 21 OFFCURVE",
"83 23 OFFCURVE",
"102 71 CURVE",
"344 568 LINE",
"360 568 LINE",
"553 79 LINE SMOOTH",
"573 27 OFFCURVE",
"530 21 OFFCURVE",
"513 20 CURVE",
"510 0 LINE",
"689 0 LINE",
"689 20 LINE",
"650 20 OFFCURVE",
"635 41 OFFCURVE",
"614 94 CURVE SMOOTH",
"371 710 LINE",
"360 710 LINE",
"60 95 LINE",
"22 26 OFFCURVE",
"-23 20 OFFCURVE",
"-40 20 CURVE",
"-40 0 LINE"
);
},
{
closed = 1;
nodes = (
"465 307 LINE",
"465 349 LINE",
"212 349 LINE",
"212 307 LINE"
);
}
);
};
hints = (
{
origin = "{0, 0}";
scale = "{-1, 1}";
type = Corner;
name = _corner.CAP.leftSerif;
},
{
origin = "{0, 3}";
type = Corner;
name = _corner.CAP.leftSerif;
options = 1;
},
{
origin = "{0, 4}";
scale = "{-0.5, 1}";
type = Corner;
name = _corner.CAP.leftSerif;
},
{
origin = "{0, 7}";
scale = "{0.8, 1}";
type = Corner;
name = _corner.CAP.leftSerif;
options = 1;
}
);
layerId = "A2204D38-078E-49A4-B70C-87904FFF8E34";
paths = (
{
closed = 1;
nodes = (
"98 0 LINE",
"375 568 LINE",
"391 568 LINE",
"615 0 LINE",
"682 0 LINE",
"401 710 LINE",
"391 710 LINE",
"45 0 LINE"
);
},
{
closed = 1;
nodes = (
"496 306 LINE",
"496 348 LINE",
"243 348 LINE",
"243 306 LINE"
);
}
);
width = 727;
},
{
background = {
hints = (
{
origin = "{0, 0}";
scale = "{-1, 1}";
type = Corner;
name = _corner.CAP.leftSerif;
options = 1;
},
{
origin = "{0, 3}";
type = Corner;
name = _corner.CAP.leftSerif;
},
{
origin = "{0, 4}";
scale = "{-0.5, 1}";
type = Corner;
name = _corner.CAP.leftSerif;
options = 1;
},
{
origin = "{0, 7}";
scale = "{0.8, 1}";
type = Corner;
name = _corner.CAP.leftSerif;
}
);
paths = (
{
closed = 1;
nodes = (
"124 0 LINE",
"401 568 LINE",
"417 568 LINE",
"641 0 LINE",
"708 0 LINE",
"427 710 LINE",
"417 710 LINE",
"71 0 LINE"
);
},
{
closed = 1;
nodes = (
"522 306 LINE",
"522 348 LINE",
"269 348 LINE",
"269 306 LINE"
);
}
);
};
backgroundImage = {
crop = "{{0, 0}, {305.16, 367}}";
imagePath = "img/05 Page 3.png";
locked = "1";
transform = "{42.083, 0, 0, 42.083, -1495, -11801}";
};
hints = (
{
origin = "{0, 0}";
scale = "{-1, 1}";
type = Corner;
name = _corner.CAP.leftSerif;
options = 1;
},
{
origin = "{0, 3}";
type = Corner;
name = _corner.CAP.leftSerif;
},
{
origin = "{0, 4}";
scale = "{-0.5, 1}";
type = Corner;
name = _corner.CAP.leftSerif;
options = 1;
},
{
origin = "{0, 7}";
scale = "{0.8, 1}";
type = Corner;
name = _corner.CAP.leftSerif;
}
);
layerId = "3EDEE92B-4D9D-4D9A-9438-63C2E33416C1";
paths = (
{
closed = 1;
nodes = (
"124 0 LINE",
"401 568 LINE",
"417 568 LINE",
"641 0 LINE",
"708 0 LINE",
"427 710 LINE",
"417 710 LINE",
"71 0 LINE"
);
},
{
closed = 1;
nodes = (
"522 306 LINE",
"522 348 LINE",
"269 348 LINE",
"269 306 LINE"
);
}
);
width = 767;
},
{
background = {
paths = (
{
closed = 1;
nodes = (
"154 0 LINE",
"151 20 LINE",
"135 21 OFFCURVE",
"90 23 OFFCURVE",
"109 71 CURVE",
"351 568 LINE",
"367 568 LINE",
"560 79 LINE SMOOTH",
"580 27 OFFCURVE",
"537 21 OFFCURVE",
"520 20 CURVE",
"517 0 LINE",
"696 0 LINE",
"696 20 LINE",
"657 20 OFFCURVE",
"642 41 OFFCURVE",
"621 94 CURVE SMOOTH",
"378 710 LINE",
"367 710 LINE",
"67 95 LINE",
"29 26 OFFCURVE",
"-16 20 OFFCURVE",
"-33 20 CURVE",
"-33 0 LINE"
);
},
{
closed = 1;
nodes = (
"472 307 LINE",
"472 349 LINE",
"219 349 LINE",
"219 307 LINE"
);
}
);
};
hints = (
{
origin = "{0, 0}";
scale = "{-1, 1}";
type = Corner;
name = _corner.CAP.leftSerif;
},
{
origin = "{0, 3}";
type = Corner;
name = _corner.CAP.leftSerif;
options = 1;
},
{
origin = "{0, 4}";
scale = "{-0.5, 1}";
type = Corner;
name = _corner.CAP.leftSerif;
},
{
origin = "{0, 7}";
scale = "{0.8, 1}";
type = Corner;
name = _corner.CAP.leftSerif;
options = 1;
}
);
layerId = "12C15986-4B26-4DD1-ABCC-3DD937B37D00";
paths = (
{
closed = 1;
nodes = (
"59 0 LINE",
"457 568 LINE",
"473 568 LINE",
"576 0 LINE",
"642 0 LINE",
"512 710 LINE",
"502 710 LINE",
"5 0 LINE"
);
},
{
closed = 1;
nodes = (
"522 306 LINE",
"531 348 LINE",
"278 348 LINE",
"269 306 LINE"
);
}
);
width = 702;
},
{
background = {
hints = (
{
origin = "{0, 0}";
scale = "{-1, 1}";
type = Corner;
name = _corner.CAP.leftSerif;
options = 1;
},
{
origin = "{0, 3}";
type = Corner;
name = _corner.CAP.leftSerif;
},
{
origin = "{0, 4}";
scale = "{-0.5, 1}";
type = Corner;
name = _corner.CAP.leftSerif;
options = 1;
},
{
origin = "{0, 7}";
scale = "{0.8, 1}";
type = Corner;
name = _corner.CAP.leftSerif;
}
);
paths = (
{
closed = 1;
nodes = (
"166 0 LINE",
"443 568 LINE",
"459 568 LINE",
"683 0 LINE",
"750 0 LINE",
"469 710 LINE",
"459 710 LINE",
"113 0 LINE"
);
},
{
closed = 1;
nodes = (
"564 306 LINE",
"564 348 LINE",
"311 348 LINE",
"311 306 LINE"
);
}
);
};
backgroundImage = {
crop = "{{0, 0}, {305.16, 367}}";
imagePath = "img/05 Page 3.png";
locked = "1";
transform = "{42.083, 0, 17.89004, 42.083, -6562, -11801}";
};
hints = (
{
origin = "{0, 0}";
scale = "{-1, 1}";
type = Corner;
name = _corner.CAP.leftSerif;
options = 1;
},
{
origin = "{0, 3}";
type = Corner;
name = _corner.CAP.leftSerif;
},
{
origin = "{0, 4}";
scale = "{-0.5, 1}";
type = Corner;
name = _corner.CAP.leftSerif;
options = 1;
},
{
origin = "{0, 7}";
scale = "{0.8, 1}";
type = Corner;
name = _corner.CAP.leftSerif;
}
);
layerId = "1699526A-EFB7-4794-9793-F4E554F51E17";
paths = (
{
closed = 1;
nodes = (
"120 0 LINE",
"518 568 LINE",
"534 568 LINE",
"637 0 LINE",
"703 0 LINE",
"573 710 LINE",
"563 710 LINE",
"66 0 LINE"
);
},
{
closed = 1;
nodes = (
"583 306 LINE",
"592 348 LINE",
"339 348 LINE",
"330 306 LINE"
);
}
);
width = 780;
},
{
background = {
hints = (
{
origin = "{0, 0}";
scale = "{-1, 1}";
type = Corner;
name = _corner.CAP.leftSerif;
options = 1;
},
{
origin = "{0, 3}";
type = Corner;
name = _corner.CAP.leftSerif;
},
{
origin = "{0, 4}";
scale = "{-0.5, 1}";
type = Corner;
name = _corner.CAP.leftSerif;
options = 1;
},
{
origin = "{0, 7}";
scale = "{0.8, 1}";
type = Corner;
name = _corner.CAP.leftSerif;
}
);
paths = (
{
closed = 1;
nodes = (
"50 0 LINE",
"327 568 LINE",
"343 568 LINE",
"567 0 LINE",
"634 0 LINE",
"353 710 LINE",
"343 710 LINE",
"-3 0 LINE"
);
},
{
closed = 1;
nodes = (
"448 306 LINE",
"448 348 LINE",
"195 348 LINE",
"195 306 LINE"
);
}
);
};
backgroundImage = {
crop = "{{0, 0}, {305.16, 367}}";
imagePath = "img/05 Page 3.png";
locked = "1";
transform = "{42.083, 0, -17.89004, 42.083, 3540, -11801}";
};
hints = (
{
origin = "{0, 0}";
scale = "{-1, 1}";
type = Corner;
name = _corner.CAP.leftSerif;
options = 1;
},
{
origin = "{0, 3}";
type = Corner;
name = _corner.CAP.leftSerif;
},
{
origin = "{0, 4}";
scale = "{-0.5, 1}";
type = Corner;
name = _corner.CAP.leftSerif;
options = 1;
},
{
origin = "{0, 7}";
scale = "{0.8, 1}";
type = Corner;
name = _corner.CAP.leftSerif;
}
);
layerId = "BC891ED8-9BFD-414F-9425-FE2804369777";
paths = (
{
closed = 1;
nodes = (
"96 0 LINE",
"252 568 LINE",
"268 568 LINE",
"613 0 LINE",
"681 0 LINE",
"249 710 LINE",
"239 710 LINE",
"44 0 LINE"
);
},
{
closed = 1;
nodes = (
"429 306 LINE",
"420 348 LINE",
"167 348 LINE",
"176 306 LINE"
);
}
);
width = 721;
},
{
background = {
paths = (
{
closed = 1;
nodes = (
"147 0 LINE",
"144 20 LINE",
"128 21 OFFCURVE",
"83 23 OFFCURVE",
"102 71 CURVE",
"344 568 LINE",
"360 568 LINE",
"553 79 LINE SMOOTH",
"573 27 OFFCURVE",
"530 21 OFFCURVE",
"513 20 CURVE",
"510 0 LINE",
"689 0 LINE",
"689 20 LINE",
"650 20 OFFCURVE",
"635 41 OFFCURVE",
"614 94 CURVE SMOOTH",
"371 710 LINE",
"360 710 LINE",
"60 95 LINE",
"22 26 OFFCURVE",
"-23 20 OFFCURVE",
"-40 20 CURVE",
"-40 0 LINE"
);
},
{
closed = 1;
nodes = (
"465 307 LINE",
"465 349 LINE",
"212 349 LINE",
"212 307 LINE"
);
}
);
};
hints = (
{
origin = "{0, 0}";
scale = "{-1, 1}";
type = Corner;
name = _corner.CAP.leftSerif;
},
{
origin = "{0, 3}";
type = Corner;
name = _corner.CAP.leftSerif;
options = 1;
},
{
origin = "{0, 4}";
scale = "{-0.5, 1}";
type = Corner;
name = _corner.CAP.leftSerif;
},
{
origin = "{0, 7}";
scale = "{0.8, 1}";
type = Corner;
name = _corner.CAP.leftSerif;
options = 1;
}
);
layerId = "7121B8A5-DE38-4240-9956-93F0DA171E86";
paths = (
{
closed = 1;
nodes = (
"144 0 LINE",
"300 568 LINE",
"316 568 LINE",
"661 0 LINE",
"729 0 LINE",
"297 710 LINE",
"287 710 LINE",
"92 0 LINE"
);
},
{
closed = 1;
nodes = (
"477 306 LINE",
"468 348 LINE",
"215 348 LINE",
"224 306 LINE"
);
}
);
width = 727;
}
);
leftKerningGroup = A;
rightKerningGroup = A;
unicode = 0041;
},
{
color = 5;
glyphname = B;
lastChange = "2021-11-15 17:36:34 +0000";
layers = (
{
hints = (
{
origin = "{1, 2}";
scale = "{1, -1}";
type = Corner;
name = _corner.CAP.leftSerif;
},
{
origin = "{1, 3}";
scale = "{0.8, 1}";
type = Corner;
name = _corner.CAP.leftSerif;
}
);
layerId = "A2204D38-078E-49A4-B70C-87904FFF8E34";
paths = (
{
closed = 1;
nodes = (
"250 0 LINE SMOOTH",
"398 0 OFFCURVE",
"508 87 OFFCURVE",
"508 221 CURVE SMOOTH",
"508 345 OFFCURVE",
"418 380 OFFCURVE",
"323 388 CURVE",
"323 395 LINE",
"432 419 OFFCURVE",
"468 490 OFFCURVE",
"468 562 CURVE SMOOTH",
"468 642 OFFCURVE",
"410 700 OFFCURVE",
"287 700 CURVE SMOOTH",
"100 700 LINE {name = \"🧨\";}",
"100 658 LINE",
"252 658 LINE SMOOTH",
"355 658 OFFCURVE",
"395 610 OFFCURVE",
"395 550 CURVE SMOOTH",
"395 463 OFFCURVE",
"339 400 OFFCURVE",
"232 400 CURVE SMOOTH",
"137 400 LINE",
"137 366 LINE",
"262 366 LINE SMOOTH",
"367 366 OFFCURVE",
"430 316 OFFCURVE",
"430 221 CURVE SMOOTH",
"430 117 OFFCURVE",
"372 44 OFFCURVE",
"221 44 CURVE SMOOTH",
"102 44 LINE",
"102 0 LINE {name = \"🧨\";}"
);
},
{
closed = 1;
nodes = (
"144 0 LINE {name = \"🧨\";}",
"144 700 LINE {name = \"🧨\";}",
"82 700 LINE {name = \"🧨\";}",
"82 0 LINE {name = \"🧨\";}"
);
}
);
width = 568;
},
{
backgroundImage = {
crop = "{{0, 0}, {305.16, 367}}";
imagePath = "img/05 Page 3.png";
locked = "1";
transform = "{42.083, 0, 0, 42.083, -2328, -11789}";
};
hints = (
{
origin = "{1, 2}";
scale = "{1, -1}";
type = Corner;
name = _corner.CAP.leftSerif;
},
{
origin = "{1, 3}";
scale = "{0.8, 1}";
type = Corner;
name = _corner.CAP.leftSerif;
}
);
layerId = "3EDEE92B-4D9D-4D9A-9438-63C2E33416C1";
paths = (
{
closed = 1;
nodes = (
"280 0 LINE SMOOTH",
"428 0 OFFCURVE",
"538 87 OFFCURVE",
"538 221 CURVE SMOOTH",
"538 345 OFFCURVE",
"448 380 OFFCURVE",
"353 388 CURVE",
"353 395 LINE",
"462 419 OFFCURVE",
"498 490 OFFCURVE",
"498 562 CURVE SMOOTH",
"498 642 OFFCURVE",
"440 700 OFFCURVE",
"317 700 CURVE SMOOTH",
"130 700 LINE {name = \"🧨\";}",
"130 658 LINE",
"282 658 LINE SMOOTH",
"385 658 OFFCURVE",
"425 610 OFFCURVE",
"425 550 CURVE SMOOTH",
"425 463 OFFCURVE",
"369 400 OFFCURVE",
"262 400 CURVE SMOOTH",
"167 400 LINE",
"167 366 LINE",
"292 366 LINE SMOOTH",
"397 366 OFFCURVE",
"460 316 OFFCURVE",
"460 221 CURVE SMOOTH",
"460 117 OFFCURVE",
"402 44 OFFCURVE",
"251 44 CURVE SMOOTH",
"132 44 LINE",
"132 0 LINE {name = \"🧨\";}"
);
},
{
closed = 1;
nodes = (
"174 0 LINE {name = \"🧨\";}",
"174 700 LINE {name = \"🧨\";}",
"112 700 LINE {name = \"🧨\";}",
"112 0 LINE {name = \"🧨\";}"
);
}
);
width = 585;
},
{
hints = (
{
origin = "{1, 2}";
scale = "{1, -1}";
type = Corner;
name = _corner.CAP.leftSerif;
},
{
origin = "{1, 3}";
scale = "{0.8, 1}";
type = Corner;
name = _corner.CAP.leftSerif;
options = 1;
}
);
layerId = "12C15986-4B26-4DD1-ABCC-3DD937B37D00";
paths = (
{
closed = 1;
nodes = (
"186 0 LINE SMOOTH",
"334 0 OFFCURVE",
"460 84 OFFCURVE",
"488 216 CURVE SMOOTH",
"514 342 OFFCURVE",
"430 380 OFFCURVE",
"337 388 CURVE",
"343 394 LINE",
"457 418 OFFCURVE",
"505 487 OFFCURVE",
"520 557 CURVE SMOOTH",
"538 639 OFFCURVE",
"490 700 OFFCURVE",
"367 700 CURVE SMOOTH",
"182 700 LINE {name = \"🧨\";}",
"174 658 LINE",
"328 658 LINE SMOOTH",
"431 658 OFFCURVE",
"459 613 OFFCURVE",
"447 555 CURVE SMOOTH",
"428 466 OFFCURVE",
"356 400 OFFCURVE",
"249 400 CURVE SMOOTH",
"156 400 LINE",
"148 366 LINE",
"275 366 LINE SMOOTH",
"380 366 OFFCURVE",
"431 319 OFFCURVE",
"412 226 CURVE SMOOTH",
"389 120 OFFCURVE",
"313 44 OFFCURVE",
"162 44 CURVE SMOOTH",
"45 44 LINE",
"36 0 LINE {name = \"🧨\";}"
);
},
{
closed = 1;
nodes = (
"78 0 LINE {name = \"🧨\";}",
"226 700 LINE {name = \"🧨\";}",
"164 700 LINE {name = \"🧨\";}",
"16 0 LINE {name = \"🧨\";}"
);
}
);
width = 548;
},
{
backgroundImage = {
crop = "{{0, 0}, {305.16, 367}}";
imagePath = "img/05 Page 3.png";
locked = "1";
transform = "{42.083, 0, 17.89004, 42.083, -7432, -11789}";
};
hints = (
{
origin = "{1, 2}";
scale = "{1, -1}";
type = Corner;
name = _corner.CAP.leftSerif;
options = 1;
},
{
origin = "{1, 3}";
scale = "{0.8, 1}";
type = Corner;
name = _corner.CAP.leftSerif;
}
);
layerId = "1699526A-EFB7-4794-9793-F4E554F51E17";
paths = (
{
closed = 1;
nodes = (
"236 0 LINE SMOOTH",
"384 0 OFFCURVE",
"510 84 OFFCURVE",
"538 216 CURVE SMOOTH",
"564 342 OFFCURVE",
"480 380 OFFCURVE",
"387 388 CURVE",
"393 394 LINE",
"507 418 OFFCURVE",
"555 487 OFFCURVE",
"570 557 CURVE SMOOTH",
"588 639 OFFCURVE",
"540 700 OFFCURVE",
"417 700 CURVE SMOOTH",
"232 700 LINE {name = \"🧨\";}",
"224 658 LINE",
"378 658 LINE SMOOTH",
"481 658 OFFCURVE",
"509 613 OFFCURVE",
"497 555 CURVE SMOOTH",
"478 466 OFFCURVE",
"406 400 OFFCURVE",
"299 400 CURVE SMOOTH",
"206 400 LINE",
"198 366 LINE",
"325 366 LINE SMOOTH",
"430 366 OFFCURVE",
"481 319 OFFCURVE",
"462 226 CURVE SMOOTH",
"439 120 OFFCURVE",
"363 44 OFFCURVE",
"212 44 CURVE SMOOTH",
"95 44 LINE",
"86 0 LINE {name = \"🧨\";}"
);
},
{
closed = 1;
nodes = (
"128 0 LINE {name = \"🧨\";}",
"276 700 LINE {name = \"🧨\";}",
"214 700 LINE {name = \"🧨\";}",
"66 0 LINE {name = \"🧨\";}"
);
}
);
width = 585;
},
{
backgroundImage = {
crop = "{{0, 0}, {305.16, 367}}";
imagePath = "img/05 Page 3.png";
locked = "1";
transform = "{42.083, 0, -17.89004, 42.083, 2820, -11789}";
};
hints = (
{
origin = "{1, 2}";
scale = "{1, -1}";
type = Corner;
name = _corner.CAP.leftSerif;
options = 1;
},
{
origin = "{1, 3}";
scale = "{0.8, 1}";
type = Corner;
name = _corner.CAP.leftSerif;
}
);
layerId = "BC891ED8-9BFD-414F-9425-FE2804369777";
paths = (
{
closed = 1;
nodes = (
"368 0 LINE SMOOTH",
"516 0 OFFCURVE",
"609 90 OFFCURVE",
"580 226 CURVE SMOOTH",
"554 348 OFFCURVE",
"460 380 OFFCURVE",
"363 388 CURVE",
"358 396 LINE",
"461 420 OFFCURVE",
"484 493 OFFCURVE",
"468 567 CURVE SMOOTH",
"451 645 OFFCURVE",
"384 700 OFFCURVE",
"261 700 CURVE SMOOTH",
"72 700 LINE {name = \"🧨\";}",
"80 658 LINE",
"230 658 LINE SMOOTH",
"333 658 OFFCURVE",
"386 607 OFFCURVE",
"399 545 CURVE SMOOTH",
"417 460 OFFCURVE",
"376 400 OFFCURVE",
"269 400 CURVE SMOOTH",
"172 400 LINE",
"180 366 LINE",
"303 366 LINE SMOOTH",
"408 366 OFFCURVE",
"484 313 OFFCURVE",
"504 216 CURVE SMOOTH",
"526 114 OFFCURVE",
"485 44 OFFCURVE",
"334 44 CURVE SMOOTH",
"213 44 LINE",
"222 0 LINE {name = \"🧨\";}"
);
},
{
closed = 1;
nodes = (
"264 0 LINE {name = \"🧨\";}",
"116 700 LINE {name = \"🧨\";}",
"54 700 LINE {name = \"🧨\";}",
"202 0 LINE {name = \"🧨\";}"
);
}
);
width = 629;
},
{
hints = (
{
origin = "{1, 2}";
scale = "{1, -1}";
type = Corner;
name = _corner.CAP.leftSerif;
},
{
origin = "{1, 3}";
scale = "{0.8, 1}";
type = Corner;
name = _corner.CAP.leftSerif;
options = 1;
}
);
layerId = "7121B8A5-DE38-4240-9956-93F0DA171E86";
paths = (
{
closed = 1;
nodes = (
"296 0 LINE SMOOTH",
"444 0 OFFCURVE",
"537 90 OFFCURVE",
"508 226 CURVE SMOOTH",
"482 348 OFFCURVE",
"388 380 OFFCURVE",
"291 388 CURVE",
"286 396 LINE",
"389 420 OFFCURVE",
"412 493 OFFCURVE",
"396 567 CURVE SMOOTH",
"379 645 OFFCURVE",
"312 700 OFFCURVE",
"189 700 CURVE SMOOTH",
"0 700 LINE {name = \"🧨\";}",
"8 658 LINE",
"158 658 LINE SMOOTH",
"261 658 OFFCURVE",
"314 607 OFFCURVE",
"327 545 CURVE SMOOTH",
"345 460 OFFCURVE",
"304 400 OFFCURVE",
"197 400 CURVE SMOOTH",
"100 400 LINE",
"108 366 LINE",
"231 366 LINE SMOOTH",
"336 366 OFFCURVE",
"412 313 OFFCURVE",
"432 216 CURVE SMOOTH",
"454 114 OFFCURVE",
"413 44 OFFCURVE",
"262 44 CURVE SMOOTH",
"141 44 LINE",
"150 0 LINE {name = \"🧨\";}"
);
},
{
closed = 1;
nodes = (
"192 0 LINE {name = \"🧨\";}",
"44 700 LINE {name = \"🧨\";}",
"-18 700 LINE {name = \"🧨\";}",
"130 0 LINE {name = \"🧨\";}"
);
}
);
width = 570;
}
);
leftMetricsKey = H;
unicode = 0042;
},
{
color = 5;
glyphname = C;
lastChange = "2021-11-15 17:37:08 +0000";
layers = (
{
background = {
paths = (
{
closed = 1;
nodes = (
"536 -12 OFFCURVE",
"613 14 OFFCURVE",
"636 25 CURVE",
"658 71 LINE",
"647 76 LINE",
"638 68 OFFCURVE",
"589 28 OFFCURVE",
"445 28 CURVE SMOOTH",
"295 28 OFFCURVE",
"134 140 OFFCURVE",
"134 348 CURVE SMOOTH",
"134 553 OFFCURVE",
"232 668 OFFCURVE",
"445 668 CURVE SMOOTH",
"526 668 OFFCURVE",
"593 640 OFFCURVE",
"618 616 CURVE",
"623 598 OFFCURVE",
"625 584 OFFCURVE",
"625 570 CURVE",
"656 570 LINE",
"661 669 LINE",
"639 680 OFFCURVE",
"570 710 OFFCURVE",
"440 710 CURVE SMOOTH",
"238 710 OFFCURVE",
"56 582 OFFCURVE",
"56 348 CURVE SMOOTH",
"56 147 OFFCURVE",
"180 -12 OFFCURVE",
"425 -12 CURVE SMOOTH"
);
}
);
};
backgroundImage = {
crop = "{{0, 0}, {305.16, 367}}";
imagePath = "img/05 Page 3.png";
locked = "1";
transform = "{41.666, 0, 0, 41.666, -2971, -11670}";
};
layerId = "A2204D38-078E-49A4-B70C-87904FFF8E34";
paths = (
{
closed = 1;
nodes = (
"536 -12 OFFCURVE",
"613 14 OFFCURVE",
"647 30 CURVE",
"643 77 LINE",
"635 77 LINE",
"626 69 OFFCURVE",
"587 30 OFFCURVE",
"445 30 CURVE SMOOTH",
"299 30 OFFCURVE",
"134 140 OFFCURVE",
"134 348 CURVE SMOOTH",
"134 553 OFFCURVE",
"232 668 OFFCURVE",
"446 668 CURVE SMOOTH",
"526 668 OFFCURVE",
"593 640 OFFCURVE",
"619 615 CURVE",
"623 611 OFFCURVE",
"625 609 OFFCURVE",
"629 604 CURVE",
"638 605 LINE",
"676 662 LINE",
"639 680 OFFCURVE",
"570 710 OFFCURVE",
"440 710 CURVE SMOOTH",
"238 710 OFFCURVE",
"56 582 OFFCURVE",
"56 348 CURVE SMOOTH",
"56 147 OFFCURVE",
"180 -12 OFFCURVE",
"425 -12 CURVE SMOOTH"
);
}
);
width = 731;
},
{
backgroundImage = {
crop = "{{0, 0}, {305.16, 367}}";
imagePath = "img/05 Page 3.png";
locked = "1";
transform = "{41.66634, 0, 0, 41.66634, -2992, -11670}";
};
layerId = "3EDEE92B-4D9D-4D9A-9438-63C2E33416C1";
paths = (
{
closed = 1;
nodes = (
"514 -12 OFFCURVE",
"591 14 OFFCURVE",
"614 25 CURVE",
"636 71 LINE",
"625 76 LINE",
"616 68 OFFCURVE",
"564 30 OFFCURVE",
"423 30 CURVE SMOOTH",
"276 30 OFFCURVE",
"112 140 OFFCURVE",
"112 348 CURVE SMOOTH",
"112 553 OFFCURVE",
"210 668 OFFCURVE",
"423 668 CURVE SMOOTH",
"504 668 OFFCURVE",
"571 640 OFFCURVE",
"596 616 CURVE",
"601 598 OFFCURVE",
"603 584 OFFCURVE",
"603 570 CURVE",
"634 570 LINE",
"639 669 LINE",
"617 680 OFFCURVE",
"548 710 OFFCURVE",
"418 710 CURVE SMOOTH",
"216 710 OFFCURVE",
"34 582 OFFCURVE",
"34 348 CURVE SMOOTH",
"34 147 OFFCURVE",
"158 -12 OFFCURVE",
"403 -12 CURVE SMOOTH"
);
}
);
width = 675;
},
{
background = {
paths = (
{
closed = 1;
nodes = (
"502 -12 OFFCURVE",
"579 14 OFFCURVE",
"602 25 CURVE",
"624 71 LINE",
"613 76 LINE",
"604 68 OFFCURVE",
"555 28 OFFCURVE",
"411 28 CURVE SMOOTH",
"261 28 OFFCURVE",
"100 140 OFFCURVE",
"100 348 CURVE SMOOTH",
"100 553 OFFCURVE",
"198 668 OFFCURVE",
"411 668 CURVE SMOOTH",
"492 668 OFFCURVE",
"559 640 OFFCURVE",
"584 616 CURVE",
"589 598 OFFCURVE",
"591 584 OFFCURVE",
"591 570 CURVE",
"622 570 LINE",
"627 669 LINE",
"605 680 OFFCURVE",
"536 710 OFFCURVE",
"406 710 CURVE SMOOTH",
"204 710 OFFCURVE",
"22 582 OFFCURVE",
"22 348 CURVE SMOOTH",
"22 147 OFFCURVE",
"146 -12 OFFCURVE",
"391 -12 CURVE SMOOTH"
);
}
);
};
backgroundImage = {
crop = "{{0, 0}, {305.16, 367}}";
imagePath = "img/05 Page 3.png";
locked = "1";
transform = "{41.666, 0, -2.06503, 41.666, -2324, -11670}";
};
layerId = "12C15986-4B26-4DD1-ABCC-3DD937B37D00";
paths = (
{
closed = 1;
nodes = (
"455 -12 OFFCURVE",
"537 13 OFFCURVE",
"575 29 CURVE",
"579 77 LINE",
"570 79 LINE",
"559 71 OFFCURVE",
"511 30 OFFCURVE",
"367 30 CURVE SMOOTH",
"223 30 OFFCURVE",
"83 137 OFFCURVE",
"127 343 CURVE SMOOTH",
"171 550 OFFCURVE",
"296 668 OFFCURVE",
"512 668 CURVE SMOOTH",
"590 668 OFFCURVE",
"651 642 OFFCURVE",
"673 619 CURVE",
"675 617 OFFCURVE",
"678 612 OFFCURVE",
"680 606 CURVE",
"687 605 LINE",
"735 661 LINE",
"701 679 OFFCURVE",
"639 710 OFFCURVE",
"507 710 CURVE SMOOTH",
"307 710 OFFCURVE",
"100 585 OFFCURVE",
"51 353 CURVE SMOOTH",
"7 150 OFFCURVE",
"99 -12 OFFCURVE",
"346 -12 CURVE SMOOTH"
);
}
);
width = 745;
},
{
backgroundImage = {
crop = "{{0, 0}, {305.16, 367}}";
imagePath = "img/05 Page 3.png";
locked = "1";
transform = "{41.66634, 0, 17.71291, 41.66634, -8086, -11670}";
};
layerId = "1699526A-EFB7-4794-9793-F4E554F51E17";
paths = (
{
closed = 1;
nodes = (
"427 -12 OFFCURVE",
"509 13 OFFCURVE",
"535 24 CURVE",
"565 71 LINE",
"553 78 LINE",
"543 70 OFFCURVE",
"482 30 OFFCURVE",
"339 30 CURVE SMOOTH",
"194 30 OFFCURVE",
"55 137 OFFCURVE",
"99 343 CURVE SMOOTH",
"143 550 OFFCURVE",
"268 668 OFFCURVE",
"483 668 CURVE SMOOTH",
"562 668 OFFCURVE",
"623 642 OFFCURVE",
"643 620 CURVE",
"643 600 OFFCURVE",
"641 587 OFFCURVE",
"638 573 CURVE",
"669 570 LINE",
"693 668 LINE",
"673 679 OFFCURVE",
"611 710 OFFCURVE",
"479 710 CURVE SMOOTH",
"279 710 OFFCURVE",
"72 585 OFFCURVE",
"23 353 CURVE SMOOTH",
"-21 150 OFFCURVE",
"71 -12 OFFCURVE",
"318 -12 CURVE SMOOTH"
);
}
);
width = 717;
},
{
backgroundImage = {
crop = "{{0, 0}, {305.16, 367}}";
imagePath = "img/05 Page 3.png";
locked = "1";
transform = "{41.66634, 0, -17.71291, 41.66634, 2078, -11670}";
};
layerId = "BC891ED8-9BFD-414F-9425-FE2804369777";
paths = (
{
closed = 1;
nodes = (
"577 -12 OFFCURVE",
"648 15 OFFCURVE",
"669 26 CURVE",
"683 71 LINE",
"673 74 LINE",
"666 66 OFFCURVE",
"622 30 OFFCURVE",
"483 30 CURVE SMOOTH",
"334 30 OFFCURVE",
"144 143 OFFCURVE",
"99 353 CURVE SMOOTH",
"56 556 OFFCURVE",
"128 668 OFFCURVE",
"339 668 CURVE SMOOTH",
"422 668 OFFCURVE",
"496 638 OFFCURVE",
"526 612 CURVE",
"536 596 OFFCURVE",
"542 581 OFFCURVE",
"545 567 CURVE",
"575 570 LINE",
"561 670 LINE",
"536 681 OFFCURVE",
"461 710 OFFCURVE",
"333 710 CURVE SMOOTH",
"129 710 OFFCURVE",
"-27 579 OFFCURVE",
"23 343 CURVE SMOOTH",
"66 144 OFFCURVE",
"221 -12 OFFCURVE",
"464 -12 CURVE SMOOTH"
);
}
);
width = 731;
},
{
background = {
paths = (
{
closed = 1;
nodes = (
"537 -12 OFFCURVE",
"614 14 OFFCURVE",
"637 25 CURVE",
"659 71 LINE",
"648 76 LINE",
"639 68 OFFCURVE",
"590 28 OFFCURVE",
"446 28 CURVE SMOOTH",
"296 28 OFFCURVE",
"135 140 OFFCURVE",
"135 348 CURVE SMOOTH",
"135 553 OFFCURVE",
"233 668 OFFCURVE",
"446 668 CURVE SMOOTH",
"527 668 OFFCURVE",
"594 640 OFFCURVE",
"619 616 CURVE",
"624 598 OFFCURVE",
"626 584 OFFCURVE",
"626 570 CURVE",
"657 570 LINE",
"662 669 LINE",
"640 680 OFFCURVE",
"571 710 OFFCURVE",
"441 710 CURVE SMOOTH",
"239 710 OFFCURVE",
"57 582 OFFCURVE",
"57 348 CURVE SMOOTH",
"57 147 OFFCURVE",
"181 -12 OFFCURVE",
"426 -12 CURVE SMOOTH"
);
}
);
};
backgroundImage = {
crop = "{{0, 0}, {305.16, 367}}";
imagePath = "img/05 Page 3.png";
locked = "1";
transform = "{41.666, 0, -8.85638, 41.666, -443, -11670}";
};
layerId = "7121B8A5-DE38-4240-9956-93F0DA171E86";
paths = (
{
closed = 1;
nodes = (
"584 -12 OFFCURVE",
"655 15 OFFCURVE",
"686 31 CURVE",
"674 77 LINE",
"668 75 LINE",
"661 67 OFFCURVE",
"630 30 OFFCURVE",
"490 30 CURVE SMOOTH",
"342 30 OFFCURVE",
"151 143 OFFCURVE",
"106 353 CURVE SMOOTH",
"63 556 OFFCURVE",
"135 668 OFFCURVE",
"347 668 CURVE SMOOTH",
"429 668 OFFCURVE",
"503 638 OFFCURVE",
"533 612 CURVE",
"539 610 OFFCURVE",
"542 607 OFFCURVE",
"547 602 CURVE",
"556 605 LINE",
"583 663 LINE",
"543 681 OFFCURVE",
"468 710 OFFCURVE",
"340 710 CURVE SMOOTH",
"136 710 OFFCURVE",
"-20 579 OFFCURVE",
"30 343 CURVE SMOOTH",
"73 144 OFFCURVE",
"228 -12 OFFCURVE",
"471 -12 CURVE SMOOTH"
);
}
);
width = 768;
}
);
leftMetricsKey = O;
rightMetricsKey = O;
unicode = 0043;
},
{
color = 5;
glyphname = D;
lastChange = "2021-11-15 17:36:43 +0000";
layers = (
{
hints = (
{
origin = "{0, 7}";
scale = "{1, -1}";
type = Corner;
name = _corner.CAP.leftSerif;
},
{
origin = "{0, 8}";
scale = "{0.8, 1}";
type = Corner;
name = _corner.CAP.leftSerif;
}
);
layerId = "A2204D38-078E-49A4-B70C-87904FFF8E34";
paths = (
{
closed = 1;
nodes = (
"317 0 LINE SMOOTH",
"555 0 OFFCURVE",
"700 177 OFFCURVE",
"700 383 CURVE SMOOTH",
"700 597 OFFCURVE",
"609 700 OFFCURVE",
"375 700 CURVE SMOOTH",
"82 700 LINE {name = \"🧨\";}",
"82 0 LINE {name = \"🧨\";}"
);
},
{
closed = 1;
nodes = (
"152 660 LINE",
"360 660 LINE SMOOTH",
"519 660 OFFCURVE",
"622 554 OFFCURVE",
"622 383 CURVE SMOOTH",
"622 151 OFFCURVE",
"515 44 OFFCURVE",
"306 44 CURVE SMOOTH",
"152 44 LINE"
);
}
);
width = 755;
},
{
backgroundImage = {
crop = "{{0, 0}, {305.16, 367}}";
imagePath = "img/05 Page 3.png";
locked = "1";
transform = "{42.083, 0, 0, 42.083, -3802, -11793}";
};
hints = (
{
origin = "{0, 7}";
scale = "{1, -1}";
type = Corner;
name = _corner.CAP.leftSerif;
},
{
origin = "{0, 8}";
scale = "{0.9, 1}";
type = Corner;
name = _corner.CAP.leftSerif;
}
);
layerId = "3EDEE92B-4D9D-4D9A-9438-63C2E33416C1";
paths = (
{
closed = 1;
nodes = (
"347 0 LINE SMOOTH",
"585 0 OFFCURVE",
"730 177 OFFCURVE",
"730 383 CURVE SMOOTH",
"730 597 OFFCURVE",
"639 700 OFFCURVE",
"405 700 CURVE SMOOTH",
"112 700 LINE {name = \"🧨\";}",
"112 0 LINE {name = \"🧨\";}"
);
},
{
closed = 1;
nodes = (
"182 660 LINE",
"390 660 LINE SMOOTH",
"549 660 OFFCURVE",
"652 554 OFFCURVE",
"652 383 CURVE SMOOTH",
"652 151 OFFCURVE",
"545 44 OFFCURVE",
"336 44 CURVE SMOOTH",
"182 44 LINE"
);
}
);
width = 766;
},
{
hints = (
{
origin = "{0, 7}";
scale = "{1, -1}";
type = Corner;
name = _corner.CAP.leftSerif;
},
{
origin = "{0, 8}";
scale = "{0.8, 1}";
type = Corner;
name = _corner.CAP.leftSerif;
options = 1;
}
);
layerId = "12C15986-4B26-4DD1-ABCC-3DD937B37D00";
paths = (
{
closed = 1;
nodes = (
"253 0 LINE SMOOTH",
"491 0 OFFCURVE",
"671 174 OFFCURVE",
"714 378 CURVE SMOOTH",
"760 594 OFFCURVE",
"689 700 OFFCURVE",
"455 700 CURVE SMOOTH",
"164 700 LINE {name = \"🧨\";}",
"16 0 LINE {name = \"🧨\";}"
);
},
{
closed = 1;
nodes = (
"226 660 LINE",
"436 660 LINE SMOOTH",
"595 660 OFFCURVE",
"674 557 OFFCURVE",
"638 388 CURVE SMOOTH",
"588 154 OFFCURVE",
"456 44 OFFCURVE",
"247 44 CURVE SMOOTH",
"95 44 LINE"
);
}
);
width = 737;
},
{
backgroundImage = {
crop = "{{0, 0}, {305.16, 367}}";
imagePath = "img/05 Page 3.png";
locked = "1";
transform = "{42.083, 0, 17.89004, 42.083, -8901, -11793}";
};
hints = (
{
origin = "{0, 7}";
scale = "{1, -1}";
type = Corner;
name = _corner.CAP.leftSerif;
options = 1;
},
{
origin = "{0, 8}";
scale = "{0.9, 1}";
type = Corner;
name = _corner.CAP.leftSerif;
}
);
layerId = "1699526A-EFB7-4794-9793-F4E554F51E17";
paths = (
{
closed = 1;
nodes = (
"310 0 LINE SMOOTH",
"548 0 OFFCURVE",
"728 174 OFFCURVE",
"771 378 CURVE SMOOTH",
"817 594 OFFCURVE",
"746 700 OFFCURVE",
"512 700 CURVE SMOOTH",
"221 700 LINE {name = \"🧨\";}",
"73 0 LINE {name = \"🧨\";}"
);
},
{
closed = 1;
nodes = (
"283 660 LINE",
"493 660 LINE SMOOTH",
"652 660 OFFCURVE",
"731 557 OFFCURVE",
"695 388 CURVE SMOOTH",
"645 154 OFFCURVE",
"513 44 OFFCURVE",
"304 44 CURVE SMOOTH",
"152 44 LINE"
);
}
);
width = 808;
},
{
backgroundImage = {
crop = "{{0, 0}, {305.16, 367}}";
imagePath = "img/05 Page 3.png";
locked = "1";
transform = "{42.083, 0, -17.89004, 42.083, 1326, -11793}";
};
hints = (
{
origin = "{0, 7}";
scale = "{1, -1}";
type = Corner;
name = _corner.CAP.leftSerif;
options = 1;
},
{
origin = "{0, 8}";
scale = "{0.9, 1}";
type = Corner;
name = _corner.CAP.leftSerif;
}
);
layerId = "BC891ED8-9BFD-414F-9425-FE2804369777";
paths = (
{
closed = 1;
nodes = (
"413 0 LINE SMOOTH",
"651 0 OFFCURVE",
"760 180 OFFCURVE",
"716 388 CURVE SMOOTH",
"671 600 OFFCURVE",
"561 700 OFFCURVE",
"327 700 CURVE SMOOTH",
"32 700 LINE {name = \"🧨\";}",
"180 0 LINE {name = \"🧨\";}"
);
},
{
closed = 1;
nodes = (
"110 660 LINE",
"316 660 LINE SMOOTH",
"475 660 OFFCURVE",
"603 551 OFFCURVE",
"640 378 CURVE SMOOTH",
"689 148 OFFCURVE",
"606 44 OFFCURVE",
"397 44 CURVE SMOOTH",
"241 44 LINE"
);
}
);
width = 774;
},
{
hints = (
{
origin = "{0, 7}";
scale = "{1, -1}";
type = Corner;
name = _corner.CAP.leftSerif;
},
{
origin = "{0, 8}";
scale = "{0.8, 1}";
type = Corner;
name = _corner.CAP.leftSerif;
options = 1;
}
);
layerId = "7121B8A5-DE38-4240-9956-93F0DA171E86";
paths = (
{
closed = 1;
nodes = (
"416 0 LINE SMOOTH",
"654 0 OFFCURVE",
"763 180 OFFCURVE",
"719 388 CURVE SMOOTH",
"674 600 OFFCURVE",
"564 700 OFFCURVE",
"330 700 CURVE SMOOTH",
"35 700 LINE {name = \"🧨\";}",
"183 0 LINE {name = \"🧨\";}"
);
},
{
closed = 1;
nodes = (
"113 660 LINE",
"319 660 LINE SMOOTH",
"478 660 OFFCURVE",
"606 551 OFFCURVE",
"643 378 CURVE SMOOTH",
"692 148 OFFCURVE",
"609 44 OFFCURVE",
"400 44 CURVE SMOOTH",
"244 44 LINE"
);
}
);
width = 811;
}
);
leftMetricsKey = N;
rightMetricsKey = O;
unicode = 0044;
},
{
color = 5;
glyphname = E;
lastChange = "2021-11-15 17:37:08 +0000";
layers = (
{
background = {
hints = (
{
origin = "{0, 2}";
scale = "{1, -1}";
type = Corner;
name = _corner.CAP.leftSerif;
},
{
origin = "{0, 3}";
type = Corner;
name = _corner.CAP.leftSerif;
},
{
origin = "{1, 1}";
scale = "{1, 0.8}";
type = Corner;
name = _corner.CAP.bottom.E;
},
{
origin = "{2, 0}";
scale = "{1, -0.8}";
type = Corner;
name = _corner.CAP.small.E;
},
{
origin = "{2, 1}";
scale = "{1, 0.8}";
type = Corner;
name = _corner.CAP.small.E;
},
{
origin = "{3, 0}";
scale = "{1, 0.8}";
type = Corner;
name = _corner.CAP.top.EE;
}
);
paths = (
{
closed = 1;
nodes = (
"145 0 LINE",
"145 700 LINE",
"75 700 LINE",
"75 0 LINE"
);
},
{
closed = 1;
nodes = (
"444 0 LINE",
"444 40 LINE",
"126 40 LINE",
"126 0 LINE"
);
},
{
closed = 1;
nodes = (
"396 336 LINE",
"396 374 LINE",
"126 374 LINE",
"126 336 LINE"
);
},
{
closed = 1;
nodes = (
"424 660 LINE",
"424 700 LINE",
"126 700 LINE",
"126 660 LINE"
);
}
);
};
hints = (
{
origin = "{0, 3}";
type = Corner;
name = _corner.CAP.leftSerif;
},
{
origin = "{2, 0}";
scale = "{1, 0.8}";
type = Corner;
name = _corner.CAP.top.EE;
},
{
origin = "{1, 1}";
type = Corner;
name = _corner.CAP.bottom.E;
},
{
origin = "{0, 2}";
scale = "{1, -1}";
type = Corner;
name = _corner.CAP.leftSerif;
}
);
layerId = "A2204D38-078E-49A4-B70C-87904FFF8E34";
paths = (
{
closed = 1;
nodes = (
"152 0 LINE {name = \"🧨\";}",
"152 700 LINE {name = \"🧨\";}",
"82 700 LINE",
"82 0 LINE"
);
},
{
closed = 1;
nodes = (
"443 0 LINE",
"443 46 LINE",
"125 46 LINE",
"125 0 LINE {name = \"🧨\";}"
);
},
{
closed = 1;
nodes = (
"423 656 LINE",
"423 700 LINE",
"125 700 LINE {name = \"🧨\";}",
"125 656 LINE"
);
},
{
closed = 1;
nodes = (
"403 334 LINE",
"403 351 LINE SMOOTH",
"403 355 OFFCURVE",
"403 363 OFFCURVE",
"403 376 CURVE",
"376 376 LINE",
"365 376 OFFCURVE",
"324 376 OFFCURVE",
"290 376 CURVE SMOOTH",
"125 376 LINE",
"125 334 LINE"
);
}
);
width = 505;
},
{
backgroundImage = {
crop = "{{0, 0}, {305.16, 367}}";
imagePath = "img/05 Page 3.png";
locked = "1";
transform = "{42.083, 0, 0, 42.083, -4673, -11791}";
};
hints = (
{
origin = "{0, 3}";
type = Corner;
name = _corner.CAP.leftSerif;
},
{
origin = "{1, 1}";
type = Corner;
name = _corner.CAP.bottom.E;
},
{
origin = "{2, 0}";
type = Corner;
name = _corner.CAP.top.EE;
},
{
origin = "{0, 2}";
scale = "{1, -1}";
type = Corner;
name = _corner.CAP.leftSerif;
}
);
layerId = "3EDEE92B-4D9D-4D9A-9438-63C2E33416C1";
paths = (
{
closed = 1;
nodes = (
"182 0 LINE {name = \"🧨\";}",
"182 700 LINE {name = \"🧨\";}",
"112 700 LINE",
"112 0 LINE"
);
},
{
closed = 1;
nodes = (
"481 0 LINE",
"481 46 LINE",
"163 46 LINE",
"163 0 LINE {name = \"🧨\";}"
);
},
{
closed = 1;
nodes = (
"461 656 LINE",
"461 700 LINE",
"163 700 LINE {name = \"🧨\";}",
"163 656 LINE"
);
},
{
closed = 1;
nodes = (
"431 334 LINE",
"431 351 LINE SMOOTH",
"431 363 OFFCURVE",
"432 371 OFFCURVE",
"434 387 CURVE",
"409 387 LINE",
"385 380 OFFCURVE",
"352 376 OFFCURVE",
"318 376 CURVE SMOOTH",
"153 376 LINE",
"153 334 LINE"
);
}
);
width = 515;
},
{
background = {
hints = (
{
origin = "{0, 2}";
scale = "{1, -1}";
type = Corner;
name = _corner.CAP.leftSerif;
},
{
origin = "{0, 3}";
type = Corner;
name = _corner.CAP.leftSerif;
},
{
origin = "{1, 1}";
scale = "{1, 0.8}";
type = Corner;
name = _corner.CAP.bottom.E;
},
{
origin = "{2, 0}";
scale = "{1, -0.8}";
type = Corner;
name = _corner.CAP.small.E;
},
{
origin = "{2, 1}";
scale = "{1, 0.8}";
type = Corner;
name = _corner.CAP.small.E;
},
{
origin = "{3, 0}";
scale = "{1, 0.8}";
type = Corner;
name = _corner.CAP.top.EE;
}
);
paths = (
{
closed = 1;
nodes = (
"125 0 LINE",
"125 700 LINE",
"55 700 LINE",
"55 0 LINE"
);
},
{
closed = 1;
nodes = (
"424 0 LINE",
"424 40 LINE",
"106 40 LINE",
"106 0 LINE"
);
},
{
closed = 1;
nodes = (
"376 336 LINE",
"376 374 LINE",
"106 374 LINE",
"106 336 LINE"
);
},
{
closed = 1;
nodes = (
"404 660 LINE",
"404 700 LINE",
"106 700 LINE",
"106 660 LINE"
);
}
);
};
hints = (
{
origin = "{0, 3}";
type = Corner;
name = _corner.CAP.leftSerif;
options = 1;
},
{
origin = "{2, 0}";
scale = "{1, 0.8}";
type = Corner;
name = _corner.CAP.top.EE;
options = 1;
},
{
origin = "{1, 1}";
type = Corner;
name = _corner.CAP.bottom.E;
},
{
origin = "{0, 2}";
scale = "{1, -1}";
type = Corner;
name = _corner.CAP.leftSerif;
}
);
layerId = "12C15986-4B26-4DD1-ABCC-3DD937B37D00";
paths = (
{
closed = 1;
nodes = (
"86 0 LINE {name = \"🧨\";}",
"234 700 LINE {name = \"🧨\";}",
"164 700 LINE",
"16 0 LINE"
);
},
{
closed = 1;
nodes = (
"377 0 LINE",
"386 46 LINE",
"68 46 LINE",
"59 0 LINE {name = \"🧨\";}"
);
},
{
closed = 1;
nodes = (
"496 656 LINE",
"505 700 LINE",
"207 700 LINE {name = \"🧨\";}",
"198 656 LINE"
);
},
{
closed = 1;
nodes = (
"408 334 LINE",
"411 348 LINE SMOOTH",
"412 352 OFFCURVE",
"415 364 OFFCURVE",
"418 376 CURVE",
"388 376 LINE",
"377 376 OFFCURVE",
"336 376 OFFCURVE",
"302 376 CURVE SMOOTH",
"139 376 LINE",
"130 334 LINE"
);
}
);
width = 515;
},
{
backgroundImage = {
crop = "{{0, 0}, {305.16, 367}}";
imagePath = "img/05 Page 3.png";
locked = "1";
transform = "{42.083, 0, 17.89004, 42.083, -9764, -11791}";
};
hints = (
{
origin = "{0, 3}";
type = Corner;
name = _corner.CAP.leftSerif;
},
{
origin = "{1, 1}";
type = Corner;
name = _corner.CAP.bottom.E;
},
{
origin = "{2, 0}";
type = Corner;
name = _corner.CAP.top.EE;
},
{
origin = "{0, 2}";
scale = "{1, -1}";
type = Corner;
name = _corner.CAP.leftSerif;
options = 1;
}
);
layerId = "1699526A-EFB7-4794-9793-F4E554F51E17";
paths = (
{
closed = 1;
nodes = (
"150 0 LINE {name = \"🧨\";}",
"298 700 LINE {name = \"🧨\";}",
"228 700 LINE",
"80 0 LINE"
);
},
{
closed = 1;
nodes = (
"449 0 LINE",
"458 46 LINE",
"140 46 LINE",
"131 0 LINE {name = \"🧨\";}"
);
},
{
closed = 1;
nodes = (
"568 656 LINE",
"577 700 LINE",
"279 700 LINE {name = \"🧨\";}",
"270 656 LINE"
);
},
{
closed = 1;
nodes = (
"470 334 LINE",
"473 348 LINE SMOOTH",
"475 360 OFFCURVE",
"478 369 OFFCURVE",
"484 385 CURVE",
"457 388 LINE",
"432 381 OFFCURVE",
"398 376 OFFCURVE",
"364 376 CURVE SMOOTH",
"201 376 LINE",
"192 334 LINE"
);
}
);
width = 557;
},
{
backgroundImage = {
crop = "{{0, 0}, {305.16, 367}}";
imagePath = "img/05 Page 3.png";
locked = "1";
transform = "{42.083, 0, -17.89004, 42.083, 454, -11791}";
};
hints = (
{
origin = "{0, 3}";
type = Corner;
name = _corner.CAP.leftSerif;
},
{
origin = "{1, 1}";
type = Corner;
name = _corner.CAP.bottom.E;
},
{
origin = "{2, 0}";
type = Corner;
name = _corner.CAP.top.EE;
},
{
origin = "{0, 2}";
scale = "{1, -1}";
type = Corner;
name = _corner.CAP.leftSerif;
options = 1;
}
);
layerId = "BC891ED8-9BFD-414F-9425-FE2804369777";
paths = (
{
closed = 1;
nodes = (
"250 0 LINE {name = \"🧨\";}",
"102 700 LINE {name = \"🧨\";}",
"32 700 LINE",
"180 0 LINE"
);
},
{
closed = 1;
nodes = (
"549 0 LINE",
"540 46 LINE",
"222 46 LINE",
"231 0 LINE {name = \"🧨\";}"
);
},
{
closed = 1;
nodes = (
"390 656 LINE",
"381 700 LINE",
"83 700 LINE {name = \"🧨\";}",
"92 656 LINE"
);
},
{
closed = 1;
nodes = (
"428 334 LINE",
"424 354 LINE SMOOTH",
"422 366 OFFCURVE",
"421 373 OFFCURVE",
"419 389 CURVE",
"397 386 LINE",
"375 379 OFFCURVE",
"342 376 OFFCURVE",
"308 376 CURVE SMOOTH",
"141 376 LINE",
"150 334 LINE"
);
}
);
width = 572;
},
{
background = {
hints = (
{
origin = "{0, 2}";
scale = "{1, -1}";
type = Corner;
name = _corner.CAP.leftSerif;
},
{
origin = "{0, 3}";
type = Corner;
name = _corner.CAP.leftSerif;
},
{
origin = "{1, 1}";
scale = "{1, 0.8}";
type = Corner;
name = _corner.CAP.bottom.E;
},
{
origin = "{2, 0}";
scale = "{1, -0.8}";
type = Corner;
name = _corner.CAP.small.E;
},
{
origin = "{2, 1}";
scale = "{1, 0.8}";
type = Corner;
name = _corner.CAP.small.E;
},
{
origin = "{3, 0}";
scale = "{1, 0.8}";
type = Corner;
name = _corner.CAP.top.EE;
}
);
paths = (
{
closed = 1;
nodes = (
"200 0 LINE",
"200 700 LINE",
"130 700 LINE",
"130 0 LINE"
);
},
{
closed = 1;
nodes = (
"499 0 LINE",
"499 40 LINE",
"181 40 LINE",
"181 0 LINE"
);
},
{
closed = 1;
nodes = (
"451 336 LINE",
"451 374 LINE",
"181 374 LINE",
"181 336 LINE"
);
},
{
closed = 1;
nodes = (
"479 660 LINE",
"479 700 LINE",
"181 700 LINE",
"181 660 LINE"
);
}
);
};
hints = (
{
origin = "{0, 3}";
type = Corner;
name = _corner.CAP.leftSerif;
options = 1;
},
{
origin = "{2, 0}";
scale = "{1, 0.8}";
type = Corner;
name = _corner.CAP.top.EE;
options = 1;
},
{
origin = "{1, 1}";
type = Corner;
name = _corner.CAP.bottom.E;
},
{
origin = "{0, 2}";
scale = "{1, -1}";
type = Corner;
name = _corner.CAP.leftSerif;
}
);
layerId = "7121B8A5-DE38-4240-9956-93F0DA171E86";
paths = (
{
closed = 1;
nodes = (
"253 0 LINE {name = \"🧨\";}",
"105 700 LINE {name = \"🧨\";}",
"35 700 LINE",
"183 0 LINE"
);
},
{
closed = 1;
nodes = (
"544 0 LINE",
"535 46 LINE",
"217 46 LINE",
"226 0 LINE {name = \"🧨\";}"
);
},
{
closed = 1;
nodes = (
"385 656 LINE",
"376 700 LINE",
"78 700 LINE {name = \"🧨\";}",
"87 656 LINE"
);
},
{
closed = 1;
nodes = (
"433 334 LINE",
"429 354 LINE SMOOTH",
"428 358 OFFCURVE",
"427 363 OFFCURVE",
"424 376 CURVE",
"399 376 LINE",
"388 376 OFFCURVE",
"347 376 OFFCURVE",
"313 376 CURVE SMOOTH",
"146 376 LINE",
"155 334 LINE"
);
}
);
width = 560;
}
);
leftMetricsKey = N;
unicode = 0045;
},
{
color = 5;
glyphname = F;
lastChange = "2021-11-15 17:37:08 +0000";
layers = (
{
hints = (
{
origin = "{0, 0}";
scale = "{-1, 1}";
type = Corner;
name = _corner.CAP.leftSerif;
},
{
origin = "{0, 2}";
scale = "{1, -1}";
type = Corner;
name = _corner.CAP.leftSerif;
},
{
origin = "{0, 3}";
type = Corner;
name = _corner.CAP.leftSerif;
},
{
origin = "{1, 0}";
scale = "{1, 0.8}";
type = Corner;
name = _corner.CAP.top.EE;
}
);
layerId = "A2204D38-078E-49A4-B70C-87904FFF8E34";
paths = (
{
closed = 1;
nodes = (
"152 0 LINE {name = \"🧨\";}",
"152 700 LINE {name = \"🧨\";}",
"82 700 LINE",
"82 0 LINE"
);
},
{
closed = 1;
nodes = (
"423 658 LINE",
"423 700 LINE",
"125 700 LINE {name = \"🧨\";}",
"125 658 LINE"
);
},
{
closed = 1;
nodes = (
"360 284 LINE",
"360 301 LINE SMOOTH",
"360 305 OFFCURVE",
"360 313 OFFCURVE",
"360 326 CURVE",
"333 326 LINE",
"322 326 OFFCURVE",
"281 326 OFFCURVE",
"247 326 CURVE SMOOTH",
"82 326 LINE",
"82 284 LINE"
);
}
);
width = 433;
},
{
backgroundImage = {
crop = "{{0, 0}, {305.16, 367}}";
imagePath = "img/05 Page 3.png";
transform = "{42.083, 0, 0, 42.083, -5263, -11795}";
};
hints = (
{
origin = "{0, 2}";
scale = "{1, -1}";
type = Corner;
name = _corner.CAP.leftSerif;
},
{
origin = "{0, 3}";
type = Corner;
name = _corner.CAP.leftSerif;
},
{
origin = "{1, 0}";
scale = "{1, 0.8}";
type = Corner;
name = _corner.CAP.top.EE;
},
{
origin = "{0, 0}";
scale = "{-1, 1}";
type = Corner;
name = _corner.CAP.leftSerif;
}
);
layerId = "3EDEE92B-4D9D-4D9A-9438-63C2E33416C1";
paths = (
{
closed = 1;
nodes = (
"182 0 LINE {name = \"🧨\";}",
"182 700 LINE {name = \"🧨\";}",
"112 700 LINE",
"112 0 LINE"
);
},
{
closed = 1;
nodes = (
"461 654 LINE",
"461 700 LINE",
"163 700 LINE {name = \"🧨\";}",
"163 654 LINE"
);
},
{
closed = 1;
nodes = (
"431 284 LINE",
"431 301 LINE SMOOTH",
"431 314 OFFCURVE",
"432 329 OFFCURVE",
"434 342 CURVE",
"394 342 LINE",
"374 333 OFFCURVE",
"352 326 OFFCURVE",
"318 326 CURVE SMOOTH",
"153 326 LINE",
"153 284 LINE"
);
}
);
width = 485;
},
{
hints = (
{
origin = "{0, 0}";
scale = "{-1, 1}";
type = Corner;
name = _corner.CAP.leftSerif;
},
{
origin = "{0, 2}";
scale = "{1, -1}";
type = Corner;
name = _corner.CAP.leftSerif;
},
{
origin = "{0, 3}";
type = Corner;
name = _corner.CAP.leftSerif;
options = 1;
},
{
origin = "{1, 0}";
scale = "{1, 0.8}";
type = Corner;
name = _corner.CAP.top.EE;
options = 1;
}
);
layerId = "12C15986-4B26-4DD1-ABCC-3DD937B37D00";
paths = (
{
closed = 1;
nodes = (
"86 0 LINE {name = \"🧨\";}",
"234 700 LINE {name = \"🧨\";}",
"164 700 LINE",
"16 0 LINE"
);
},
{
closed = 1;
nodes = (
"497 658 LINE",
"505 700 LINE",
"207 700 LINE {name = \"🧨\";}",
"199 658 LINE"
);
},
{
closed = 1;
nodes = (
"354 284 LINE",
"357 298 LINE SMOOTH",
"358 302 OFFCURVE",
"361 315 OFFCURVE",
"364 326 CURVE",
"334 326 LINE",
"323 326 OFFCURVE",
"282 326 OFFCURVE",
"248 326 CURVE SMOOTH",
"85 326 LINE",
"76 284 LINE"
);
}
);
width = 425;
},
{
backgroundImage = {
crop = "{{0, 0}, {305.16, 367}}";
imagePath = "img/05 Page 3.png";
transform = "{42.083, 0, 17.89004, 42.083, -10356, -11795}";
};
hints = (
{
origin = "{0, 2}";
scale = "{1, -1}";
type = Corner;
name = _corner.CAP.leftSerif;
options = 1;
},
{
origin = "{0, 3}";
type = Corner;
name = _corner.CAP.leftSerif;
},
{
origin = "{1, 0}";
scale = "{1, 0.8}";
type = Corner;
name = _corner.CAP.top.EE;
},
{
origin = "{0, 0}";
scale = "{-1, 1}";
type = Corner;
name = _corner.CAP.leftSerif;
options = 1;
}
);
layerId = "1699526A-EFB7-4794-9793-F4E554F51E17";
paths = (
{
closed = 1;
nodes = (
"150 0 LINE {name = \"🧨\";}",
"298 700 LINE {name = \"🧨\";}",
"228 700 LINE",
"80 0 LINE"
);
},
{
closed = 1;
nodes = (
"568 654 LINE",
"577 700 LINE",
"279 700 LINE {name = \"🧨\";}",
"270 654 LINE"
);
},
{
closed = 1;
nodes = (
"459 284 LINE",
"462 298 LINE SMOOTH",
"465 311 OFFCURVE",
"469 327 OFFCURVE",
"474 340 CURVE",
"433 343 LINE",
"411 334 OFFCURVE",
"387 326 OFFCURVE",
"353 326 CURVE SMOOTH",
"190 326 LINE",
"181 284 LINE"
);
}
);
width = 499;
},
{
backgroundImage = {
crop = "{{0, 0}, {305.16, 367}}";
imagePath = "img/05 Page 3.png";
transform = "{42.083, 0, -17.89004, 42.083, -134, -11795}";
};
hints = (
{
origin = "{0, 2}";
scale = "{1, -1}";
type = Corner;
name = _corner.CAP.leftSerif;
options = 1;
},
{
origin = "{0, 3}";
type = Corner;
name = _corner.CAP.leftSerif;
},
{
origin = "{1, 0}";
scale = "{1, 0.8}";
type = Corner;
name = _corner.CAP.top.EE;
},
{
origin = "{0, 0}";
scale = "{-1, 1}";
type = Corner;
name = _corner.CAP.leftSerif;
options = 1;
}
);
layerId = "BC891ED8-9BFD-414F-9425-FE2804369777";
paths = (
{
closed = 1;
nodes = (
"250 0 LINE {name = \"🧨\";}",
"102 700 LINE {name = \"🧨\";}",
"32 700 LINE",
"180 0 LINE"
);
},
{
closed = 1;
nodes = (
"390 654 LINE",
"381 700 LINE",
"83 700 LINE {name = \"🧨\";}",
"92 654 LINE"
);
},
{
closed = 1;
nodes = (
"439 284 LINE",
"435 304 LINE SMOOTH",
"432 317 OFFCURVE",
"430 331 OFFCURVE",
"429 344 CURVE",
"392 341 LINE",
"374 332 OFFCURVE",
"353 326 OFFCURVE",
"319 326 CURVE SMOOTH",
"152 326 LINE",
"161 284 LINE"
);
}
);
width = 507;
},
{
hints = (
{
origin = "{0, 0}";
scale = "{-1, 1}";
type = Corner;
name = _corner.CAP.leftSerif;
},
{
origin = "{0, 2}";
scale = "{1, -1}";
type = Corner;
name = _corner.CAP.leftSerif;
},
{
origin = "{0, 3}";
type = Corner;
name = _corner.CAP.leftSerif;
options = 1;
},
{
origin = "{1, 0}";
scale = "{1, 0.8}";
type = Corner;
name = _corner.CAP.top.EE;
options = 1;
}
);
layerId = "7121B8A5-DE38-4240-9956-93F0DA171E86";
paths = (
{
closed = 1;
nodes = (
"253 0 LINE {name = \"🧨\";}",
"105 700 LINE {name = \"🧨\";}",
"35 700 LINE",
"183 0 LINE"
);
},
{
closed = 1;
nodes = (
"384 658 LINE",
"376 700 LINE",
"78 700 LINE {name = \"🧨\";}",
"86 658 LINE"
);
},
{
closed = 1;
nodes = (
"401 284 LINE",
"397 304 LINE SMOOTH",
"396 308 OFFCURVE",
"395 313 OFFCURVE",
"392 326 CURVE",
"367 326 LINE",
"356 326 OFFCURVE",
"315 326 OFFCURVE",
"281 326 CURVE SMOOTH",
"114 326 LINE",
"123 284 LINE"
);
}
);
width = 488;
}
);
leftMetricsKey = E;
unicode = 0046;
},
{
color = 5;
glyphname = G;
lastChange = "2021-11-15 16:33:04 +0000";
layers = (
{
layerId = "A2204D38-078E-49A4-B70C-87904FFF8E34";
paths = (
{
closed = 1;
nodes = (
"556 -14 OFFCURVE",
"628 19 OFFCURVE",
"682 36 CURVE",
"682 257 LINE {name = \"🧨\";}",
"622 257 LINE {name = \"🧨\";}",
"622 65 LINE",
"583 47 OFFCURVE",
"513 28 OFFCURVE",
"449 28 CURVE SMOOTH",
"306 28 OFFCURVE",
"140 133 OFFCURVE",
"140 354 CURVE SMOOTH",
"140 552 OFFCURVE",
"265 672 OFFCURVE",
"449 672 CURVE SMOOTH",
"527 672 OFFCURVE",
"600 644 OFFCURVE",
"650 611 CURVE",
"654 608 OFFCURVE",
"658 604 OFFCURVE",
"661 600 CURVE",
"670 600 LINE",
"693 668 LINE",
"648 685 OFFCURVE",
"583 714 OFFCURVE",
"475 714 CURVE SMOOTH",
"230 714 OFFCURVE",
"56 578 OFFCURVE",
"56 339 CURVE SMOOTH",
"56 130 OFFCURVE",
"200 -14 OFFCURVE",
"422 -14 CURVE SMOOTH"
);
},
{
closed = 1;
nodes = (
"682 226 LINE",
"682 237 LINE",
"682 264 LINE",
"637 263 OFFCURVE",
"580 263 OFFCURVE",
"527 267 CURVE",
"527 242 LINE",
"622 226 LINE {name = \"🧨\";}"
);
}
);
width = 755;
},
{
backgroundImage = {
crop = "{{0, 0}, {305.16, 367}}";
imagePath = "img/05 Page 3.png";
locked = "1";
transform = "{42.083, 0, 0, 42.083, -5837, -11793}";
};
layerId = "3EDEE92B-4D9D-4D9A-9438-63C2E33416C1";
paths = (
{
closed = 1;
nodes = (
"534 -14 OFFCURVE",
"606 19 OFFCURVE",
"660 36 CURVE",
"660 257 LINE {name = \"🧨\";}",
"600 257 LINE {name = \"🧨\";}",
"600 65 LINE",
"561 47 OFFCURVE",
"491 28 OFFCURVE",
"427 28 CURVE SMOOTH",
"284 28 OFFCURVE",
"118 133 OFFCURVE",
"118 354 CURVE SMOOTH",
"118 552 OFFCURVE",
"243 672 OFFCURVE",
"427 672 CURVE SMOOTH",
"505 672 OFFCURVE",
"568 654 OFFCURVE",
"617 621 CURVE",
"620 604 OFFCURVE",
"623 587 OFFCURVE",
"626 570 CURVE",
"661 570 LINE",
"671 668 LINE",
"626 685 OFFCURVE",
"561 714 OFFCURVE",
"453 714 CURVE SMOOTH",
"208 714 OFFCURVE",
"34 578 OFFCURVE",
"34 339 CURVE SMOOTH",
"34 130 OFFCURVE",
"178 -14 OFFCURVE",
"400 -14 CURVE SMOOTH"
);
},
{
closed = 1;
nodes = (
"660 226 LINE",
"726 240 LINE",
"726 267 LINE",
"653 261 OFFCURVE",
"580 263 OFFCURVE",
"505 267 CURVE",
"505 242 LINE",
"600 226 LINE {name = \"🧨\";}"
);
}
);
width = 750;
},
{
layerId = "12C15986-4B26-4DD1-ABCC-3DD937B37D00";
paths = (
{
closed = 1;
nodes = (
"476 -14 OFFCURVE",
"554 18 OFFCURVE",
"612 35 CURVE",
"657 257 LINE {name = \"🧨\";}",
"597 257 LINE {name = \"🧨\";}",
"555 66 LINE",
"512 48 OFFCURVE",
"438 28 OFFCURVE",
"372 28 CURVE SMOOTH",
"231 28 OFFCURVE",
"88 130 OFFCURVE",
"135 349 CURVE SMOOTH",
"177 549 OFFCURVE",
"331 672 OFFCURVE",
"517 672 CURVE SMOOTH",
"593 672 OFFCURVE",
"660 645 OFFCURVE",
"704 615 CURVE",
"709 612 OFFCURVE",
"711 608 OFFCURVE",
"713 602 CURVE",
"719 600 LINE",
"754 667 LINE",
"712 684 OFFCURVE",
"653 714 OFFCURVE",
"543 714 CURVE SMOOTH",
"300 714 OFFCURVE",
"100 581 OFFCURVE",
"50 344 CURVE SMOOTH",
"5 133 OFFCURVE",
"120 -14 OFFCURVE",
"344 -14 CURVE SMOOTH"
);
},
{
closed = 1;
nodes = (
"650 226 LINE",
"653 237 LINE",
"659 264 LINE",
"614 263 OFFCURVE",
"555 263 OFFCURVE",
"502 267 CURVE",
"499 242 LINE",
"591 226 LINE {name = \"🧨\";}"
);
}
);
width = 734;
},
{
backgroundImage = {
crop = "{{0, 0}, {305.16, 367}}";
imagePath = "img/05 Page 3.png";
locked = "1";
transform = "{42.083, 0, 17.89004, 42.083, -10982, -11793}";
};
layerId = "1699526A-EFB7-4794-9793-F4E554F51E17";
paths = (
{
closed = 1;
nodes = (
"448 -14 OFFCURVE",
"526 18 OFFCURVE",
"584 35 CURVE",
"629 257 LINE {name = \"🧨\";}",
"569 257 LINE {name = \"🧨\";}",
"527 66 LINE",
"484 48 OFFCURVE",
"410 28 OFFCURVE",
"344 28 CURVE SMOOTH",
"203 28 OFFCURVE",
"60 130 OFFCURVE",
"107 349 CURVE SMOOTH",
"149 549 OFFCURVE",
"303 672 OFFCURVE",
"489 672 CURVE SMOOTH",
"565 672 OFFCURVE",
"624 655 OFFCURVE",
"666 625 CURVE",
"664 607 OFFCURVE",
"663 589 OFFCURVE",
"663 572 CURVE",
"697 570 LINE",
"726 667 LINE",
"684 684 OFFCURVE",
"625 714 OFFCURVE",
"515 714 CURVE SMOOTH",
"272 714 OFFCURVE",
"72 581 OFFCURVE",
"22 344 CURVE SMOOTH",
"-23 133 OFFCURVE",
"92 -14 OFFCURVE",
"316 -14 CURVE SMOOTH"
);
},
{
closed = 1;
nodes = (
"623 226 LINE",
"692 240 LINE",
"695 267 LINE",
"621 261 OFFCURVE",
"549 263 OFFCURVE",
"474 267 CURVE",
"471 242 LINE",
"563 226 LINE {name = \"🧨\";}"
);
}
);
width = 716;
},
{
backgroundImage = {
crop = "{{0, 0}, {305.16, 367}}";
imagePath = "img/05 Page 3.png";
locked = "1";
transform = "{42.083, 0, -17.89004, 42.083, -716, -11793}";
};
layerId = "BC891ED8-9BFD-414F-9425-FE2804369777";
paths = (
{
closed = 1;
nodes = (
"596 -14 OFFCURVE",
"661 20 OFFCURVE",
"712 37 CURVE",
"667 257 LINE {name = \"🧨\";}",
"607 257 LINE {name = \"🧨\";}",
"650 64 LINE",
"614 46 OFFCURVE",
"548 28 OFFCURVE",
"486 28 CURVE SMOOTH",
"341 28 OFFCURVE",
"151 136 OFFCURVE",
"103 359 CURVE SMOOTH",
"61 555 OFFCURVE",
"159 672 OFFCURVE",
"341 672 CURVE SMOOTH",
"421 672 OFFCURVE",
"489 653 OFFCURVE",
"545 617 CURVE",
"553 602 OFFCURVE",
"560 585 OFFCURVE",
"566 568 CURVE",
"601 570 LINE",
"592 669 LINE",
"543 686 OFFCURVE",
"473 714 OFFCURVE",
"367 714 CURVE SMOOTH",
"120 714 OFFCURVE",
"-27 575 OFFCURVE",
"24 334 CURVE SMOOTH",
"68 127 OFFCURVE",
"240 -14 OFFCURVE",
"460 -14 CURVE SMOOTH"
);
},
{
closed = 1;
nodes = (
"673 226 LINE",
"736 240 LINE",
"733 267 LINE",
"661 261 OFFCURVE",
"587 263 OFFCURVE",
"512 267 CURVE",
"515 242 LINE",
"613 226 LINE {name = \"🧨\";}"
);
}
);
width = 778;
},
{
layerId = "7121B8A5-DE38-4240-9956-93F0DA171E86";
paths = (
{
closed = 1;
nodes = (
"603 -14 OFFCURVE",
"668 20 OFFCURVE",
"719 37 CURVE",
"674 257 LINE {name = \"🧨\";}",
"614 257 LINE {name = \"🧨\";}",
"657 64 LINE",
"621 46 OFFCURVE",
"555 28 OFFCURVE",
"493 28 CURVE SMOOTH",
"348 28 OFFCURVE",
"158 136 OFFCURVE",
"110 359 CURVE SMOOTH",
"68 555 OFFCURVE",
"166 672 OFFCURVE",
"348 672 CURVE SMOOTH",
"428 672 OFFCURVE",
"508 643 OFFCURVE",
"563 609 CURVE",
"569 607 OFFCURVE",
"575 602 OFFCURVE",
"579 598 CURVE",
"588 600 LINE",
"598 669 LINE",
"550 686 OFFCURVE",
"480 714 OFFCURVE",
"374 714 CURVE SMOOTH",
"127 714 OFFCURVE",
"-20 575 OFFCURVE",
"31 334 CURVE SMOOTH",
"75 127 OFFCURVE",
"247 -14 OFFCURVE",
"467 -14 CURVE SMOOTH"
);
},
{
closed = 1;
nodes = (
"680 226 LINE",
"678 237 LINE",
"674 264 LINE",
"629 263 OFFCURVE",
"572 263 OFFCURVE",
"519 267 CURVE",
"522 242 LINE",
"620 226 LINE {name = \"🧨\";}"
);
}
);
width = 735;
}
);
leftMetricsKey = O;
unicode = 0047;
},
{
color = 5;
glyphname = H;
lastChange = "2021-11-15 17:36:43 +0000";
layers = (
{
components = (
{
name = I;
transform = "{1, 0, 0, 1, 2, 0}";
},
{
name = I;
transform = "{1, 0, 0, 1, 456, 0}";
}
);
layerId = "A2204D38-078E-49A4-B70C-87904FFF8E34";
paths = (
{
closed = 1;
nodes = (
"569 354 LINE",
"569 396 LINE",
"112 396 LINE",
"112 354 LINE"
);
}
);
width = 680;
},
{
backgroundImage = {
crop = "{{159.328, 274.553}, {16.277, 23.763}}";
imagePath = "img/05 Page 3.png";
locked = "1";
transform = "{42.083, 0, 0, 42.083, -6658, -11792}";
};
components = (
{
name = I;
},
{
name = I;
transform = "{1, 0, 0, 1, 474, 0}";
}
);
layerId = "3EDEE92B-4D9D-4D9A-9438-63C2E33416C1";
paths = (
{
closed = 1;
nodes = (
"617 354 LINE",
"617 396 LINE",
"160 396 LINE",
"160 354 LINE"
);
}
);
width = 768;
},
{
components = (
{
name = I;
transform = "{1, 0, 0, 1, -18, 0}";
},
{
name = I;
transform = "{1, 0, 0, 1, 436, 0}";
}
);
layerId = "12C15986-4B26-4DD1-ABCC-3DD937B37D00";
paths = (
{
closed = 1;
nodes = (
"579 354 LINE",
"579 396 LINE",
"122 396 LINE",
"122 354 LINE"
);
}
);
width = 698;
},
{
backgroundImage = {
crop = "{{159.328, 274.553}, {16.277, 23.763}}";
imagePath = "img/05 Page 3.png";
locked = "1";
transform = "{42.083, 0, 17.89004, 42.083, -11750, -11792}";
};
components = (
{
name = I;
transform = "{1, 0, 0, 1, 14, 0}";
},
{
name = I;
transform = "{1, 0, 0, 1, 488, 0}";
}
);
layerId = "1699526A-EFB7-4794-9793-F4E554F51E17";
paths = (
{
closed = 1;
nodes = (
"660 354 LINE",
"669 396 LINE",
"212 396 LINE",
"203 354 LINE"
);
}
);
width = 832;
},
{
backgroundImage = {
crop = "{{159.328, 274.553}, {16.277, 23.763}}";
imagePath = "img/05 Page 3.png";
locked = "1";
transform = "{42.083, 0, -17.89004, 42.083, -1552, -11792}";
};
components = (
{
name = I;
},
{
name = I;
transform = "{1, 0, 0, 1, 474, 0}";
}
);
layerId = "BC891ED8-9BFD-414F-9425-FE2804369777";
paths = (
{
closed = 1;
nodes = (
"588 354 LINE",
"579 396 LINE",
"122 396 LINE",
"131 354 LINE"
);
}
);
width = 793;
},
{
components = (
{
name = I;
transform = "{1, 0, 0, 1, 57, 0}";
},
{
name = I;
transform = "{1, 0, 0, 1, 511, 0}";
}
);
layerId = "7121B8A5-DE38-4240-9956-93F0DA171E86";
paths = (
{
closed = 1;
nodes = (
"595 354 LINE",
"586 396 LINE",
"129 396 LINE",
"138 354 LINE"
);
}
);
width = 732;
}
);
leftMetricsKey = N;
unicode = 0048;
},
{
color = 5;
glyphname = I;
lastChange = "2021-11-15 17:37:08 +0000";
layers = (
{
hints = (
{
origin = "{0, 0}";
scale = "{-1, 1}";
type = Corner;
name = _corner.CAP.leftSerif;
},
{
origin = "{0, 1}";
scale = "{-1, -1}";
type = Corner;
name = _corner.CAP.leftSerif;
},
{
origin = "{0, 2}";
scale = "{1, -1}";
type = Corner;
name = _corner.CAP.leftSerif;
},
{
origin = "{0, 3}";
type = Corner;
name = _corner.CAP.leftSerif;
}
);
layerId = "A2204D38-078E-49A4-B70C-87904FFF8E34";
paths = (
{
closed = 1;
nodes = (
"152 0 LINE",
"152 700 LINE",
"82 700 LINE",
"82 0 LINE"
);
}
);
width = 232;
},
{
backgroundImage = {
crop = "{{0, 0}, {305.16, 367}}";
imagePath = "img/05 Page 3.png";
locked = "1";
transform = "{42.083, 0, 0, 42.083, -7537, -11784}";
};
hints = (
{
origin = "{0, 0}";
scale = "{-1, 1}";
type = Corner;
name = _corner.CAP.leftSerif;
},
{
origin = "{0, 3}";
type = Corner;
name = _corner.CAP.leftSerif;
},
{
origin = "{0, 2}";
scale = "{1, -1}";
type = Corner;
name = _corner.CAP.leftSerif;
},
{
origin = "{0, 1}";
scale = "{-1, -1}";
type = Corner;
name = _corner.CAP.leftSerif;
}
);
layerId = "3EDEE92B-4D9D-4D9A-9438-63C2E33416C1";
paths = (
{
closed = 1;
nodes = (
"182 0 LINE",
"182 700 LINE",
"112 700 LINE",
"112 0 LINE"
);
}
);
width = 294;
},
{
hints = (
{
origin = "{0, 0}";
scale = "{-1, 1}";
type = Corner;
name = _corner.CAP.leftSerif;
},
{
origin = "{0, 1}";
scale = "{-1, -1}";
type = Corner;
name = _corner.CAP.leftSerif;
options = 1;
},
{
origin = "{0, 2}";
scale = "{1, -1}";
type = Corner;
name = _corner.CAP.leftSerif;
},
{
origin = "{0, 3}";
type = Corner;
name = _corner.CAP.leftSerif;
options = 1;
}
);
layerId = "12C15986-4B26-4DD1-ABCC-3DD937B37D00";
paths = (
{
closed = 1;
nodes = (
"86 0 LINE",
"234 700 LINE",
"164 700 LINE",
"16 0 LINE"
);
}
);
width = 212;
},
{
backgroundImage = {
crop = "{{0, 0}, {305.16, 367}}";
imagePath = "img/05 Page 3.png";
locked = "1";
transform = "{42.083, 0, 17.89004, 42.083, -12625, -11784}";
};
hints = (
{
origin = "{0, 0}";
scale = "{-1, 1}";
type = Corner;
name = _corner.CAP.leftSerif;
options = 1;
},
{
origin = "{0, 3}";
type = Corner;
name = _corner.CAP.leftSerif;
},
{
origin = "{0, 2}";
scale = "{1, -1}";
type = Corner;
name = _corner.CAP.leftSerif;
options = 1;
},
{
origin = "{0, 1}";
scale = "{-1, -1}";
type = Corner;
name = _corner.CAP.leftSerif;
}
);
layerId = "1699526A-EFB7-4794-9793-F4E554F51E17";
paths = (
{
closed = 1;
nodes = (
"150 0 LINE",
"298 700 LINE",
"228 700 LINE",
"80 0 LINE"
);
}
);
width = 308;
},
{
backgroundImage = {
crop = "{{0, 0}, {305.16, 367}}";
imagePath = "img/05 Page 3.png";
locked = "1";
transform = "{42.083, 0, -17.89004, 42.083, -2413, -11784}";
};
hints = (
{
origin = "{0, 0}";
scale = "{-1, 1}";
type = Corner;
name = _corner.CAP.leftSerif;
options = 1;
},
{
origin = "{0, 3}";
type = Corner;
name = _corner.CAP.leftSerif;
},
{
origin = "{0, 2}";
scale = "{1, -1}";
type = Corner;
name = _corner.CAP.leftSerif;
options = 1;
},
{
origin = "{0, 1}";
scale = "{-1, -1}";
type = Corner;
name = _corner.CAP.leftSerif;
}
);
layerId = "BC891ED8-9BFD-414F-9425-FE2804369777";
paths = (
{
closed = 1;
nodes = (
"250 0 LINE",
"102 700 LINE",
"32 700 LINE",
"180 0 LINE"
);
}
);
width = 346;
},
{
hints = (
{
origin = "{0, 0}";
scale = "{-1, 1}";
type = Corner;
name = _corner.CAP.leftSerif;
},
{
origin = "{0, 1}";
scale = "{-1, -1}";
type = Corner;
name = _corner.CAP.leftSerif;
options = 1;
},
{
origin = "{0, 2}";
scale = "{1, -1}";
type = Corner;
name = _corner.CAP.leftSerif;
},
{
origin = "{0, 3}";
type = Corner;
name = _corner.CAP.leftSerif;
options = 1;
}
);
layerId = "7121B8A5-DE38-4240-9956-93F0DA171E86";
paths = (
{
closed = 1;
nodes = (
"200 0 LINE",
"52 700 LINE",
"-18 700 LINE",
"130 0 LINE"
);
}
);
width = 234;
}
);
leftMetricsKey = L;
unicode = 0049;
},
{
color = 5;
glyphname = J;
lastChange = "2021-11-15 16:41:47 +0000";
layers = (
{
hints = (
{
origin = "{1, 1}";
scale = "{-1, -1}";
type = Corner;
name = _corner.CAP.leftSerif;
},
{
origin = "{1, 2}";
scale = "{1, -1}";
type = Corner;
name = _corner.CAP.leftSerif;
}
);
layerId = "A2204D38-078E-49A4-B70C-87904FFF8E34";
paths = (
{
closed = 1;
nodes = (
"90 48 LINE SMOOTH",
"90 -35 OFFCURVE",
"70 -106 OFFCURVE",
"22 -106 CURVE SMOOTH",
"6 -106 OFFCURVE",
"-6 -102 OFFCURVE",
"-16 -97 CURVE",
"-20 -99 LINE",
"-20 -153 LINE",
"-18 -154 LINE",
"109 -137 OFFCURVE",
"160 -47 OFFCURVE",
"160 51 CURVE SMOOTH",
"160 228 LINE",
"90 228 LINE"
);
},
{
closed = 1;
nodes = (
"160 60 LINE",
"160 700 LINE",
"90 700 LINE",
"90 60 LINE"
);
}
);
width = 240;
},
{
backgroundImage = {
crop = "{{0, 0}, {305.16, 367}}";
imagePath = "img/05 Page 3.png";
locked = "1";
transform = "{42.083, 0, 0, 42.083, -7948, -11790}";
};
hints = (
{
origin = "{1, 1}";
scale = "{-1, -1}";
type = Corner;
name = _corner.CAP.leftSerif;
},
{
origin = "{1, 2}";
scale = "{1, -1}";
type = Corner;
name = _corner.CAP.leftSerif;
}
);
layerId = "3EDEE92B-4D9D-4D9A-9438-63C2E33416C1";
paths = (
{
closed = 1;
nodes = (
"90 48 LINE SMOOTH",
"90 -35 OFFCURVE",
"70 -106 OFFCURVE",
"22 -106 CURVE SMOOTH",
"6 -106 OFFCURVE",
"-6 -102 OFFCURVE",
"-16 -97 CURVE",
"-20 -99 LINE",
"-20 -153 LINE",
"-18 -154 LINE",
"109 -137 OFFCURVE",
"160 -47 OFFCURVE",
"160 51 CURVE SMOOTH",
"160 228 LINE",
"90 228 LINE"
);
},
{
closed = 1;
nodes = (
"160 60 LINE",
"160 700 LINE",
"90 700 LINE",
"90 60 LINE"
);
}
);
width = 272;
},
{
hints = (
{
origin = "{1, 1}";
scale = "{-1, -1}";
type = Corner;
name = _corner.CAP.leftSerif;
options = 1;
},
{
origin = "{1, 2}";
scale = "{1, -1}";
type = Corner;
name = _corner.CAP.leftSerif;
}
);
layerId = "12C15986-4B26-4DD1-ABCC-3DD937B37D00";
paths = (
{
closed = 1;
nodes = (
"54 51 LINE SMOOTH",
"37 -32 OFFCURVE",
"-1 -106 OFFCURVE",
"-51 -106 CURVE SMOOTH",
"-65 -106 OFFCURVE",
"-76 -103 OFFCURVE",
"-85 -98 CURVE",
"-88 -99 LINE",
"-98 -153 LINE",
"-95 -154 LINE",
"35 -137 OFFCURVE",
"103 -50 OFFCURVE",
"124 48 CURVE SMOOTH",
"162 228 LINE",
"92 228 LINE"
);
},
{
closed = 1;
nodes = (
"126 60 LINE",
"262 700 LINE",
"192 700 LINE",
"56 60 LINE"
);
}
);
width = 240;
},
{
backgroundImage = {
crop = "{{0, 0}, {305.16, 367}}";
imagePath = "img/05 Page 3.png";
locked = "1";
transform = "{42.083, 0, 17.89004, 42.083, -13052.758, -11790}";
};
hints = (
{
origin = "{1, 1}";
scale = "{-1, -1}";
type = Corner;
name = _corner.CAP.leftSerif;
},
{
origin = "{1, 2}";
scale = "{1, -1}";
type = Corner;
name = _corner.CAP.leftSerif;
options = 1;
}
);
layerId = "1699526A-EFB7-4794-9793-F4E554F51E17";
paths = (
{
closed = 1;
nodes = (
"54 51 LINE SMOOTH",
"37 -32 OFFCURVE",
"-1 -106 OFFCURVE",
"-51 -106 CURVE SMOOTH",
"-65 -106 OFFCURVE",
"-76 -103 OFFCURVE",
"-85 -98 CURVE",
"-88 -99 LINE",
"-98 -153 LINE",
"-95 -154 LINE",
"35 -137 OFFCURVE",
"103 -50 OFFCURVE",
"124 48 CURVE SMOOTH",
"162 228 LINE",
"92 228 LINE"
);
},
{
closed = 1;
nodes = (
"126 60 LINE",
"262 700 LINE",
"192 700 LINE",
"56 60 LINE"
);
}
);
width = 272;
},
{
backgroundImage = {
crop = "{{0, 0}, {305.16, 367}}";
imagePath = "img/05 Page 3.png";
locked = "1";
transform = "{42.083, 0, -17.89004, 42.083, -2843.242, -11790}";
};
hints = (
{
origin = "{1, 1}";
scale = "{-1, -1}";
type = Corner;
name = _corner.CAP.leftSerif;
},
{
origin = "{1, 2}";
scale = "{1, -1}";
type = Corner;
name = _corner.CAP.leftSerif;
options = 1;
}
);
layerId = "BC891ED8-9BFD-414F-9425-FE2804369777";
paths = (
{
closed = 1;
nodes = (
"127 45 LINE SMOOTH",
"144 -38 OFFCURVE",
"141 -106 OFFCURVE",
"95 -106 CURVE SMOOTH",
"77 -106 OFFCURVE",
"64 -101 OFFCURVE",
"53 -96 CURVE",
"48 -99 LINE",
"58 -153 LINE",
"59 -154 LINE",
"182 -137 OFFCURVE",
"216 -44 OFFCURVE",
"195 54 CURVE SMOOTH",
"158 228 LINE",
"88 228 LINE"
);
},
{
closed = 1;
nodes = (
"194 60 LINE",
"58 700 LINE",
"-12 700 LINE",
"124 60 LINE"
);
}
);
width = 247;
},
{
hints = (
{
origin = "{1, 1}";
scale = "{-1, -1}";
type = Corner;
name = _corner.CAP.leftSerif;
options = 1;
},
{
origin = "{1, 2}";
scale = "{1, -1}";
type = Corner;
name = _corner.CAP.leftSerif;
}
);
layerId = "7121B8A5-DE38-4240-9956-93F0DA171E86";
paths = (
{
closed = 1;
nodes = (
"127 45 LINE SMOOTH",
"144 -38 OFFCURVE",
"141 -106 OFFCURVE",
"95 -106 CURVE SMOOTH",
"77 -106 OFFCURVE",
"64 -101 OFFCURVE",
"53 -96 CURVE",
"48 -99 LINE",
"58 -153 LINE",
"59 -154 LINE",
"182 -137 OFFCURVE",
"216 -44 OFFCURVE",
"195 54 CURVE SMOOTH",
"158 228 LINE",
"88 228 LINE"
);
},
{
closed = 1;
nodes = (
"194 60 LINE",
"58 700 LINE",
"-12 700 LINE",
"124 60 LINE"
);
}
);
width = 235;
}
);
unicode = 004A;
},
{
color = 5;
glyphname = K;
lastChange = "2021-11-15 17:36:43 +0000";
layers = (
{
background = {
hints = (
{
origin = "{1, 0}";
scale = "{-1, 1}";
type = Corner;
name = _corner.CAP.leftSerif;
},
{
origin = "{1, 1}";
scale = "{-1, -1}";
type = Corner;
name = _corner.CAP.leftSerif;
},
{
origin = "{1, 2}";
scale = "{1, -1}";
type = Corner;
name = _corner.CAP.leftSerif;
},
{
origin = "{1, 3}";
type = Corner;
name = _corner.CAP.leftSerif;
}
);
paths = (
{
closed = 1;
nodes = (
"612 0 LINE",
"612 30 LINE",
"585 30 OFFCURVE",
"544 42 OFFCURVE",
"522 63 CURVE",
"221 358 LINE",
"221 363 LINE",
"479 634 LINE",
"498 652 OFFCURVE",
"518 670 OFFCURVE",
"553 670 CURVE",
"553 700 LINE",
"475 700 LINE",
"167 365 LINE",
"145 365 LINE",
"145 323 LINE",
"168 323 LINE",
"498 0 LINE"
);
},
{
closed = 1;
nodes = (
"146 0 LINE",
"146 700 LINE",
"84 700 LINE",
"84 0 LINE"
);
}
);
};
components = (
{
name = I;
transform = "{1, 0, 0, 1, 2, 0}";
}
);
guideLines = (
{
angle = 135.5768;
position = "{372, 211}";
},
{
angle = 46.4077;
position = "{350, 499}";
}
);
layerId = "A2204D38-078E-49A4-B70C-87904FFF8E34";
paths = (
{
closed = 1;
nodes = (
"587 0 LINE",
"576 11 LINE",
"568 19 OFFCURVE",
"561 26 OFFCURVE",
"522 63 CURVE",
"221 358 LINE",
"221 363 LINE",
"479 634 LINE",
"499 656 OFFCURVE",
"511 668 OFFCURVE",
"522 680 CURVE",
"541 700 LINE",
"475 700 LINE",
"167 365 LINE",
"145 365 LINE",
"145 323 LINE",
"168 323 LINE",
"498 0 LINE"
);
}
);
width = 611;
},
{
backgroundImage = {
crop = "{{0, 0}, {305.16, 367}}";
imagePath = "img/05 Page 3.png";
locked = "1";
transform = "{42.083, 0, 0, 42.083, -8303, -11784}";
};
components = (
{
name = I;
}
);
layerId = "3EDEE92B-4D9D-4D9A-9438-63C2E33416C1";
paths = (
{
closed = 1;
nodes = (
"649 0 LINE",
"649 30 LINE",
"622 30 OFFCURVE",
"581 42 OFFCURVE",
"559 63 CURVE",
"258 358 LINE",
"258 363 LINE",
"516 634 LINE",
"535 652 OFFCURVE",
"555 670 OFFCURVE",
"590 670 CURVE",
"590 700 LINE",
"512 700 LINE",
"204 365 LINE",
"182 365 LINE",
"182 323 LINE",
"205 323 LINE",
"535 0 LINE"
);
}
);
width = 674;
},
{
background = {
hints = (
{
origin = "{1, 0}";
scale = "{-1, 1}";
type = Corner;
name = _corner.CAP.leftSerif;
},
{
origin = "{1, 1}";
scale = "{-1, -1}";
type = Corner;
name = _corner.CAP.leftSerif;
},
{
origin = "{1, 2}";
scale = "{1, -1}";
type = Corner;
name = _corner.CAP.leftSerif;
},
{
origin = "{1, 3}";
type = Corner;
name = _corner.CAP.leftSerif;
}
);
paths = (
{
closed = 1;
nodes = (
"600 0 LINE",
"600 30 LINE",
"573 30 OFFCURVE",
"532 42 OFFCURVE",
"510 63 CURVE",
"209 358 LINE",
"209 363 LINE",
"467 634 LINE",
"486 652 OFFCURVE",
"506 670 OFFCURVE",
"541 670 CURVE",
"541 700 LINE",
"463 700 LINE",
"155 365 LINE",
"133 365 LINE",
"133 323 LINE",
"156 323 LINE",
"486 0 LINE"
);
},
{
closed = 1;
nodes = (
"134 0 LINE",
"134 700 LINE",
"72 700 LINE",
"72 0 LINE"
);
}
);
};
components = (
{
name = I;
transform = "{1, 0, 0, 1, -18, 0}";
}
);
guideLines = (
{
angle = 135.5768;
position = "{452, 211}";
},
{
angle = 46.4077;
position = "{416, 499}";
}
);
layerId = "12C15986-4B26-4DD1-ABCC-3DD937B37D00";
paths = (
{
closed = 1;
nodes = (
"525 0 LINE",
"518 9 LINE",
"512 17 OFFCURVE",
"506 24 OFFCURVE",
"475 61 CURVE",
"238 358 LINE",
"241 363 LINE",
"557 632 LINE",
"581 654 OFFCURVE",
"596 666 OFFCURVE",
"609 678 CURVE",
"632 700 LINE",
"565 700 LINE",
"186 365 LINE",
"164 365 LINE",
"155 323 LINE",
"179 323 LINE",
"440 0 LINE"
);
}
);
width = 652;
},
{
backgroundImage = {
crop = "{{0, 0}, {305.16, 367}}";
imagePath = "img/05 Page 3.png";
locked = "1";
transform = "{42.083, 0, 17.89004, 42.083, -13391, -11784}";
};
components = (
{
name = I;
transform = "{1, 0, 0, 1, 14, 0}";
}
);
layerId = "1699526A-EFB7-4794-9793-F4E554F51E17";
paths = (
{
closed = 1;
nodes = (
"617 0 LINE",
"621 30 LINE",
"594 30 OFFCURVE",
"556 40 OFFCURVE",
"538 61 CURVE",
"301 358 LINE",
"304 363 LINE",
"620 632 LINE",
"642 650 OFFCURVE",
"667 670 OFFCURVE",
"702 670 CURVE",
"706 700 LINE",
"628 700 LINE",
"249 365 LINE",
"227 365 LINE",
"218 323 LINE",
"242 323 LINE",
"503 0 LINE"
);
}
);
width = 688;
},
{
backgroundImage = {
crop = "{{0, 0}, {305.16, 367}}";
imagePath = "img/05 Page 3.png";
locked = "1";
transform = "{42.083, 0, -17.89004, 42.083, -3202, -11784}";
};
components = (
{
name = I;
}
);
layerId = "BC891ED8-9BFD-414F-9425-FE2804369777";
paths = (
{
closed = 1;
nodes = (
"694 0 LINE",
"690 30 LINE",
"663 30 OFFCURVE",
"618 44 OFFCURVE",
"592 65 CURVE",
"228 358 LINE",
"226 363 LINE",
"424 636 LINE",
"440 654 OFFCURVE",
"456 670 OFFCURVE",
"491 670 CURVE",
"486 700 LINE",
"409 700 LINE",
"172 365 LINE",
"150 365 LINE",
"159 323 LINE",
"181 323 LINE",
"580 0 LINE"
);
}
);
width = 673;
},
{
background = {
hints = (
{
origin = "{1, 0}";
scale = "{-1, 1}";
type = Corner;
name = _corner.CAP.leftSerif;
},
{
origin = "{1, 1}";
scale = "{-1, -1}";
type = Corner;
name = _corner.CAP.leftSerif;
},
{
origin = "{1, 2}";
scale = "{1, -1}";
type = Corner;
name = _corner.CAP.leftSerif;
},
{
origin = "{1, 3}";
type = Corner;
name = _corner.CAP.leftSerif;
}
);
paths = (
{
closed = 1;
nodes = (
"667 0 LINE",
"667 30 LINE",
"640 30 OFFCURVE",
"599 42 OFFCURVE",
"577 63 CURVE",
"276 358 LINE",
"276 363 LINE",
"534 634 LINE",
"553 652 OFFCURVE",
"573 670 OFFCURVE",
"608 670 CURVE",
"608 700 LINE",
"530 700 LINE",
"222 365 LINE",
"200 365 LINE",
"200 323 LINE",
"223 323 LINE",
"553 0 LINE"
);
},
{
closed = 1;
nodes = (
"201 0 LINE",
"201 700 LINE",
"139 700 LINE",
"139 0 LINE"
);
}
);
};
components = (
{
name = I;
transform = "{1, 0, 0, 1, 57, 0}";
}
);
guideLines = (
{
angle = 135.5768;
position = "{428, 211}";
},
{
angle = 46.4077;
position = "{345, 499}";
}
);
layerId = "7121B8A5-DE38-4240-9956-93F0DA171E86";
paths = (
{
closed = 1;
nodes = (
"695 0 LINE",
"677 13 LINE",
"666 21 OFFCURVE",
"658 28 OFFCURVE",
"611 65 CURVE",
"247 358 LINE",
"245 363 LINE",
"443 636 LINE",
"459 658 OFFCURVE",
"472 671 OFFCURVE",
"480 683 CURVE",
"493 700 LINE",
"428 700 LINE",
"191 365 LINE",
"169 365 LINE",
"178 323 LINE",
"200 323 LINE",
"599 0 LINE"
);
}
);
width = 666;
}
);
leftMetricsKey = H;
unicode = 004B;
},
{
color = 5;
glyphname = L;
lastChange = "2021-11-15 17:36:43 +0000";
layers = (
{
hints = (
{
origin = "{2, 1}";
scale = "{-1.3, -1}";
type = Corner;
name = _corner.CAP.leftSerif;
},
{
origin = "{2, 2}";
scale = "{1, -1}";
type = Corner;
name = _corner.CAP.leftSerif;
},
{
origin = "{2, 3}";
type = Corner;
name = _corner.CAP.leftSerif;
}
);
layerId = "A2204D38-078E-49A4-B70C-87904FFF8E34";
paths = (
{
closed = 1;
nodes = (
"424 0 LINE {name = \"🧨\";}",
"424 44 LINE",
"117 44 LINE",
"117 0 LINE {name = \"🧨\";}"
);
},
{
closed = 1;
nodes = (
"442 0 LINE",
"442 44 LINE",
"408 44 LINE",
"403 44 LINE",
"382 44 OFFCURVE",
"354 44 OFFCURVE",
"326 44 CURVE {name = \"🧨\";}",
"403 0 LINE {name = \"🧨\";}"
);
},
{
closed = 1;
nodes = (
"152 0 LINE",
"152 700 LINE",
"82 700 LINE",
"82 0 LINE"
);
}
);
width = 487;
},
{
backgroundImage = {
crop = "{{0, 0}, {305.16, 367}}";
imagePath = "img/05 Page 3.png";
locked = "1";
transform = "{42.083, 0, 0, 42.083, -9067, -11786}";
};
hints = (
{
origin = "{2, 1}";
scale = "{-1.3, -1}";
type = Corner;
name = _corner.CAP.leftSerif;
},
{
origin = "{2, 2}";
scale = "{1, -1}";
type = Corner;
name = _corner.CAP.leftSerif;
},
{
origin = "{2, 3}";
type = Corner;
name = _corner.CAP.leftSerif;
}
);
layerId = "3EDEE92B-4D9D-4D9A-9438-63C2E33416C1";
paths = (
{
closed = 1;
nodes = (
"454 0 LINE {name = \"🧨\";}",
"454 42 LINE",
"147 42 LINE",
"147 0 LINE {name = \"🧨\";}"
);
},
{
closed = 1;
nodes = (
"472 0 LINE",
"497 111 LINE",
"473 121 LINE",
"468 118 LINE",
"450 53 OFFCURVE",
"434 42 OFFCURVE",
"356 42 CURVE {name = \"🧨\";}",
"433 0 LINE {name = \"🧨\";}"
);
},
{
closed = 1;
nodes = (
"182 0 LINE",
"182 700 LINE",
"112 700 LINE",
"112 0 LINE"
);
}
);
width = 514;
},
{
hints = (
{
origin = "{2, 1}";
scale = "{-1.3, -1}";
type = Corner;
name = _corner.CAP.leftSerif;
options = 1;
},
{
origin = "{2, 2}";
scale = "{1, -1}";
type = Corner;
name = _corner.CAP.leftSerif;
},
{
origin = "{2, 3}";
type = Corner;
name = _corner.CAP.leftSerif;
options = 1;
}
);
layerId = "12C15986-4B26-4DD1-ABCC-3DD937B37D00";
paths = (
{
closed = 1;
nodes = (
"358 0 LINE {name = \"🧨\";}",
"367 44 LINE",
"60 44 LINE",
"51 0 LINE {name = \"🧨\";}"
);
},
{
closed = 1;
nodes = (
"376 0 LINE",
"385 44 LINE",
"351 44 LINE",
"344 44 LINE",
"323 44 OFFCURVE",
"295 44 OFFCURVE",
"267 44 CURVE {name = \"🧨\";}",
"337 0 LINE {name = \"🧨\";}"
);
},
{
closed = 1;
nodes = (
"86 0 LINE",
"234 700 LINE",
"164 700 LINE",
"16 0 LINE"
);
}
);
width = 430;
},
{
backgroundImage = {
crop = "{{0, 0}, {305.16, 367}}";
imagePath = "img/05 Page 3.png";
locked = "1";
transform = "{42.083, 0, 17.89004, 42.083, -14156, -11786}";
};
hints = (
{
origin = "{2, 1}";
scale = "{-1.3, -1}";
type = Corner;
name = _corner.CAP.leftSerif;
},
{
origin = "{2, 2}";
scale = "{1, -1}";
type = Corner;
name = _corner.CAP.leftSerif;
options = 1;
},
{
origin = "{2, 3}";
type = Corner;
name = _corner.CAP.leftSerif;
}
);
layerId = "1699526A-EFB7-4794-9793-F4E554F51E17";
paths = (
{
closed = 1;
nodes = (
"422 0 LINE {name = \"🧨\";}",
"431 42 LINE",
"124 42 LINE",
"115 0 LINE {name = \"🧨\";}"
);
},
{
closed = 1;
nodes = (
"440 0 LINE",
"488 111 LINE",
"466 121 LINE",
"460 120 LINE",
"429 55 OFFCURVE",
"409 42 OFFCURVE",
"331 42 CURVE {name = \"🧨\";}",
"401 0 LINE {name = \"🧨\";}"
);
},
{
closed = 1;
nodes = (
"150 0 LINE",
"298 700 LINE",
"228 700 LINE",
"80 0 LINE"
);
}
);
width = 513;
},
{
backgroundImage = {
crop = "{{0, 0}, {305.16, 367}}";
imagePath = "img/05 Page 3.png";
locked = "1";
transform = "{42.083, 0, -17.89004, 42.083, -3942, -11786}";
};
hints = (
{
origin = "{2, 1}";
scale = "{-1.3, -1}";
type = Corner;
name = _corner.CAP.leftSerif;
},
{
origin = "{2, 2}";
scale = "{1, -1}";
type = Corner;
name = _corner.CAP.leftSerif;
options = 1;
},
{
origin = "{2, 3}";
type = Corner;
name = _corner.CAP.leftSerif;
}
);
layerId = "BC891ED8-9BFD-414F-9425-FE2804369777";
paths = (
{
closed = 1;
nodes = (
"522 0 LINE {name = \"🧨\";}",
"513 42 LINE",
"206 42 LINE",
"215 0 LINE {name = \"🧨\";}"
);
},
{
closed = 1;
nodes = (
"540 0 LINE",
"542 111 LINE",
"516 121 LINE",
"513 116 LINE",
"508 51 OFFCURVE",
"495 42 OFFCURVE",
"417 42 CURVE {name = \"🧨\";}",
"501 0 LINE {name = \"🧨\";}"
);
},
{
closed = 1;
nodes = (
"250 0 LINE",
"102 700 LINE",
"32 700 LINE",
"180 0 LINE"
);
}
);
width = 604;
},
{
hints = (
{
origin = "{2, 1}";
scale = "{-1.3, -1}";
type = Corner;
name = _corner.CAP.leftSerif;
options = 1;
},
{
origin = "{2, 2}";
scale = "{1, -1}";
type = Corner;
name = _corner.CAP.leftSerif;
},
{
origin = "{2, 3}";
type = Corner;
name = _corner.CAP.leftSerif;
options = 1;
}
);
layerId = "7121B8A5-DE38-4240-9956-93F0DA171E86";
paths = (
{
closed = 1;
nodes = (
"525 0 LINE {name = \"🧨\";}",
"516 44 LINE",
"209 44 LINE",
"218 0 LINE {name = \"🧨\";}"
);
},
{
closed = 1;
nodes = (
"543 0 LINE",
"534 44 LINE",
"500 44 LINE",
"497 44 LINE",
"476 44 OFFCURVE",
"448 44 OFFCURVE",
"420 44 CURVE {name = \"🧨\";}",
"504 0 LINE {name = \"🧨\";}"
);
},
{
closed = 1;
nodes = (
"253 0 LINE",
"105 700 LINE",
"35 700 LINE",
"183 0 LINE"
);
}
);
width = 542;
}
);
leftMetricsKey = N;
unicode = 004C;
},
{
color = 5;
glyphname = M;
lastChange = "2021-11-15 17:36:43 +0000";
layers = (
{
hints = (
{
origin = "{1, 0}";
scale = "{-1, 1}";
type = Corner;
name = _corner.CAP.leftSerif;
},
{
origin = "{1, 2}";
scale = "{1, -1}";
type = Corner;
name = _corner.CAP.leftSerif;
},
{
origin = "{1, 3}";
type = Corner;
name = _corner.CAP.leftSerif;
},
{
origin = "{2, 0}";
scale = "{-1, 1}";
type = Corner;
name = _corner.CAP.leftSerif;
},
{
origin = "{2, 1}";
scale = "{-0.8, -1}";
type = Corner;
name = _corner.CAP.leftSerif;
options = 1;
},
{
origin = "{2, 3}";
type = Corner;
name = _corner.CAP.leftSerif;
}
);
layerId = "A2204D38-078E-49A4-B70C-87904FFF8E34";
paths = (
{
closed = 1;
nodes = (
"455 121 LINE",
"169 700 LINE",
"112 700 LINE",
"112 582 LINE",
"152 582 LINE",
"442 -2 LINE",
"452 -2 LINE",
"766 582 LINE",
"792 582 LINE",
"792 700 LINE",
"777 700 LINE",
"466 121 LINE"
);
},
{
closed = 1;
nodes = (
"142 0 LINE",
"142 700 LINE",
"82 700 LINE",
"82 0 LINE"
);
},
{
closed = 1;
nodes = (
"840 0 LINE",
"840 700 LINE",
"778 700 LINE",
"778 0 LINE"
);
}
);
width = 914;
},
{
backgroundImage = {
crop = "{{0, 0}, {305.16, 367}}";
imagePath = "img/05 Page 3.png";
locked = "1";
transform = "{42.083, 0, 0, 42.083, -9645, -11785}";
};
hints = (
{
origin = "{1, 0}";
scale = "{-1, 1}";
type = Corner;
name = _corner.CAP.leftSerif;
},
{
origin = "{1, 2}";
scale = "{1, -1}";
type = Corner;
name = _corner.CAP.leftSerif;
},
{
origin = "{1, 3}";
type = Corner;
name = _corner.CAP.leftSerif;
},
{
origin = "{2, 0}";
scale = "{-1, 1}";
type = Corner;
name = _corner.CAP.leftSerif;
},
{
origin = "{2, 1}";
scale = "{-0.8, -1}";
type = Corner;
name = _corner.CAP.leftSerif;
},
{
origin = "{2, 3}";
type = Corner;
name = _corner.CAP.leftSerif;
}
);
layerId = "3EDEE92B-4D9D-4D9A-9438-63C2E33416C1";
paths = (
{
closed = 1;
nodes = (
"490 121 LINE",
"204 700 LINE",
"147 700 LINE",
"147 582 LINE",
"187 582 LINE",
"477 -2 LINE",
"494 -2 LINE",
"808 582 LINE",
"827 582 LINE",
"827 700 LINE",
"812 700 LINE",
"501 121 LINE"
);
},
{
closed = 1;
nodes = (
"172 0 LINE",
"172 700 LINE",
"112 700 LINE",
"112 0 LINE"
);
},
{
closed = 1;
nodes = (
"875 0 LINE",
"875 700 LINE",
"813 700 LINE",
"813 0 LINE"
);
}
);
width = 987;
},
{
hints = (
{
origin = "{1, 0}";
scale = "{-1, 1}";
type = Corner;
name = _corner.CAP.leftSerif;
},
{
origin = "{1, 2}";
scale = "{1, -1}";
type = Corner;
name = _corner.CAP.leftSerif;
},
{
origin = "{1, 3}";
type = Corner;
name = _corner.CAP.leftSerif;
options = 1;
},
{
origin = "{2, 0}";
scale = "{-1, 1}";
type = Corner;
name = _corner.CAP.leftSerif;
},
{
origin = "{2, 1}";
scale = "{-0.8, -1}";
type = Corner;
name = _corner.CAP.leftSerif;
options = 1;
},
{
origin = "{2, 3}";
type = Corner;
name = _corner.CAP.leftSerif;
options = 1;
}
);
layerId = "12C15986-4B26-4DD1-ABCC-3DD937B37D00";
paths = (
{
closed = 1;
nodes = (
"414 121 LINE",
"251 700 LINE",
"194 700 LINE",
"169 582 LINE",
"210 582 LINE",
"376 -2 LINE",
"386 -2 LINE",
"824 582 LINE",
"849 582 LINE",
"874 700 LINE",
"859 700 LINE",
"425 121 LINE"
);
},
{
closed = 1;
nodes = (
"76 0 LINE",
"224 700 LINE",
"164 700 LINE",
"16 0 LINE"
);
},
{
closed = 1;
nodes = (
"774 0 LINE",
"922 700 LINE",
"860 700 LINE",
"712 0 LINE"
);
}
);
width = 932;
},
{
backgroundImage = {
crop = "{{0, 0}, {305.16, 367}}";
imagePath = "img/05 Page 3.png";
locked = "1";
transform = "{42.083, 0, 17.89004, 42.083, -14734, -11785}";
};
hints = (
{
origin = "{1, 0}";
scale = "{-1, 1}";
type = Corner;
name = _corner.CAP.leftSerif;
options = 1;
},
{
origin = "{1, 2}";
scale = "{1, -1}";
type = Corner;
name = _corner.CAP.leftSerif;
options = 1;
},
{
origin = "{1, 3}";
type = Corner;
name = _corner.CAP.leftSerif;
},
{
origin = "{2, 0}";
scale = "{-1, 1}";
type = Corner;
name = _corner.CAP.leftSerif;
options = 1;
},
{
origin = "{2, 1}";
scale = "{-0.8, -1}";
type = Corner;
name = _corner.CAP.leftSerif;
},
{
origin = "{2, 3}";
type = Corner;
name = _corner.CAP.leftSerif;
}
);
layerId = "1699526A-EFB7-4794-9793-F4E554F51E17";
paths = (
{
closed = 1;
nodes = (
"483 121 LINE",
"320 700 LINE",
"263 700 LINE",
"238 582 LINE",
"279 582 LINE",
"445 -2 LINE",
"462 -2 LINE",
"900 582 LINE",
"918 582 LINE",
"943 700 LINE",
"928 700 LINE",
"494 121 LINE"
);
},
{
closed = 1;
nodes = (
"140 0 LINE",
"288 700 LINE",
"228 700 LINE",
"80 0 LINE"
);
},
{
closed = 1;
nodes = (
"843 0 LINE",
"991 700 LINE",
"929 700 LINE",
"781 0 LINE"
);
}
);
width = 1037;
},
{
backgroundImage = {
crop = "{{0, 0}, {305.16, 367}}";
imagePath = "img/05 Page 3.png";
locked = "1";
transform = "{42.083, 0, -17.89004, 42.083, -4520, -11785}";
};
hints = (
{
origin = "{1, 0}";
scale = "{-1, 1}";
type = Corner;
name = _corner.CAP.leftSerif;
options = 1;
},
{
origin = "{1, 2}";
scale = "{1, -1}";
type = Corner;
name = _corner.CAP.leftSerif;
options = 1;
},
{
origin = "{1, 3}";
type = Corner;
name = _corner.CAP.leftSerif;
},
{
origin = "{2, 0}";
scale = "{-1, 1}";
type = Corner;
name = _corner.CAP.leftSerif;
options = 1;
},
{
origin = "{2, 1}";
scale = "{-0.8, -1}";
type = Corner;
name = _corner.CAP.leftSerif;
},
{
origin = "{2, 3}";
type = Corner;
name = _corner.CAP.leftSerif;
}
);
layerId = "BC891ED8-9BFD-414F-9425-FE2804369777";
paths = (
{
closed = 1;
nodes = (
"533 121 LINE",
"124 700 LINE",
"67 700 LINE",
"92 582 LINE",
"131 582 LINE",
"545 -2 LINE",
"562 -2 LINE",
"752 582 LINE",
"772 582 LINE",
"747 700 LINE",
"732 700 LINE",
"544 121 LINE"
);
},
{
closed = 1;
nodes = (
"240 0 LINE",
"92 700 LINE",
"32 700 LINE",
"180 0 LINE"
);
},
{
closed = 1;
nodes = (
"943 0 LINE",
"795 700 LINE",
"733 700 LINE",
"881 0 LINE"
);
}
);
width = 1065;
},
{
hints = (
{
origin = "{1, 0}";
scale = "{-1, 1}";
type = Corner;
name = _corner.CAP.leftSerif;
},
{
origin = "{1, 2}";
scale = "{1, -1}";
type = Corner;
name = _corner.CAP.leftSerif;
},
{
origin = "{1, 3}";
type = Corner;
name = _corner.CAP.leftSerif;
options = 1;
},
{
origin = "{2, 0}";
scale = "{-1, 1}";
type = Corner;
name = _corner.CAP.leftSerif;
},
{
origin = "{2, 1}";
scale = "{-0.8, -1}";
type = Corner;
name = _corner.CAP.leftSerif;
options = 1;
},
{
origin = "{2, 3}";
type = Corner;
name = _corner.CAP.leftSerif;
options = 1;
}
);
layerId = "7121B8A5-DE38-4240-9956-93F0DA171E86";
paths = (
{
closed = 1;
nodes = (
"531 121 LINE",
"122 700 LINE",
"65 700 LINE",
"90 582 LINE",
"129 582 LINE",
"543 -2 LINE",
"553 -2 LINE",
"743 582 LINE",
"770 582 LINE",
"745 700 LINE",
"730 700 LINE",
"542 121 LINE"
);
},
{
closed = 1;
nodes = (
"243 0 LINE",
"95 700 LINE",
"35 700 LINE",
"183 0 LINE"
);
},
{
closed = 1;
nodes = (
"941 0 LINE",
"793 700 LINE",
"731 700 LINE",
"879 0 LINE"
);
}
);
width = 966;
}
);
leftMetricsKey = N;
unicode = 004D;
},
{
color = 5;
glyphname = N;
lastChange = "2021-11-15 16:32:06 +0000";
layers = (
{
backgroundImage = {
crop = "{{0, 0}, {49.726, 17.296}}";
imagePath = "palatino-source/alon.jpg";
locked = "1";
transform = "{58.48023, 0, 101.88594, 58.48023, -2925, -238}";
};
hints = (
{
origin = "{0, 8}";
scale = "{-1, -1}";
type = Corner;
name = _corner.CAP.leftSerif;
},
{
origin = "{0, 9}";
scale = "{1, -1}";
type = Corner;
name = _corner.CAP.leftSerif;
},
{
origin = "{1, 0}";
scale = "{-1, 1}";
type = Corner;
name = _corner.CAP.leftSerif;
},
{
origin = "{1, 2}";
scale = "{1, -1}";
type = Corner;
name = _corner.CAP.leftSerif;
},
{
origin = "{1, 3}";
type = Corner;
name = _corner.CAP.leftSerif;
}
);
layerId = "A2204D38-078E-49A4-B70C-87904FFF8E34";
paths = (
{
closed = 1;
nodes = (
"593 121 LINE",
"142 700 LINE",
"102 700 LINE",
"102 582 LINE",
"142 582 LINE",
"596 0 LINE",
"657 0 LINE",
"662 0 LINE",
"662 700 LINE",
"607 700 LINE",
"607 121 LINE"
);
},
{
closed = 1;
nodes = (
"137 0 LINE {name = \"🧨\";}",
"137 700 LINE",
"82 700 LINE {name = \"🧨\";}",
"82 0 LINE {name = \"🧨\";}"
);
}
);
width = 736;
},
{
backgroundImage = {
crop = "{{0, 0}, {305.16, 367}}";
imagePath = "img/05 Page 3.png";
locked = "1";
transform = "{42.083, 0, 0, 42.083, -1014, -8605}";
};
hints = (
{
origin = "{1, 0}";
scale = "{-1, 1}";
type = Corner;
name = _corner.CAP.leftSerif;
},
{
origin = "{1, 2}";
scale = "{1, -1}";
type = Corner;
name = _corner.CAP.leftSerif;
},
{
origin = "{1, 3}";
type = Corner;
name = _corner.CAP.leftSerif;
},
{
origin = "{0, 8}";
scale = "{-1, -1}";
type = Corner;
name = _corner.CAP.leftSerif;
},
{
origin = "{0, 9}";
scale = "{1, -1}";
type = Corner;
name = _corner.CAP.leftSerif;
}
);
layerId = "3EDEE92B-4D9D-4D9A-9438-63C2E33416C1";
paths = (
{
closed = 1;
nodes = (
"622 121 LINE",
"171 700 LINE",
"134 700 LINE",
"134 582 LINE",
"178 582 LINE",
"632 0 LINE",
"680 -10 LINE",
"696 -10 LINE",
"696 700 LINE",
"636 700 LINE",
"636 121 LINE"
);
},
{
closed = 1;
nodes = (
"172 0 LINE {name = \"🧨\";}",
"172 700 LINE",
"112 700 LINE {name = \"🧨\";}",
"112 0 LINE {name = \"🧨\";}"
);
}
);
width = 808;
},
{
backgroundImage = {
crop = "{{0, 0}, {49.726, 17.296}}";
imagePath = "palatino-source/alon.jpg";
locked = "1";
transform = "{58.48023, 0, 98.98757, 58.48023, -2830, -238}";
};
hints = (
{
origin = "{0, 8}";
scale = "{-1, -1}";
type = Corner;
name = _corner.CAP.leftSerif;
options = 1;
},
{
origin = "{0, 9}";
scale = "{1, -1}";
type = Corner;
name = _corner.CAP.leftSerif;
},
{
origin = "{1, 0}";
scale = "{-1, 1}";
type = Corner;
name = _corner.CAP.leftSerif;
},
{
origin = "{1, 2}";
scale = "{1, -1}";
type = Corner;
name = _corner.CAP.leftSerif;
},
{
origin = "{1, 3}";
type = Corner;
name = _corner.CAP.leftSerif;
options = 1;
}
);
layerId = "12C15986-4B26-4DD1-ABCC-3DD937B37D00";
paths = (
{
closed = 1;
nodes = (
"552 121 LINE",
"224 700 LINE",
"184 700 LINE",
"159 582 LINE",
"200 582 LINE",
"530 0 LINE",
"591 0 LINE",
"596 0 LINE",
"744 700 LINE",
"689 700 LINE",
"566 121 LINE"
);
},
{
closed = 1;
nodes = (
"71 0 LINE {name = \"🧨\";}",
"219 700 LINE",
"164 700 LINE {name = \"🧨\";}",
"16 0 LINE {name = \"🧨\";}"
);
}
);
width = 754;
},
{
backgroundImage = {
crop = "{{0, 0}, {305.16, 367}}";
imagePath = "img/05 Page 3.png";
locked = "1";
transform = "{42.083, 0, 17.89004, 42.083, -4751, -8605}";
};
hints = (
{
origin = "{1, 0}";
scale = "{-1, 1}";
type = Corner;
name = _corner.CAP.leftSerif;
options = 1;
},
{
origin = "{1, 2}";
scale = "{1, -1}";
type = Corner;
name = _corner.CAP.leftSerif;
options = 1;
},
{
origin = "{1, 3}";
type = Corner;
name = _corner.CAP.leftSerif;
},
{
origin = "{0, 8}";
scale = "{-1, -1}";
type = Corner;
name = _corner.CAP.leftSerif;
},
{
origin = "{0, 9}";
scale = "{1, -1}";
type = Corner;
name = _corner.CAP.leftSerif;
options = 1;
}
);
layerId = "1699526A-EFB7-4794-9793-F4E554F51E17";
paths = (
{
closed = 1;
nodes = (
"615 121 LINE",
"287 700 LINE",
"250 700 LINE",
"225 582 LINE",
"270 582 LINE",
"601 0 LINE",
"646 -10 LINE",
"662 -10 LINE",
"812 700 LINE",
"752 700 LINE",
"629 121 LINE"
);
},
{
closed = 1;
nodes = (
"140 0 LINE {name = \"🧨\";}",
"288 700 LINE",
"228 700 LINE {name = \"🧨\";}",
"80 0 LINE {name = \"🧨\";}"
);
}
);
width = 872;
},
{
backgroundImage = {
crop = "{{0, 0}, {305.16, 367}}";
imagePath = "img/05 Page 3.png";
locked = "1";
transform = "{42.083, 0, -17.89004, 42.083, 2759, -8605}";
};
hints = (
{
origin = "{1, 0}";
scale = "{-1, 1}";
type = Corner;
name = _corner.CAP.leftSerif;
options = 1;
},
{
origin = "{1, 2}";
scale = "{1, -1}";
type = Corner;
name = _corner.CAP.leftSerif;
options = 1;
},
{
origin = "{1, 3}";
type = Corner;
name = _corner.CAP.leftSerif;
},
{
origin = "{0, 8}";
scale = "{-1, -1}";
type = Corner;
name = _corner.CAP.leftSerif;
},
{
origin = "{0, 9}";
scale = "{1, -1}";
type = Corner;
name = _corner.CAP.leftSerif;
options = 1;
}
);
layerId = "BC891ED8-9BFD-414F-9425-FE2804369777";
paths = (
{
closed = 1;
nodes = (
"665 121 LINE",
"91 700 LINE",
"54 700 LINE",
"79 582 LINE",
"122 582 LINE",
"699 0 LINE",
"750 -10 LINE",
"766 -10 LINE",
"616 700 LINE",
"556 700 LINE",
"679 121 LINE"
);
},
{
closed = 1;
nodes = (
"240 0 LINE {name = \"🧨\";}",
"92 700 LINE",
"32 700 LINE {name = \"🧨\";}",
"180 0 LINE {name = \"🧨\";}"
);
}
);
width = 804;
},
{
backgroundImage = {
crop = "{{0, 0}, {49.726, 17.296}}";
imagePath = "palatino-source/alon.jpg";
locked = "1";
transform = "{58.48023, 0, 89.45558, 58.48023, -2773, -238}";
};
hints = (
{
origin = "{0, 8}";
scale = "{-1, -1}";
type = Corner;
name = _corner.CAP.leftSerif;
options = 1;
},
{
origin = "{0, 9}";
scale = "{1, -1}";
type = Corner;
name = _corner.CAP.leftSerif;
},
{
origin = "{1, 0}";
scale = "{-1, 1}";
type = Corner;
name = _corner.CAP.leftSerif;
},
{
origin = "{1, 2}";
scale = "{1, -1}";
type = Corner;
name = _corner.CAP.leftSerif;
},
{
origin = "{1, 3}";
type = Corner;
name = _corner.CAP.leftSerif;
options = 1;
}
);
layerId = "7121B8A5-DE38-4240-9956-93F0DA171E86";
paths = (
{
closed = 1;
nodes = (
"669 121 LINE",
"95 700 LINE",
"55 700 LINE",
"80 582 LINE",
"119 582 LINE",
"697 0 LINE",
"758 0 LINE",
"763 0 LINE",
"615 700 LINE",
"560 700 LINE",
"683 121 LINE"
);
},
{
closed = 1;
nodes = (
"238 0 LINE {name = \"🧨\";}",
"90 700 LINE",
"35 700 LINE {name = \"🧨\";}",
"183 0 LINE {name = \"🧨\";}"
);
}
);
width = 805;
}
);
unicode = 004E;
},
{
color = 5;
glyphname = O;
lastChange = "2021-11-15 16:38:41 +0000";
layers = (
{
background = {
paths = (
{
closed = 1;
nodes = (
"640 -13 OFFCURVE",
"789 173 OFFCURVE",
"789 380 CURVE SMOOTH",
"789 565 OFFCURVE",
"660 710 OFFCURVE",
"452 710 CURVE SMOOTH",
"233 710 OFFCURVE",
"45 549 OFFCURVE",
"45 335 CURVE SMOOTH",
"45 152 OFFCURVE",
"164 -13 OFFCURVE",
"367 -13 CURVE SMOOTH"
);
},
{
closed = 1;
nodes = (
"255 37 OFFCURVE",
"126 179 OFFCURVE",
"126 353 CURVE SMOOTH",
"126 525 OFFCURVE",
"255 667 OFFCURVE",
"416 667 CURVE SMOOTH",
"577 667 OFFCURVE",
"708 525 OFFCURVE",
"708 353 CURVE SMOOTH",
"708 179 OFFCURVE",
"577 37 OFFCURVE",
"416 37 CURVE SMOOTH"
);
}
);
};
backgroundImage = {
crop = "{{0, 0}, {49.726, 17.296}}";
imagePath = "palatino-source/alon.jpg";
locked = "1";
transform = "{60.937, 0, -9.65147, 60.937, -1252.084, -255}";
};
guideLines = (
{
position = "{-129, 710}";
}
);
layerId = "A2204D38-078E-49A4-B70C-87904FFF8E34";
paths = (
{
closed = 1;
nodes = (
"651 -14 OFFCURVE",
"803 180 OFFCURVE",
"803 380 CURVE SMOOTH",
"803 580 OFFCURVE",
"671 714 OFFCURVE",
"459 714 CURVE SMOOTH",
"258 714 OFFCURVE",
"56 604 OFFCURVE",
"56 335 CURVE SMOOTH",
"56 147 OFFCURVE",
"176 -14 OFFCURVE",
"415 -14 CURVE SMOOTH"
);
},
{
closed = 1;
nodes = (
"235 30 OFFCURVE",
"132 185 OFFCURVE",
"132 353 CURVE SMOOTH",
"132 556 OFFCURVE",
"261 671 OFFCURVE",
"423 671 CURVE SMOOTH",
"635 671 OFFCURVE",
"728 532 OFFCURVE",
"728 353 CURVE SMOOTH",
"728 145 OFFCURVE",
"603 30 OFFCURVE",
"423 30 CURVE SMOOTH"
);
}
);
width = 858;
},
{
backgroundImage = {
crop = "{{0, 0}, {305.16, 367}}";
imagePath = "img/05 Page 3.png";
locked = "1";
transform = "{41.25784, 0, 0, 41.25784, -1898, -8426}";
};
guideLines = (
{
position = "{-66, 710}";
}
);
layerId = "3EDEE92B-4D9D-4D9A-9438-63C2E33416C1";
paths = (
{
closed = 1;
nodes = (
"629 -14 OFFCURVE",
"781 180 OFFCURVE",
"781 380 CURVE SMOOTH",
"781 580 OFFCURVE",
"649 714 OFFCURVE",
"437 714 CURVE SMOOTH",
"236 714 OFFCURVE",
"34 604 OFFCURVE",
"34 335 CURVE SMOOTH",
"34 147 OFFCURVE",
"154 -14 OFFCURVE",
"393 -14 CURVE SMOOTH"
);
},
{
closed = 1;
nodes = (
"213 30 OFFCURVE",
"110 185 OFFCURVE",
"110 353 CURVE SMOOTH",
"110 556 OFFCURVE",
"239 671 OFFCURVE",
"401 671 CURVE SMOOTH",
"613 671 OFFCURVE",
"706 532 OFFCURVE",
"706 353 CURVE SMOOTH",
"706 145 OFFCURVE",
"581 30 OFFCURVE",
"401 30 CURVE SMOOTH"
);
}
);
width = 817;
},
{
background = {
paths = (
{
closed = 1;
nodes = (
"608 -13 OFFCURVE",
"757 173 OFFCURVE",
"757 380 CURVE SMOOTH",
"757 565 OFFCURVE",
"628 710 OFFCURVE",
"420 710 CURVE SMOOTH",
"201 710 OFFCURVE",
"13 549 OFFCURVE",
"13 335 CURVE SMOOTH",
"13 152 OFFCURVE",
"132 -13 OFFCURVE",
"335 -13 CURVE SMOOTH"
);
},
{
closed = 1;
nodes = (
"223 37 OFFCURVE",
"94 179 OFFCURVE",
"94 353 CURVE SMOOTH",
"94 525 OFFCURVE",
"223 667 OFFCURVE",
"384 667 CURVE SMOOTH",
"545 667 OFFCURVE",
"676 525 OFFCURVE",
"676 353 CURVE SMOOTH",
"676 179 OFFCURVE",
"545 37 OFFCURVE",
"384 37 CURVE SMOOTH"
);
}
);
};
backgroundImage = {
crop = "{{0, 0}, {49.726, 17.296}}";
imagePath = "palatino-source/alon.jpg";
locked = "1";
transform = "{60.937, 0, -12.6716, 60.937, -1169, -255}";
};
guideLines = (
{
position = "{-93, 710}";
}
);
layerId = "12C15986-4B26-4DD1-ABCC-3DD937B37D00";
paths = (
{
closed = 1;
nodes = (
"572 -14 OFFCURVE",
"762 177 OFFCURVE",
"804 375 CURVE SMOOTH",
"847 577 OFFCURVE",
"742 714 OFFCURVE",
"528 714 CURVE SMOOTH",
"329 714 OFFCURVE",
"107 607 OFFCURVE",
"50 340 CURVE SMOOTH",
"9 150 OFFCURVE",
"97 -14 OFFCURVE",
"338 -14 CURVE SMOOTH"
);
},
{
closed = 1;
nodes = (
"161 30 OFFCURVE",
"92 182 OFFCURVE",
"128 348 CURVE SMOOTH",
"171 553 OFFCURVE",
"327 671 OFFCURVE",
"491 671 CURVE SMOOTH",
"701 671 OFFCURVE",
"763 535 OFFCURVE",
"726 358 CURVE SMOOTH",
"681 148 OFFCURVE",
"529 30 OFFCURVE",
"347 30 CURVE SMOOTH"
);
}
);
width = 823;
},
{
backgroundImage = {
crop = "{{0, 0}, {305.16, 367}}";
imagePath = "img/05 Page 3.png";
locked = "1";
transform = "{41.25784, 0, 17.53925, 41.25784, -5611, -8426}";
};
guideLines = (
{
position = "{105, 710}";
}
);
layerId = "1699526A-EFB7-4794-9793-F4E554F51E17";
paths = (
{
closed = 1;
nodes = (
"544 -14 OFFCURVE",
"734 177 OFFCURVE",
"776 375 CURVE SMOOTH",
"819 577 OFFCURVE",
"714 714 OFFCURVE",
"500 714 CURVE SMOOTH",
"301 714 OFFCURVE",
"79 607 OFFCURVE",
"22 340 CURVE SMOOTH",
"-19 150 OFFCURVE",
"69 -14 OFFCURVE",
"310 -14 CURVE SMOOTH"
);
},
{
closed = 1;
nodes = (
"133 30 OFFCURVE",
"64 182 OFFCURVE",
"100 348 CURVE SMOOTH",
"143 553 OFFCURVE",
"299 671 OFFCURVE",
"463 671 CURVE SMOOTH",
"673 671 OFFCURVE",
"735 535 OFFCURVE",
"698 358 CURVE SMOOTH",
"653 148 OFFCURVE",
"501 30 OFFCURVE",
"319 30 CURVE SMOOTH"
);
}
);
width = 809;
},
{
backgroundImage = {
crop = "{{0, 0}, {305.16, 367}}";
imagePath = "img/05 Page 3.png";
locked = "1";
transform = "{41.25784, 0, -17.53925, 41.25784, 1792, -8426}";
};
guideLines = (
{
position = "{-260, 710}";
}
);
layerId = "BC891ED8-9BFD-414F-9425-FE2804369777";
paths = (
{
closed = 1;
nodes = (
"691 -14 OFFCURVE",
"804 183 OFFCURVE",
"760 385 CURVE SMOOTH",
"719 583 OFFCURVE",
"561 714 OFFCURVE",
"351 714 CURVE SMOOTH",
"148 714 OFFCURVE",
"-33 601 OFFCURVE",
"25 330 CURVE SMOOTH",
"65 144 OFFCURVE",
"216 -14 OFFCURVE",
"453 -14 CURVE SMOOTH"
);
},
{
closed = 1;
nodes = (
"270 30 OFFCURVE",
"131 188 OFFCURVE",
"95 358 CURVE SMOOTH",
"53 559 OFFCURVE",
"156 671 OFFCURVE",
"316 671 CURVE SMOOTH",
"530 671 OFFCURVE",
"655 529 OFFCURVE",
"693 348 CURVE SMOOTH",
"737 142 OFFCURVE",
"638 30 OFFCURVE",
"460 30 CURVE SMOOTH"
);
}
);
width = 817;
},
{
background = {
paths = (
{
closed = 1;
nodes = (
"640 -13 OFFCURVE",
"789 173 OFFCURVE",
"789 380 CURVE SMOOTH",
"789 565 OFFCURVE",
"660 710 OFFCURVE",
"452 710 CURVE SMOOTH",
"233 710 OFFCURVE",
"45 549 OFFCURVE",
"45 335 CURVE SMOOTH",
"45 152 OFFCURVE",
"164 -13 OFFCURVE",
"367 -13 CURVE SMOOTH"
);
},
{
closed = 1;
nodes = (
"255 37 OFFCURVE",
"126 179 OFFCURVE",
"126 353 CURVE SMOOTH",
"126 525 OFFCURVE",
"255 667 OFFCURVE",
"416 667 CURVE SMOOTH",
"577 667 OFFCURVE",
"708 525 OFFCURVE",
"708 353 CURVE SMOOTH",
"708 179 OFFCURVE",
"577 37 OFFCURVE",
"416 37 CURVE SMOOTH"
);
}
);
};
backgroundImage = {
crop = "{{0, 0}, {49.726, 17.296}}";
imagePath = "palatino-source/alon.jpg";
locked = "1";
transform = "{60.937, 0, -22.60403, 60.937, -1151.545, -255}";
};
guideLines = (
{
position = "{-234, 710}";
}
);
layerId = "7121B8A5-DE38-4240-9956-93F0DA171E86";
paths = (
{
closed = 1;
nodes = (
"698 -14 OFFCURVE",
"811 183 OFFCURVE",
"767 385 CURVE SMOOTH",
"726 583 OFFCURVE",
"568 714 OFFCURVE",
"358 714 CURVE SMOOTH",
"155 714 OFFCURVE",
"-26 601 OFFCURVE",
"32 330 CURVE SMOOTH",
"72 144 OFFCURVE",
"223 -14 OFFCURVE",
"460 -14 CURVE SMOOTH"
);
},
{
closed = 1;
nodes = (
"277 30 OFFCURVE",
"138 188 OFFCURVE",
"102 358 CURVE SMOOTH",
"60 559 OFFCURVE",
"163 671 OFFCURVE",
"323 671 CURVE SMOOTH",
"537 671 OFFCURVE",
"662 529 OFFCURVE",
"700 348 CURVE SMOOTH",
"744 142 OFFCURVE",
"645 30 OFFCURVE",
"467 30 CURVE SMOOTH"
);
}
);
width = 858;
}
);
unicode = 004F;
},
{
color = 5;
glyphname = P;
lastChange = "2021-11-15 17:36:34 +0000";
layers = (
{
hints = (
{
origin = "{1, 0}";
scale = "{-1, 1}";
type = Corner;
name = _corner.CAP.leftSerif;
},
{
origin = "{1, 2}";
scale = "{1, -1}";
type = Corner;
name = _corner.CAP.leftSerif;
},
{
origin = "{1, 3}";
type = Corner;
name = _corner.CAP.leftSerif;
}
);
layerId = "A2204D38-078E-49A4-B70C-87904FFF8E34";
paths = (
{
closed = 1;
nodes = (
"243 324 LINE SMOOTH",
"366 324 OFFCURVE",
"495 387 OFFCURVE",
"495 527 CURVE SMOOTH",
"495 655 OFFCURVE",
"410 700 OFFCURVE",
"297 700 CURVE SMOOTH",
"122 700 LINE {name = \"🧨\";}",
"122 658 LINE",
"265 658 LINE SMOOTH",
"370 658 OFFCURVE",
"415 612 OFFCURVE",
"415 527 CURVE SMOOTH",
"415 420 OFFCURVE",
"379 362 OFFCURVE",
"234 362 CURVE SMOOTH",
"123 362 LINE",
"123 324 LINE"
);
},
{
closed = 1;
nodes = (
"144 0 LINE",
"144 700 LINE",
"82 700 LINE",
"82 0 LINE"
);
}
);
width = 555;
},
{
backgroundImage = {
crop = "{{0, 0}, {305.16, 367}}";
imagePath = "img/05 Page 3.png";
locked = "1";
transform = "{42.083, 0, 0, 42.083, -2881, -8605}";
};
hints = (
{
origin = "{1, 0}";
scale = "{-1, 1}";
type = Corner;
name = _corner.CAP.leftSerif;
},
{
origin = "{1, 2}";
scale = "{1, -1}";
type = Corner;
name = _corner.CAP.leftSerif;
},
{
origin = "{1, 3}";
type = Corner;
name = _corner.CAP.leftSerif;
}
);
layerId = "3EDEE92B-4D9D-4D9A-9438-63C2E33416C1";
paths = (
{
closed = 1;
nodes = (
"273 324 LINE SMOOTH",
"396 324 OFFCURVE",
"525 387 OFFCURVE",
"525 527 CURVE SMOOTH",
"525 655 OFFCURVE",
"440 700 OFFCURVE",
"327 700 CURVE SMOOTH",
"152 700 LINE {name = \"🧨\";}",
"152 658 LINE",
"295 658 LINE SMOOTH",
"400 658 OFFCURVE",
"445 612 OFFCURVE",
"445 527 CURVE SMOOTH",
"445 420 OFFCURVE",
"409 362 OFFCURVE",
"264 362 CURVE SMOOTH",
"153 362 LINE",
"153 324 LINE"
);
},
{
closed = 1;
nodes = (
"174 0 LINE",
"174 700 LINE",
"112 700 LINE",
"112 0 LINE"
);
}
);
width = 555;
},
{
hints = (
{
origin = "{1, 0}";
scale = "{-1, 1}";
type = Corner;
name = _corner.CAP.leftSerif;
},
{
origin = "{1, 2}";
scale = "{1, -1}";
type = Corner;
name = _corner.CAP.leftSerif;
},
{
origin = "{1, 3}";
type = Corner;
name = _corner.CAP.leftSerif;
options = 1;
}
);
layerId = "12C15986-4B26-4DD1-ABCC-3DD937B37D00";
paths = (
{
closed = 1;
nodes = (
"248 324 LINE SMOOTH",
"371 324 OFFCURVE",
"510 384 OFFCURVE",
"540 522 CURVE SMOOTH",
"567 652 OFFCURVE",
"490 700 OFFCURVE",
"377 700 CURVE SMOOTH",
"204 700 LINE {name = \"🧨\";}",
"196 658 LINE",
"341 658 LINE SMOOTH",
"446 658 OFFCURVE",
"479 615 OFFCURVE",
"462 532 CURVE SMOOTH",
"438 423 OFFCURVE",
"388 362 OFFCURVE",
"243 362 CURVE SMOOTH",
"134 362 LINE",
"126 324 LINE"
);
},
{
closed = 1;
nodes = (
"78 0 LINE",
"226 700 LINE",
"164 700 LINE",
"16 0 LINE"
);
}
);
width = 550;
},
{
backgroundImage = {
crop = "{{0, 0}, {305.16, 367}}";
imagePath = "img/05 Page 3.png";
locked = "1";
transform = "{42.083, 0, 17.89004, 42.083, -6618, -8605}";
};
hints = (
{
origin = "{1, 0}";
scale = "{-1, 1}";
type = Corner;
name = _corner.CAP.leftSerif;
options = 1;
},
{
origin = "{1, 2}";
scale = "{1, -1}";
type = Corner;
name = _corner.CAP.leftSerif;
options = 1;
},
{
origin = "{1, 3}";
type = Corner;
name = _corner.CAP.leftSerif;
}
);
layerId = "1699526A-EFB7-4794-9793-F4E554F51E17";
paths = (
{
closed = 1;
nodes = (
"312 324 LINE SMOOTH",
"435 324 OFFCURVE",
"574 384 OFFCURVE",
"604 522 CURVE SMOOTH",
"631 652 OFFCURVE",
"554 700 OFFCURVE",
"441 700 CURVE SMOOTH",
"268 700 LINE {name = \"🧨\";}",
"260 658 LINE",
"405 658 LINE SMOOTH",
"510 658 OFFCURVE",
"543 615 OFFCURVE",
"526 532 CURVE SMOOTH",
"502 423 OFFCURVE",
"452 362 OFFCURVE",
"307 362 CURVE SMOOTH",
"198 362 LINE",
"190 324 LINE"
);
},
{
closed = 1;
nodes = (
"142 0 LINE",
"290 700 LINE",
"228 700 LINE",
"80 0 LINE"
);
}
);
width = 619;
},
{
backgroundImage = {
crop = "{{0, 0}, {305.16, 367}}";
imagePath = "img/05 Page 3.png";
locked = "1";
transform = "{42.083, 0, -17.89004, 42.083, 914, -8605}";
};
hints = (
{
origin = "{1, 0}";
scale = "{-1, 1}";
type = Corner;
name = _corner.CAP.leftSerif;
options = 1;
},
{
origin = "{1, 2}";
scale = "{1, -1}";
type = Corner;
name = _corner.CAP.leftSerif;
options = 1;
},
{
origin = "{1, 3}";
type = Corner;
name = _corner.CAP.leftSerif;
}
);
layerId = "BC891ED8-9BFD-414F-9425-FE2804369777";
paths = (
{
closed = 1;
nodes = (
"292 324 LINE SMOOTH",
"415 324 OFFCURVE",
"533 390 OFFCURVE",
"502 532 CURVE SMOOTH",
"476 658 OFFCURVE",
"384 700 OFFCURVE",
"271 700 CURVE SMOOTH",
"94 700 LINE {name = \"🧨\";}",
"102 658 LINE",
"243 658 LINE SMOOTH",
"348 658 OFFCURVE",
"406 609 OFFCURVE",
"424 522 CURVE SMOOTH",
"447 417 OFFCURVE",
"424 362 OFFCURVE",
"279 362 CURVE SMOOTH",
"166 362 LINE",
"174 324 LINE"
);
},
{
closed = 1;
nodes = (
"264 0 LINE",
"116 700 LINE",
"54 700 LINE",
"202 0 LINE"
);
}
);
width = 551;
},
{
hints = (
{
origin = "{1, 0}";
scale = "{-1, 1}";
type = Corner;
name = _corner.CAP.leftSerif;
},
{
origin = "{1, 2}";
scale = "{1, -1}";
type = Corner;
name = _corner.CAP.leftSerif;
},
{
origin = "{1, 3}";
type = Corner;
name = _corner.CAP.leftSerif;
options = 1;
}
);
layerId = "7121B8A5-DE38-4240-9956-93F0DA171E86";
paths = (
{
closed = 1;
nodes = (
"220 324 LINE SMOOTH",
"343 324 OFFCURVE",
"461 390 OFFCURVE",
"430 532 CURVE SMOOTH",
"404 658 OFFCURVE",
"312 700 OFFCURVE",
"199 700 CURVE SMOOTH",
"22 700 LINE {name = \"🧨\";}",
"30 658 LINE",
"171 658 LINE SMOOTH",
"276 658 OFFCURVE",
"334 609 OFFCURVE",
"352 522 CURVE SMOOTH",
"375 417 OFFCURVE",
"352 362 OFFCURVE",
"207 362 CURVE SMOOTH",
"94 362 LINE",
"102 324 LINE"
);
},
{
closed = 1;
nodes = (
"192 0 LINE",
"44 700 LINE",
"-18 700 LINE",
"130 0 LINE"
);
}
);
width = 497;
}
);
leftMetricsKey = B;
unicode = 0050;
},
{
color = 5;
glyphname = Q;
lastChange = "2021-11-15 16:45:32 +0000";
layers = (
{
background = {
components = (
{
name = O;
}
);
paths = (
{
closed = 1;
nodes = (
"783 5 OFFCURVE",
"808 -2 OFFCURVE",
"834 -8 CURVE",
"847 42 LINE",
"824 48 OFFCURVE",
"799 55 OFFCURVE",
"777 61 CURVE SMOOTH",
"710 78 OFFCURVE",
"664 91 OFFCURVE",
"597 108 CURVE SMOOTH",
"566 118 OFFCURVE",
"535 125 OFFCURVE",
"502 134 CURVE",
"439 151 LINE",
"416 157 OFFCURVE",
"390 164 OFFCURVE",
"366 170 CURVE",
"353 120 LINE",
"385 112 OFFCURVE",
"419 103 OFFCURVE",
"451 94 CURVE SMOOTH",
"560 66 OFFCURVE",
"648 41 OFFCURVE",
"756 11 CURVE SMOOTH"
);
}
);
};
backgroundImage = {
crop = "{{0, 0}, {294, 68.104}}";
imagePath = "palatino-source/alphabet.jpg";
transform = "{72.664, 0, 0, 72.664, -18467, -5984}";
};
components = (
{
name = O;
}
);
layerId = "A2204D38-078E-49A4-B70C-87904FFF8E34";
paths = (
{
closed = 1;
nodes = (
"612 -14 OFFCURVE",
"718 -15 OFFCURVE",
"733 -14 CURVE",
"733 30 LINE",
"704 30 OFFCURVE",
"670 30 OFFCURVE",
"644 30 CURVE SMOOTH",
"564 30 OFFCURVE",
"584 30 OFFCURVE",
"479 30 CURVE SMOOTH",
"475 30 OFFCURVE",
"415 30 OFFCURVE",
"361 30 CURVE",
"361 -4 LINE",
"385 -14 OFFCURVE",
"451 -14 OFFCURVE",
"493 -14 CURVE SMOOTH",
"558 -14 OFFCURVE",
"511 -14 OFFCURVE",
"578 -14 CURVE SMOOTH"
);
}
);
width = 858;
},
{
background = {
paths = (
{
closed = 1;
nodes = (
"706 -170 OFFCURVE",
"747 -145 OFFCURVE",
"764 -135 CURVE",
"764 -118 LINE",
"749 -123 OFFCURVE",
"743 -127 OFFCURVE",
"718 -127 CURVE SMOOTH",
"688 -127 OFFCURVE",
"506 -43 OFFCURVE",
"424 -24 CURVE",
"422 -16 OFFCURVE",
"420 -8 OFFCURVE",
"417 0 CURVE",
"376 0 LINE",
"376 -10 OFFCURVE",
"374 -17 OFFCURVE",
"370 -24 CURVE",
"322 -38 OFFCURVE",
"275 -85 OFFCURVE",
"261 -97 CURVE",
"270 -109 LINE",
"288 -94 OFFCURVE",
"321 -76 OFFCURVE",
"352 -76 CURVE SMOOTH",
"389 -76 OFFCURVE",
"646 -170 OFFCURVE",
"676 -170 CURVE SMOOTH"
);
},
{
closed = 1;
nodes = (
"706 291 OFFCURVE",
"754 319 OFFCURVE",
"770 327 CURVE",
"764 352 LINE",
"743 347 OFFCURVE",
"737 344 OFFCURVE",
"711 344 CURVE SMOOTH",
"675 344 OFFCURVE",
"614 372 OFFCURVE",
"548 395 CURVE SMOOTH",
"477 420 OFFCURVE",
"421 435 OFFCURVE",
"421 468 CURVE",
"376 470 LINE",
"376 423 OFFCURVE",
"324 420 OFFCURVE",
"261 373 CURVE",
"279 352 LINE",
"297 367 OFFCURVE",
"331 384 OFFCURVE",
"373 384 CURVE SMOOTH",
"438 384 OFFCURVE",
"616 291 OFFCURVE",
"676 291 CURVE SMOOTH"
);
},
{
closed = 1;
nodes = (
"723 176 OFFCURVE",
"749 176 OFFCURVE",
"776 176 CURVE",
"776 223 LINE",
"752 223 OFFCURVE",
"727 223 OFFCURVE",
"703 223 CURVE SMOOTH",
"634 223 OFFCURVE",
"565 223 OFFCURVE",
"497 223 CURVE SMOOTH",
"464 223 OFFCURVE",
"432 223 OFFCURVE",
"399 223 CURVE",
"377 223 OFFCURVE",
"356 223 OFFCURVE",
"334 223 CURVE",
"309 223 OFFCURVE",
"283 223 OFFCURVE",
"258 223 CURVE",
"258 176 LINE",
"292 176 OFFCURVE",
"326 176 OFFCURVE",
"360 176 CURVE SMOOTH",
"472 176 OFFCURVE",
"584 176 OFFCURVE",
"696 176 CURVE SMOOTH"
);
},
{
closed = 1;
nodes = (
"699 -406 OFFCURVE",
"747 -378 OFFCURVE",
"763 -370 CURVE",
"757 -345 LINE",
"736 -350 OFFCURVE",
"730 -353 OFFCURVE",
"704 -353 CURVE SMOOTH",
"668 -353 OFFCURVE",
"607 -325 OFFCURVE",
"541 -302 CURVE SMOOTH",
"470 -277 OFFCURVE",
"414 -262 OFFCURVE",
"414 -229 CURVE",
"369 -227 LINE",
"369 -274 OFFCURVE",
"317 -277 OFFCURVE",
"254 -324 CURVE",
"272 -345 LINE",
"290 -330 OFFCURVE",
"324 -313 OFFCURVE",
"366 -313 CURVE SMOOTH",
"431 -313 OFFCURVE",
"609 -406 OFFCURVE",
"669 -406 CURVE SMOOTH"
);
}
);
};
backgroundImage = {
crop = "{{0, 0}, {305.16, 367}}";
imagePath = "img/05 Page 3.png";
locked = "1";
transform = "{42.083, 0, 0, 42.083, -3549, -8605}";
};
components = (
{
name = O;
}
);
layerId = "3EDEE92B-4D9D-4D9A-9438-63C2E33416C1";
paths = (
{
closed = 1;
nodes = (
"722 -139 OFFCURVE",
"756 -121 OFFCURVE",
"770 -111 CURVE",
"759 -75 LINE",
"735 -83 OFFCURVE",
"720 -86 OFFCURVE",
"701 -86 CURVE SMOOTH",
"614 -86 OFFCURVE",
"504 -2 OFFCURVE",
"399 -2 CURVE SMOOTH",
"355 -2 OFFCURVE",
"308 -16 OFFCURVE",
"262 -57 CURVE",
"279 -78 LINE",
"298 -63 OFFCURVE",
"331 -46 OFFCURVE",
"373 -46 CURVE SMOOTH",
"441 -46 OFFCURVE",
"620 -139 OFFCURVE",
"687 -139 CURVE SMOOTH"
);
}
);
width = 817;
},
{
background = {
paths = (
{
closed = 1;
nodes = (
"475 -14 OFFCURVE",
"580 -15 OFFCURVE",
"596 -14 CURVE",
"601 30 LINE",
"572 30 OFFCURVE",
"538 30 OFFCURVE",
"510 30 CURVE SMOOTH",
"432 30 OFFCURVE",
"452 30 OFFCURVE",
"345 30 CURVE SMOOTH",
"343 30 OFFCURVE",
"283 30 OFFCURVE",
"229 30 CURVE",
"226 -3 LINE",
"248 -13 OFFCURVE",
"314 -14 OFFCURVE",
"358 -14 CURVE SMOOTH",
"421 -14 OFFCURVE",
"374 -14 OFFCURVE",
"443 -14 CURVE SMOOTH"
);
}
);
};
backgroundImage = {
crop = "{{0, 0}, {294, 68.104}}";
imagePath = "palatino-source/alphabet.jpg";
transform = "{72.664, 0, 11.84387, 72.664, -19382.276, -5984}";
};
components = (
{
name = O;
}
);
layerId = "12C15986-4B26-4DD1-ABCC-3DD937B37D00";
paths = (
{
closed = 1;
nodes = (
"505 -14 OFFCURVE",
"610 -15 OFFCURVE",
"626 -14 CURVE",
"631 30 LINE",
"602 30 OFFCURVE",
"568 30 OFFCURVE",
"540 30 CURVE SMOOTH",
"462 30 OFFCURVE",
"482 30 OFFCURVE",
"375 30 CURVE SMOOTH",
"373 30 OFFCURVE",
"313 30 OFFCURVE",
"259 30 CURVE",
"256 -3 LINE",
"278 -13 OFFCURVE",
"344 -14 OFFCURVE",
"388 -14 CURVE SMOOTH",
"451 -14 OFFCURVE",
"404 -14 OFFCURVE",
"473 -14 CURVE SMOOTH"
);
}
);
width = 823;
},
{
background = {
paths = (
{
closed = 1;
nodes = (
"706 -170 OFFCURVE",
"747 -145 OFFCURVE",
"764 -135 CURVE",
"764 -118 LINE",
"749 -123 OFFCURVE",
"743 -127 OFFCURVE",
"718 -127 CURVE SMOOTH",
"688 -127 OFFCURVE",
"506 -43 OFFCURVE",
"424 -24 CURVE",
"422 -16 OFFCURVE",
"420 -8 OFFCURVE",
"417 0 CURVE",
"376 0 LINE",
"376 -10 OFFCURVE",
"374 -17 OFFCURVE",
"370 -24 CURVE",
"322 -38 OFFCURVE",
"275 -85 OFFCURVE",
"261 -97 CURVE",
"270 -109 LINE",
"288 -94 OFFCURVE",
"321 -76 OFFCURVE",
"352 -76 CURVE SMOOTH",
"389 -76 OFFCURVE",
"646 -170 OFFCURVE",
"676 -170 CURVE SMOOTH"
);
},
{
closed = 1;
nodes = (
"706 291 OFFCURVE",
"754 319 OFFCURVE",
"770 327 CURVE",
"764 352 LINE",
"743 347 OFFCURVE",
"737 344 OFFCURVE",
"711 344 CURVE SMOOTH",
"675 344 OFFCURVE",
"614 372 OFFCURVE",
"548 395 CURVE SMOOTH",
"477 420 OFFCURVE",
"421 435 OFFCURVE",
"421 468 CURVE",
"376 470 LINE",
"376 423 OFFCURVE",
"324 420 OFFCURVE",
"261 373 CURVE",
"279 352 LINE",
"297 367 OFFCURVE",
"331 384 OFFCURVE",
"373 384 CURVE SMOOTH",
"438 384 OFFCURVE",
"616 291 OFFCURVE",
"676 291 CURVE SMOOTH"
);
},
{
closed = 1;
nodes = (
"723 176 OFFCURVE",
"749 176 OFFCURVE",
"776 176 CURVE",
"776 223 LINE",
"752 223 OFFCURVE",
"727 223 OFFCURVE",
"703 223 CURVE SMOOTH",
"634 223 OFFCURVE",
"565 223 OFFCURVE",
"497 223 CURVE SMOOTH",
"464 223 OFFCURVE",
"432 223 OFFCURVE",
"399 223 CURVE",
"377 223 OFFCURVE",
"356 223 OFFCURVE",
"334 223 CURVE",
"309 223 OFFCURVE",
"283 223 OFFCURVE",
"258 223 CURVE",
"258 176 LINE",
"292 176 OFFCURVE",
"326 176 OFFCURVE",
"360 176 CURVE SMOOTH",
"472 176 OFFCURVE",
"584 176 OFFCURVE",
"696 176 CURVE SMOOTH"
);
}
);
};
backgroundImage = {
crop = "{{0, 0}, {305.16, 367}}";
imagePath = "img/05 Page 3.png";
locked = "1";
transform = "{42.083, 0, 17.89004, 42.083, -7300, -8605}";
};
components = (
{
name = O;
}
);
layerId = "1699526A-EFB7-4794-9793-F4E554F51E17";
paths = (
{
closed = 1;
nodes = (
"648 -139 OFFCURVE",
"685 -122 OFFCURVE",
"701 -112 CURVE",
"694 -74 LINE",
"669 -82 OFFCURVE",
"653 -86 OFFCURVE",
"632 -86 CURVE SMOOTH",
"547 -86 OFFCURVE",
"455 -2 OFFCURVE",
"348 -2 CURVE SMOOTH",
"306 -2 OFFCURVE",
"257 -14 OFFCURVE",
"202 -55 CURVE",
"218 -80 LINE",
"239 -65 OFFCURVE",
"277 -46 OFFCURVE",
"321 -46 CURVE SMOOTH",
"397 -46 OFFCURVE",
"546 -139 OFFCURVE",
"615 -139 CURVE SMOOTH"
);
}
);
width = 809;
},
{
background = {
paths = (
{
closed = 1;
nodes = (
"796 -139 OFFCURVE",
"826 -120 OFFCURVE",
"838 -110 CURVE",
"824 -76 LINE",
"801 -84 OFFCURVE",
"787 -86 OFFCURVE",
"770 -86 CURVE SMOOTH",
"681 -86 OFFCURVE",
"553 -2 OFFCURVE",
"450 -2 CURVE SMOOTH",
"404 -2 OFFCURVE",
"360 -18 OFFCURVE",
"322 -59 CURVE",
"339 -76 LINE",
"356 -61 OFFCURVE",
"385 -46 OFFCURVE",
"425 -46 CURVE SMOOTH",
"495 -46 OFFCURVE",
"694 -139 OFFCURVE",
"759 -139 CURVE SMOOTH"
);
}
);
};
backgroundImage = {
crop = "{{0, 0}, {305.16, 367}}";
imagePath = "img/05 Page 3.png";
locked = "1";
transform = "{42.083, 0, -17.89004, 42.083, 201.773, -8605}";
};
components = (
{
name = O;
}
);
layerId = "BC891ED8-9BFD-414F-9425-FE2804369777";
paths = (
{
closed = 1;
nodes = (
"796 -139 OFFCURVE",
"823 -122 OFFCURVE",
"838 -110 CURVE",
"824 -76 LINE",
"803 -85 OFFCURVE",
"787 -89 OFFCURVE",
"770 -89 CURVE SMOOTH",
"681 -89 OFFCURVE",
"553 -2 OFFCURVE",
"450 -2 CURVE SMOOTH",
"404 -2 OFFCURVE",
"360 -18 OFFCURVE",
"322 -59 CURVE",
"339 -86 LINE",
"356 -71 OFFCURVE",
"385 -46 OFFCURVE",
"425 -46 CURVE SMOOTH",
"495 -46 OFFCURVE",
"694 -139 OFFCURVE",
"759 -139 CURVE SMOOTH"
);
}
);
width = 886;
},
{
backgroundImage = {
crop = "{{0, 0}, {294, 68.104}}";
imagePath = "palatino-source/alphabet.jpg";
transform = "{72.664, 0, -15.44521, 72.664, -17148.724, -5984}";
};
components = (
{
locked = 1;
name = O;
}
);
layerId = "7121B8A5-DE38-4240-9956-93F0DA171E86";
paths = (
{
closed = 1;
nodes = (
"659 -14 OFFCURVE",
"765 -15 OFFCURVE",
"780 -14 CURVE",
"775 30 LINE",
"746 30 OFFCURVE",
"712 30 OFFCURVE",
"688 30 CURVE SMOOTH",
"606 30 OFFCURVE",
"626 30 OFFCURVE",
"523 30 CURVE SMOOTH",
"517 30 OFFCURVE",
"457 30 OFFCURVE",
"403 30 CURVE",
"407 -5 LINE",
"433 -15 OFFCURVE",
"498 -14 OFFCURVE",
"538 -14 CURVE SMOOTH",
"605 -14 OFFCURVE",
"558 -14 OFFCURVE",
"623 -14 CURVE SMOOTH"
);
}
);
width = 862;
}
);
leftMetricsKey = O;
rightMetricsKey = O;
unicode = 0051;
},
{
color = 5;
glyphname = R;
lastChange = "2021-11-15 17:37:08 +0000";
layers = (
{
hints = (
{
origin = "{0, 0}";
scale = "{-0.7, 1}";
type = Corner;
name = _corner.CAP.leftSerif;
},
{
origin = "{2, 0}";
scale = "{-1.2, 1}";
type = Corner;
name = _corner.CAP.leftSerif;
},
{
origin = "{2, 2}";
scale = "{1, -1}";
type = Corner;
name = _corner.CAP.leftSerif;
},
{
origin = "{2, 3}";
type = Corner;
name = _corner.CAP.leftSerif;
}
);
layerId = "A2204D38-078E-49A4-B70C-87904FFF8E34";
paths = (
{
closed = 1;
nodes = (
"548 0 LINE",
"464 113 OFFCURVE",
"379 210 OFFCURVE",
"277 359 CURVE",
"202 359 LINE",
"460 0 LINE"
);
},
{
closed = 1;
nodes = (
"210 340 LINE SMOOTH",
"363 340 OFFCURVE",
"479 436 OFFCURVE",
"479 543 CURVE SMOOTH",
"479 643 OFFCURVE",
"407 700 OFFCURVE",
"283 700 CURVE SMOOTH",
"122 700 LINE {name = \"🧨\";}",
"122 660 LINE",
"265 660 LINE SMOOTH",
"367 660 OFFCURVE",
"399 612 OFFCURVE",
"399 535 CURVE SMOOTH",
"399 440 OFFCURVE",
"342 378 OFFCURVE",
"224 378 CURVE SMOOTH",
"113 378 LINE",
"113 340 LINE"
);
},
{
closed = 1;
nodes = (
"152 0 LINE",
"152 700 LINE",
"82 700 LINE",
"82 0 LINE"
);
}
);
width = 608;
},
{
background = {
paths = (
{
closed = 1;
nodes = (
"244 0 LINE",
"244 30 LINE",
"190 30 OFFCURVE",
"174 49 OFFCURVE",
"174 106 CURVE SMOOTH",
"174 700 LINE",
"42 700 LINE",
"42 670 LINE",
"96 670 OFFCURVE",
"112 651 OFFCURVE",
"112 594 CURVE SMOOTH",
"112 106 LINE SMOOTH",
"112 49 OFFCURVE",
"96 30 OFFCURVE",
"42 30 CURVE",
"42 0 LINE"
);
}
);
};
backgroundImage = {
crop = "{{0, 0}, {305.16, 367}}";
imagePath = "img/05 Page 3.png";
locked = "1";
transform = "{42.083, 0, 0, 42.083, -4482, -8603}";
};
hints = (
{
origin = "{0, 0}";
scale = "{-0.7, 1}";
type = Corner;
name = _corner.CAP.leftSerif;
options = 1;
},
{
origin = "{2, 0}";
scale = "{-1.2, 1}";
type = Corner;
name = _corner.CAP.leftSerif;
},
{
origin = "{2, 2}";
scale = "{1, -1}";
type = Corner;
name = _corner.CAP.leftSerif;
},
{
origin = "{2, 3}";
type = Corner;
name = _corner.CAP.leftSerif;
}
);
layerId = "3EDEE92B-4D9D-4D9A-9438-63C2E33416C1";
paths = (
{
closed = 1;
nodes = (
"578 0 LINE",
"494 113 OFFCURVE",
"409 210 OFFCURVE",
"307 359 CURVE",
"232 359 LINE",
"490 0 LINE"
);
},
{
closed = 1;
nodes = (
"240 340 LINE SMOOTH",
"393 340 OFFCURVE",
"509 436 OFFCURVE",
"509 543 CURVE SMOOTH",
"509 643 OFFCURVE",
"437 700 OFFCURVE",
"313 700 CURVE SMOOTH",
"152 700 LINE {name = \"🧨\";}",
"152 660 LINE",
"295 660 LINE SMOOTH",
"397 660 OFFCURVE",
"429 612 OFFCURVE",
"429 535 CURVE SMOOTH",
"429 440 OFFCURVE",
"372 378 OFFCURVE",
"254 378 CURVE SMOOTH",
"143 378 LINE",
"143 340 LINE"
);
},
{
closed = 1;
nodes = (
"182 0 LINE",
"182 700 LINE",
"112 700 LINE",
"112 0 LINE"
);
}
);
width = 657;
},
{
hints = (
{
origin = "{0, 0}";
scale = "{-0.7, 1}";
type = Corner;
name = _corner.CAP.leftSerif;
},
{
origin = "{2, 0}";
scale = "{-1.2, 1}";
type = Corner;
name = _corner.CAP.leftSerif;
},
{
origin = "{2, 2}";
scale = "{1, -1}";
type = Corner;
name = _corner.CAP.leftSerif;
},
{
origin = "{2, 3}";
type = Corner;
name = _corner.CAP.leftSerif;
options = 1;
}
);
layerId = "12C15986-4B26-4DD1-ABCC-3DD937B37D00";
paths = (
{
closed = 1;
nodes = (
"480 -2 LINE",
"420 111 OFFCURVE",
"356 208 OFFCURVE",
"285 357 CURVE",
"213 359 LINE",
"394 0 LINE"
);
},
{
closed = 1;
nodes = (
"218 340 LINE SMOOTH",
"371 340 OFFCURVE",
"505 433 OFFCURVE",
"527 538 CURVE SMOOTH",
"549 640 OFFCURVE",
"487 700 OFFCURVE",
"363 700 CURVE SMOOTH",
"204 700 LINE {name = \"🧨\";}",
"196 660 LINE",
"341 660 LINE SMOOTH",
"443 660 OFFCURVE",
"463 615 OFFCURVE",
"447 540 CURVE SMOOTH",
"427 443 OFFCURVE",
"354 378 OFFCURVE",
"236 378 CURVE SMOOTH",
"127 378 LINE",
"119 340 LINE"
);
},
{
closed = 1;
nodes = (
"86 0 LINE",
"234 700 LINE",
"164 700 LINE",
"16 0 LINE"
);
}
);
width = 536;
},
{
background = {
paths = (
{
closed = 1;
nodes = (
"258 0 LINE",
"258 30 LINE",
"204 30 OFFCURVE",
"188 49 OFFCURVE",
"188 106 CURVE SMOOTH",
"188 700 LINE",
"56 700 LINE",
"56 670 LINE",
"110 670 OFFCURVE",
"126 651 OFFCURVE",
"126 594 CURVE SMOOTH",
"126 106 LINE SMOOTH",
"126 49 OFFCURVE",
"110 30 OFFCURVE",
"56 30 CURVE",
"56 0 LINE"
);
}
);
};
backgroundImage = {
crop = "{{0, 0}, {305.16, 367}}";
imagePath = "img/05 Page 3.png";
locked = "1";
transform = "{42.083, 0, 17.89004, 42.083, -8218, -8603}";
};
hints = (
{
origin = "{0, 0}";
scale = "{-0.7, 1}";
type = Corner;
name = _corner.CAP.leftSerif;
options = 1;
},
{
origin = "{2, 0}";
scale = "{-1.2, 1}";
type = Corner;
name = _corner.CAP.leftSerif;
options = 1;
},
{
origin = "{2, 2}";
scale = "{1, -1}";
type = Corner;
name = _corner.CAP.leftSerif;
options = 1;
},
{
origin = "{2, 3}";
type = Corner;
name = _corner.CAP.leftSerif;
}
);
layerId = "1699526A-EFB7-4794-9793-F4E554F51E17";
paths = (
{
closed = 1;
nodes = (
"544 0 LINE",
"484 113 OFFCURVE",
"420 208 OFFCURVE",
"349 357 CURVE",
"277 359 LINE",
"458 0 LINE"
);
},
{
closed = 1;
nodes = (
"282 340 LINE SMOOTH",
"435 340 OFFCURVE",
"569 433 OFFCURVE",
"591 538 CURVE SMOOTH",
"613 640 OFFCURVE",
"551 700 OFFCURVE",
"427 700 CURVE SMOOTH",
"268 700 LINE {name = \"🧨\";}",
"260 660 LINE",
"405 660 LINE SMOOTH",
"507 660 OFFCURVE",
"527 615 OFFCURVE",
"511 540 CURVE SMOOTH",
"491 443 OFFCURVE",
"418 378 OFFCURVE",
"300 378 CURVE SMOOTH",
"191 378 LINE",
"183 340 LINE"
);
},
{
closed = 1;
nodes = (
"150 0 LINE",
"298 700 LINE",
"228 700 LINE",
"80 0 LINE"
);
}
);
width = 630;
},
{
background = {
paths = (
{
closed = 1;
nodes = (
"266 0 LINE",
"266 30 LINE",
"212 30 OFFCURVE",
"196 49 OFFCURVE",
"196 106 CURVE SMOOTH",
"196 700 LINE",
"64 700 LINE",
"64 670 LINE",
"118 670 OFFCURVE",
"134 651 OFFCURVE",
"134 594 CURVE SMOOTH",
"134 106 LINE SMOOTH",
"134 49 OFFCURVE",
"118 30 OFFCURVE",
"64 30 CURVE",
"64 0 LINE"
);
}
);
};
backgroundImage = {
crop = "{{0, 0}, {305.16, 367}}";
imagePath = "img/05 Page 3.png";
locked = "1";
transform = "{42.083, 0, -17.89004, 42.083, -710, -8603}";
};
hints = (
{
origin = "{0, 0}";
scale = "{-0.7, 1}";
type = Corner;
name = _corner.CAP.leftSerif;
options = 1;
},
{
origin = "{2, 0}";
scale = "{-1.2, 1}";
type = Corner;
name = _corner.CAP.leftSerif;
options = 1;
},
{
origin = "{2, 2}";
scale = "{1, -1}";
type = Corner;
name = _corner.CAP.leftSerif;
options = 1;
},
{
origin = "{2, 3}";
type = Corner;
name = _corner.CAP.leftSerif;
}
);
layerId = "BC891ED8-9BFD-414F-9425-FE2804369777";
paths = (
{
closed = 1;
nodes = (
"647 2 LINE",
"539 115 OFFCURVE",
"433 212 OFFCURVE",
"300 361 CURVE",
"223 359 LINE",
"558 0 LINE"
);
},
{
closed = 1;
nodes = (
"234 340 LINE SMOOTH",
"387 340 OFFCURVE",
"484 439 OFFCURVE",
"461 548 CURVE SMOOTH",
"440 646 OFFCURVE",
"359 700 OFFCURVE",
"235 700 CURVE SMOOTH",
"72 700 LINE {name = \"🧨\";}",
"80 660 LINE",
"221 660 LINE SMOOTH",
"323 660 OFFCURVE",
"368 609 OFFCURVE",
"385 530 CURVE SMOOTH",
"404 437 OFFCURVE",
"362 378 OFFCURVE",
"244 378 CURVE SMOOTH",
"131 378 LINE",
"139 340 LINE"
);
},
{
closed = 1;
nodes = (
"250 0 LINE",
"102 700 LINE",
"32 700 LINE",
"180 0 LINE"
);
}
);
width = 718;
},
{
hints = (
{
origin = "{0, 0}";
scale = "{-0.7, 1}";
type = Corner;
name = _corner.CAP.leftSerif;
},
{
origin = "{2, 0}";
scale = "{-1.2, 1}";
type = Corner;
name = _corner.CAP.leftSerif;
},
{
origin = "{2, 2}";
scale = "{1, -1}";
type = Corner;
name = _corner.CAP.leftSerif;
},
{
origin = "{2, 3}";
type = Corner;
name = _corner.CAP.leftSerif;
options = 1;
}
);
layerId = "7121B8A5-DE38-4240-9956-93F0DA171E86";
paths = (
{
closed = 1;
nodes = (
"650 0 LINE",
"542 113 OFFCURVE",
"436 212 OFFCURVE",
"303 361 CURVE",
"226 359 LINE",
"561 0 LINE"
);
},
{
closed = 1;
nodes = (
"237 340 LINE SMOOTH",
"390 340 OFFCURVE",
"487 439 OFFCURVE",
"464 548 CURVE SMOOTH",
"443 646 OFFCURVE",
"362 700 OFFCURVE",
"238 700 CURVE SMOOTH",
"75 700 LINE {name = \"🧨\";}",
"83 660 LINE",
"224 660 LINE SMOOTH",
"326 660 OFFCURVE",
"371 609 OFFCURVE",
"388 530 CURVE SMOOTH",
"407 437 OFFCURVE",
"365 378 OFFCURVE",
"247 378 CURVE SMOOTH",
"134 378 LINE",
"142 340 LINE"
);
},
{
closed = 1;
nodes = (
"253 0 LINE",
"105 700 LINE",
"35 700 LINE",
"183 0 LINE"
);
}
);
width = 682;
}
);
leftMetricsKey = N;
unicode = 0052;
},
{
color = 5;
glyphname = S;
lastChange = "2021-11-15 17:37:08 +0000";
layers = (
{
background = {
paths = (
{
closed = 1;
nodes = (
"416 -12 OFFCURVE",
"536 113 OFFCURVE",
"536 254 CURVE SMOOTH",
"536 370 OFFCURVE",
"459 402 OFFCURVE",
"399 402 CURVE SMOOTH",
"352 402 OFFCURVE",
"323 396 OFFCURVE",
"278 396 CURVE SMOOTH",
"196 396 OFFCURVE",
"164 437 OFFCURVE",
"164 520 CURVE SMOOTH",
"164 614 OFFCURVE",
"228 672 OFFCURVE",
"319 672 CURVE SMOOTH",
"381 672 OFFCURVE",
"433 658 OFFCURVE",
"466 624 CURVE",
"461 581 LINE",
"487 581 LINE",
"498 672 LINE",
"474 686 OFFCURVE",
"416 710 OFFCURVE",
"332 710 CURVE SMOOTH",
"189 710 OFFCURVE",
"93 613 OFFCURVE",
"93 505 CURVE SMOOTH",
"93 389 OFFCURVE",
"162 337 OFFCURVE",
"235 337 CURVE SMOOTH",
"283 337 OFFCURVE",
"295 341 OFFCURVE",
"332 341 CURVE SMOOTH",
"432 341 OFFCURVE",
"468 286 OFFCURVE",
"468 211 CURVE SMOOTH",
"468 100 OFFCURVE",
"390 42 OFFCURVE",
"283 42 CURVE SMOOTH",
"207 42 OFFCURVE",
"159 68 OFFCURVE",
"133 94 CURVE",
"128 146 LINE",
"100 146 LINE",
"100 31 LINE",
"122 16 OFFCURVE",
"173 -12 OFFCURVE",
"254 -12 CURVE SMOOTH"
);
}
);
};
layerId = "A2204D38-078E-49A4-B70C-87904FFF8E34";
paths = (
{
closed = 1;
nodes = (
"415 -12 OFFCURVE",
"536 113 OFFCURVE",
"536 254 CURVE SMOOTH",
"536 370 OFFCURVE",
"459 402 OFFCURVE",
"399 402 CURVE SMOOTH",
"352 402 OFFCURVE",
"323 396 OFFCURVE",
"277 396 CURVE SMOOTH",
"196 396 OFFCURVE",
"164 437 OFFCURVE",
"164 520 CURVE SMOOTH",
"164 614 OFFCURVE",
"227 671 OFFCURVE",
"318 672 CURVE SMOOTH",
"399 673 OFFCURVE",
"449 617 OFFCURVE",
"482 583 CURVE",
"490 583 LINE",
"511 658 LINE",
"509 662 LINE",
"485 676 OFFCURVE",
"422 710 OFFCURVE",
"331 710 CURVE SMOOTH",
"188 710 OFFCURVE",
"93 613 OFFCURVE",
"93 505 CURVE SMOOTH",
"93 389 OFFCURVE",
"162 337 OFFCURVE",
"235 337 CURVE SMOOTH",
"283 337 OFFCURVE",
"295 341 OFFCURVE",
"332 341 CURVE SMOOTH",
"432 341 OFFCURVE",
"468 286 OFFCURVE",
"468 211 CURVE SMOOTH",
"468 100 OFFCURVE",
"389 42 OFFCURVE",
"282 42 CURVE SMOOTH",
"206 42 OFFCURVE",
"140 84 OFFCURVE",
"114 110 CURVE",
"107 110 LINE",
"102 94 LINE",
"82 31 LINE",
"104 16 OFFCURVE",
"172 -12 OFFCURVE",
"253 -12 CURVE SMOOTH"
);
}
);
width = 591;
},
{
backgroundImage = {
crop = "{{0, 0}, {305.16, 367}}";
imagePath = "img/05 Page 3.png";
locked = "1";
transform = "{42.083, 0, 0, 42.083, -5209, -8595}";
};
layerId = "3EDEE92B-4D9D-4D9A-9438-63C2E33416C1";
paths = (
{
closed = 1;
nodes = (
"367 -14 OFFCURVE",
"487 113 OFFCURVE",
"487 254 CURVE SMOOTH",
"487 369 OFFCURVE",
"410 403 OFFCURVE",
"350 403 CURVE SMOOTH",
"303 403 OFFCURVE",
"274 396 OFFCURVE",
"229 396 CURVE SMOOTH",
"157 396 OFFCURVE",
"113 437 OFFCURVE",
"113 520 CURVE SMOOTH",
"113 614 OFFCURVE",
"179 672 OFFCURVE",
"270 672 CURVE SMOOTH",
"332 672 OFFCURVE",
"390 658 OFFCURVE",
"423 624 CURVE",
"418 581 LINE",
"444 581 LINE",
"455 672 LINE",
"431 686 OFFCURVE",
"367 714 OFFCURVE",
"283 714 CURVE SMOOTH",
"140 714 OFFCURVE",
"42 613 OFFCURVE",
"42 505 CURVE SMOOTH",
"42 389 OFFCURVE",
"113 337 OFFCURVE",
"186 337 CURVE SMOOTH",
"234 337 OFFCURVE",
"246 341 OFFCURVE",
"283 341 CURVE SMOOTH",
"373 341 OFFCURVE",
"419 286 OFFCURVE",
"419 211 CURVE SMOOTH",
"419 100 OFFCURVE",
"341 42 OFFCURVE",
"234 42 CURVE SMOOTH",
"158 42 OFFCURVE",
"108 68 OFFCURVE",
"82 94 CURVE",
"77 146 LINE",
"49 146 LINE",
"49 31 LINE",
"71 16 OFFCURVE",
"124 -14 OFFCURVE",
"205 -14 CURVE SMOOTH"
);
}
);
width = 523;
},
{
background = {
paths = (
{
closed = 1;
nodes = (
"388 -12 OFFCURVE",
"508 113 OFFCURVE",
"508 254 CURVE SMOOTH",
"508 370 OFFCURVE",
"431 402 OFFCURVE",
"371 402 CURVE SMOOTH",
"324 402 OFFCURVE",
"295 396 OFFCURVE",
"250 396 CURVE SMOOTH",
"168 396 OFFCURVE",
"136 437 OFFCURVE",
"136 520 CURVE SMOOTH",
"136 614 OFFCURVE",
"200 672 OFFCURVE",
"291 672 CURVE SMOOTH",
"353 672 OFFCURVE",
"405 658 OFFCURVE",
"438 624 CURVE",
"433 581 LINE",
"459 581 LINE",
"470 672 LINE",
"446 686 OFFCURVE",
"388 710 OFFCURVE",
"304 710 CURVE SMOOTH",
"161 710 OFFCURVE",
"65 613 OFFCURVE",
"65 505 CURVE SMOOTH",
"65 389 OFFCURVE",
"134 337 OFFCURVE",
"207 337 CURVE SMOOTH",
"255 337 OFFCURVE",
"267 341 OFFCURVE",
"304 341 CURVE SMOOTH",
"404 341 OFFCURVE",
"440 286 OFFCURVE",
"440 211 CURVE SMOOTH",
"440 100 OFFCURVE",
"362 42 OFFCURVE",
"255 42 CURVE SMOOTH",
"179 42 OFFCURVE",
"131 68 OFFCURVE",
"105 94 CURVE",
"100 146 LINE",
"72 146 LINE",
"72 31 LINE",
"94 16 OFFCURVE",
"145 -12 OFFCURVE",
"226 -12 CURVE SMOOTH"
);
}
);
};
layerId = "12C15986-4B26-4DD1-ABCC-3DD937B37D00";
paths = (
{
closed = 1;
nodes = (
"340 -12 OFFCURVE",
"485 110 OFFCURVE",
"515 249 CURVE SMOOTH",
"540 367 OFFCURVE",
"468 402 OFFCURVE",
"406 402 CURVE SMOOTH",
"361 402 OFFCURVE",
"331 396 OFFCURVE",
"283 396 CURVE SMOOTH",
"204 396 OFFCURVE",
"182 434 OFFCURVE",
"199 515 CURVE SMOOTH",
"220 611 OFFCURVE",
"297 671 OFFCURVE",
"391 672 CURVE SMOOTH",
"470 673 OFFCURVE",
"508 619 OFFCURVE",
"533 585 CURVE",
"540 583 LINE",
"576 658 LINE",
"573 661 LINE",
"552 675 OFFCURVE",
"497 710 OFFCURVE",
"404 710 CURVE SMOOTH",
"263 710 OFFCURVE",
"149 616 OFFCURVE",
"127 510 CURVE SMOOTH",
"102 392 OFFCURVE",
"161 337 OFFCURVE",
"236 337 CURVE SMOOTH",
"282 337 OFFCURVE",
"295 341 OFFCURVE",
"334 341 CURVE SMOOTH",
"432 341 OFFCURVE",
"455 289 OFFCURVE",
"440 216 CURVE SMOOTH",
"415 103 OFFCURVE",
"322 42 OFFCURVE",
"213 42 CURVE SMOOTH",
"139 42 OFFCURVE",
"82 82 OFFCURVE",
"61 108 CURVE",
"55 110 LINE",
"47 94 LINE",
"16 32 LINE",
"35 17 OFFCURVE",
"97 -12 OFFCURVE",
"180 -12 CURVE SMOOTH"
);
}
);
width = 596;
},
{
backgroundImage = {
crop = "{{0, 0}, {305.16, 367}}";
imagePath = "img/05 Page 3.png";
locked = "1";
transform = "{42.083, 0, 17.89004, 42.083, -8957, -8595}";
};
layerId = "1699526A-EFB7-4794-9793-F4E554F51E17";
paths = (
{
closed = 1;
nodes = (
"319 -14 OFFCURVE",
"463 110 OFFCURVE",
"493 249 CURVE SMOOTH",
"518 366 OFFCURVE",
"446 403 OFFCURVE",
"384 403 CURVE SMOOTH",
"339 403 OFFCURVE",
"309 396 OFFCURVE",
"262 396 CURVE SMOOTH",
"192 396 OFFCURVE",
"158 434 OFFCURVE",
"175 515 CURVE SMOOTH",
"196 611 OFFCURVE",
"277 672 OFFCURVE",
"370 672 CURVE SMOOTH",
"430 672 OFFCURVE",
"484 660 OFFCURVE",
"510 626 CURVE",
"494 581 LINE",
"520 581 LINE",
"549 671 LINE",
"527 685 OFFCURVE",
"469 714 OFFCURVE",
"383 714 CURVE SMOOTH",
"242 714 OFFCURVE",
"125 616 OFFCURVE",
"103 510 CURVE SMOOTH",
"78 392 OFFCURVE",
"139 337 OFFCURVE",
"214 337 CURVE SMOOTH",
"260 337 OFFCURVE",
"273 341 OFFCURVE",
"312 341 CURVE SMOOTH",
"400 341 OFFCURVE",
"433 289 OFFCURVE",
"418 216 CURVE SMOOTH",
"393 103 OFFCURVE",
"301 42 OFFCURVE",
"192 42 CURVE SMOOTH",
"118 42 OFFCURVE",
"73 66 OFFCURVE",
"53 92 CURVE",
"61 146 LINE",
"33 146 LINE",
"10 32 LINE",
"29 17 OFFCURVE",
"76 -14 OFFCURVE",
"159 -14 CURVE SMOOTH"
);
}
);
width = 569;
},
{
backgroundImage = {
crop = "{{0, 0}, {305.16, 367}}";
imagePath = "img/05 Page 3.png";
locked = "1";
transform = "{42.083, 0, -17.89004, 42.083, -1478, -8595}";
};
layerId = "BC891ED8-9BFD-414F-9425-FE2804369777";
paths = (
{
closed = 1;
nodes = (
"398 -14 OFFCURVE",
"493 116 OFFCURVE",
"462 259 CURVE SMOOTH",
"438 372 OFFCURVE",
"357 403 OFFCURVE",
"299 403 CURVE SMOOTH",
"250 403 OFFCURVE",
"222 396 OFFCURVE",
"179 396 CURVE SMOOTH",
"105 396 OFFCURVE",
"50 440 OFFCURVE",
"32 525 CURVE SMOOTH",
"12 617 OFFCURVE",
"64 672 OFFCURVE",
"153 672 CURVE SMOOTH",
"217 672 OFFCURVE",
"279 656 OFFCURVE",
"320 622 CURVE",
"325 581 LINE",
"351 581 LINE",
"344 673 LINE",
"317 687 OFFCURVE",
"248 714 OFFCURVE",
"166 714 CURVE SMOOTH",
"21 714 OFFCURVE",
"-57 610 OFFCURVE",
"-34 500 CURVE SMOOTH",
"-10 386 OFFCURVE",
"70 337 OFFCURVE",
"141 337 CURVE SMOOTH",
"191 337 OFFCURVE",
"202 341 OFFCURVE",
"237 341 CURVE SMOOTH",
"329 341 OFFCURVE",
"389 283 OFFCURVE",
"406 206 CURVE SMOOTH",
"429 97 OFFCURVE",
"364 42 OFFCURVE",
"259 42 CURVE SMOOTH",
"181 42 OFFCURVE",
"125 70 OFFCURVE",
"93 96 CURVE",
"77 146 LINE",
"48 146 LINE",
"71 30 LINE",
"97 15 OFFCURVE",
"155 -14 OFFCURVE",
"234 -14 CURVE SMOOTH"
);
}
);
width = 510;
},
{
background = {
paths = (
{
closed = 1;
nodes = (
"422 -12 OFFCURVE",
"542 113 OFFCURVE",
"542 254 CURVE SMOOTH",
"542 370 OFFCURVE",
"465 402 OFFCURVE",
"405 402 CURVE SMOOTH",
"358 402 OFFCURVE",
"329 396 OFFCURVE",
"284 396 CURVE SMOOTH",
"202 396 OFFCURVE",
"170 437 OFFCURVE",
"170 520 CURVE SMOOTH",
"170 614 OFFCURVE",
"234 672 OFFCURVE",
"325 672 CURVE SMOOTH",
"387 672 OFFCURVE",
"439 658 OFFCURVE",
"472 624 CURVE",
"467 581 LINE",
"493 581 LINE",
"504 672 LINE",
"480 686 OFFCURVE",
"422 710 OFFCURVE",
"338 710 CURVE SMOOTH",
"195 710 OFFCURVE",
"99 613 OFFCURVE",
"99 505 CURVE SMOOTH",
"99 389 OFFCURVE",
"168 337 OFFCURVE",
"241 337 CURVE SMOOTH",
"289 337 OFFCURVE",
"301 341 OFFCURVE",
"338 341 CURVE SMOOTH",
"438 341 OFFCURVE",
"474 286 OFFCURVE",
"474 211 CURVE SMOOTH",
"474 100 OFFCURVE",
"396 42 OFFCURVE",
"289 42 CURVE SMOOTH",
"213 42 OFFCURVE",
"165 68 OFFCURVE",
"139 94 CURVE",
"134 146 LINE",
"106 146 LINE",
"106 31 LINE",
"128 16 OFFCURVE",
"179 -12 OFFCURVE",
"260 -12 CURVE SMOOTH"
);
}
);
};
layerId = "7121B8A5-DE38-4240-9956-93F0DA171E86";
paths = (
{
closed = 1;
nodes = (
"468 -12 OFFCURVE",
"564 116 OFFCURVE",
"533 259 CURVE SMOOTH",
"509 373 OFFCURVE",
"428 402 OFFCURVE",
"370 402 CURVE SMOOTH",
"321 402 OFFCURVE",
"293 396 OFFCURVE",
"249 396 CURVE SMOOTH",
"166 396 OFFCURVE",
"123 440 OFFCURVE",
"105 525 CURVE SMOOTH",
"85 617 OFFCURVE",
"135 671 OFFCURVE",
"223 672 CURVE SMOOTH",
"306 673 OFFCURVE",
"369 615 OFFCURVE",
"409 581 CURVE",
"418 583 LINE",
"423 658 LINE",
"423 663 LINE",
"395 677 OFFCURVE",
"325 710 OFFCURVE",
"236 710 CURVE SMOOTH",
"91 710 OFFCURVE",
"16 610 OFFCURVE",
"39 500 CURVE SMOOTH",
"63 386 OFFCURVE",
"141 337 OFFCURVE",
"212 337 CURVE SMOOTH",
"262 337 OFFCURVE",
"273 341 OFFCURVE",
"308 341 CURVE SMOOTH",
"410 341 OFFCURVE",
"460 283 OFFCURVE",
"477 206 CURVE SMOOTH",
"500 97 OFFCURVE",
"434 42 OFFCURVE",
"329 42 CURVE SMOOTH",
"251 42 OFFCURVE",
"176 86 OFFCURVE",
"144 112 CURVE",
"137 110 LINE",
"136 94 LINE",
"127 30 LINE",
"152 15 OFFCURVE",
"225 -12 OFFCURVE",
"304 -12 CURVE SMOOTH"
);
}
);
width = 589;
}
);
leftMetricsKey = N;
unicode = 0053;
},
{
color = 5;
glyphname = T;
lastChange = "2021-11-15 16:38:29 +0000";
layers = (
{
background = {
hints = (
{
origin = "{0, 0}";
scale = "{-1, 1}";
type = Corner;
name = _corner.CAP.leftSerif;
},
{
origin = "{0, 3}";
type = Corner;
name = _corner.CAP.leftSerif;
},
{
origin = "{1, 1}";
scale = "{1, 0.9}";
type = Corner;
name = _corner.CAP.top;
},
{
origin = "{1, 2}";
scale = "{-1, 0.9}";
type = Corner;
name = _corner.CAP.top;
}
);
paths = (
{
closed = 1;
nodes = (
"407 0 LINE",
"407 700 LINE",
"337 700 LINE",
"337 0 LINE"
);
},
{
closed = 1;
nodes = (
"82 700 LINE",
"82 656 LINE",
"662 656 LINE",
"662 700 LINE"
);
}
);
};
hints = (
{
origin = "{0, 0}";
scale = "{-1, 1}";
type = Corner;
name = _corner.CAP.leftSerif;
},
{
origin = "{0, 3}";
type = Corner;
name = _corner.CAP.leftSerif;
},
{
origin = "{1, 3}";
type = Corner;
name = _corner.CAP.top;
},
{
origin = "{1, 0}";
scale = "{-1, 1}";
type = Corner;
name = _corner.CAP.top;
}
);
layerId = "A2204D38-078E-49A4-B70C-87904FFF8E34";
paths = (
{
closed = 1;
nodes = (
"407 0 LINE",
"407 700 LINE {name = \"🧨\";}",
"337 700 LINE {name = \"🧨\";}",
"337 0 LINE"
);
},
{
closed = 1;
nodes = (
"662 654 LINE",
"662 700 LINE",
"82 700 LINE",
"82 654 LINE"
);
}
);
width = 706;
},
{
background = {
paths = (
{
closed = 1;
nodes = (
"380 0 LINE",
"380 700 LINE",
"305 700 LINE",
"305 0 LINE"
);
},
{
closed = 1;
nodes = (
"7 700 LINE",
"7 640 LINE",
"678 640 LINE",
"678 700 LINE"
);
}
);
};
backgroundImage = {
crop = "{{0, 0}, {305.16, 367}}";
imagePath = "img/05 Page 3.png";
locked = "1";
transform = "{42.083, 0, 0, 42.083, -5773, -8593}";
};
hints = (
{
origin = "{0, 3}";
type = Corner;
name = _corner.CAP.leftSerif;
},
{
origin = "{0, 0}";
scale = "{-1, 1}";
type = Corner;
name = _corner.CAP.leftSerif;
},
{
origin = "{1, 3}";
scale = "{1, 0.9}";
type = Corner;
name = _corner.CAP.top;
},
{
origin = "{1, 0}";
scale = "{-1, 0.9}";
type = Corner;
name = _corner.CAP.top;
}
);
layerId = "3EDEE92B-4D9D-4D9A-9438-63C2E33416C1";
paths = (
{
closed = 1;
nodes = (
"377 0 LINE",
"377 700 LINE {name = \"🧨\";}",
"307 700 LINE {name = \"🧨\";}",
"307 0 LINE"
);
},
{
closed = 1;
nodes = (
"632 654 LINE",
"632 700 LINE",
"52 700 LINE",
"52 654 LINE"
);
}
);
width = 662;
},
{
background = {
hints = (
{
origin = "{0, 0}";
scale = "{-1, 1}";
type = Corner;
name = _corner.CAP.leftSerif;
},
{
origin = "{0, 3}";
type = Corner;
name = _corner.CAP.leftSerif;
},
{
origin = "{1, 1}";
scale = "{1, 0.9}";
type = Corner;
name = _corner.CAP.top;
},
{
origin = "{1, 2}";
scale = "{-1, 0.9}";
type = Corner;
name = _corner.CAP.top;
}
);
paths = (
{
closed = 1;
nodes = (
"248 0 LINE",
"248 700 LINE",
"178 700 LINE",
"178 0 LINE"
);
},
{
closed = 1;
nodes = (
"-77 700 LINE",
"-77 656 LINE",
"503 656 LINE",
"503 700 LINE"
);
}
);
};
hints = (
{
origin = "{0, 0}";
scale = "{-1, 1}";
type = Corner;
name = _corner.CAP.leftSerif;
},
{
origin = "{0, 3}";
type = Corner;
name = _corner.CAP.leftSerif;
options = 1;
},
{
origin = "{1, 3}";
scale = "{1, 0}";
type = Corner;
name = _corner.CAP.top;
},
{
origin = "{1, 0}";
scale = "{-1, 0.01}";
type = Corner;
name = _corner.CAP.top;
options = 1;
}
);
layerId = "12C15986-4B26-4DD1-ABCC-3DD937B37D00";
paths = (
{
closed = 1;
nodes = (
"202 0 LINE",
"350 700 LINE {name = \"🧨\";}",
"280 700 LINE {name = \"🧨\";}",
"132 0 LINE"
);
},
{
closed = 1;
nodes = (
"596 654 LINE",
"605 700 LINE",
"25 700 LINE",
"16 654 LINE"
);
}
);
width = 620;
},
{
background = {
paths = (
{
closed = 1;
nodes = (
"255 0 LINE",
"255 700 LINE",
"180 700 LINE",
"180 0 LINE"
);
},
{
closed = 1;
nodes = (
"-118 700 LINE",
"-118 640 LINE",
"553 640 LINE",
"553 700 LINE"
);
}
);
};
backgroundImage = {
crop = "{{0, 0}, {305.16, 367}}";
imagePath = "img/05 Page 3.png";
locked = "1";
transform = "{42.083, 0, 17.89004, 42.083, -9644, -8593}";
};
hints = (
{
origin = "{0, 3}";
type = Corner;
name = _corner.CAP.leftSerif;
},
{
origin = "{0, 0}";
scale = "{-1, 1}";
type = Corner;
name = _corner.CAP.leftSerif;
options = 1;
},
{
origin = "{1, 3}";
scale = "{1, 0.9}";
type = Corner;
name = _corner.CAP.top;
},
{
origin = "{1, 0}";
scale = "{-1, 0.9}";
type = Corner;
name = _corner.CAP.top;
}
);
layerId = "1699526A-EFB7-4794-9793-F4E554F51E17";
paths = (
{
closed = 1;
nodes = (
"206 0 LINE",
"354 700 LINE {name = \"🧨\";}",
"284 700 LINE {name = \"🧨\";}",
"136 0 LINE"
);
},
{
closed = 1;
nodes = (
"600 654 LINE",
"609 700 LINE",
"29 700 LINE",
"20 654 LINE"
);
}
);
width = 569;
},
{
background = {
paths = (
{
closed = 1;
nodes = (
"393 0 LINE",
"393 700 LINE",
"318 700 LINE",
"318 0 LINE"
);
},
{
closed = 1;
nodes = (
"20 700 LINE",
"20 640 LINE",
"691 640 LINE",
"691 700 LINE"
);
}
);
};
backgroundImage = {
crop = "{{0, 0}, {305.16, 367}}";
imagePath = "img/05 Page 3.png";
locked = "1";
transform = "{42.083, 0, -17.89004, 42.083, -2014, -8593}";
};
hints = (
{
origin = "{0, 3}";
type = Corner;
name = _corner.CAP.leftSerif;
},
{
origin = "{0, 0}";
scale = "{-1, 1}";
type = Corner;
name = _corner.CAP.leftSerif;
options = 1;
},
{
origin = "{1, 3}";
scale = "{1, 0.9}";
type = Corner;
name = _corner.CAP.top;
},
{
origin = "{1, 0}";
scale = "{-1, 0.9}";
type = Corner;
name = _corner.CAP.top;
}
);
layerId = "BC891ED8-9BFD-414F-9425-FE2804369777";
paths = (
{
closed = 1;
nodes = (
"436 0 LINE",
"288 700 LINE {name = \"🧨\";}",
"218 700 LINE {name = \"🧨\";}",
"366 0 LINE"
);
},
{
closed = 1;
nodes = (
"552 654 LINE",
"543 700 LINE",
"-37 700 LINE",
"-28 654 LINE"
);
}
);
width = 624;
},
{
background = {
hints = (
{
origin = "{0, 0}";
scale = "{-1, 1}";
type = Corner;
name = _corner.CAP.leftSerif;
},
{
origin = "{0, 3}";
type = Corner;
name = _corner.CAP.leftSerif;
},
{
origin = "{1, 1}";
scale = "{1, 0.9}";
type = Corner;
name = _corner.CAP.top;
},
{
origin = "{1, 2}";
scale = "{-1, 0.9}";
type = Corner;
name = _corner.CAP.top;
}
);
paths = (
{
closed = 1;
nodes = (
"465 0 LINE",
"465 700 LINE",
"395 700 LINE",
"395 0 LINE"
);
},
{
closed = 1;
nodes = (
"140 700 LINE",
"140 656 LINE",
"720 656 LINE",
"720 700 LINE"
);
}
);
};
hints = (
{
origin = "{0, 0}";
scale = "{-1, 1}";
type = Corner;
name = _corner.CAP.leftSerif;
},
{
origin = "{0, 3}";
type = Corner;
name = _corner.CAP.leftSerif;
options = 1;
},
{
origin = "{1, 3}";
type = Corner;
name = _corner.CAP.top;
},
{
origin = "{1, 0}";
scale = "{-1, 0.01}";
type = Corner;
name = _corner.CAP.top;
options = 1;
}
);
layerId = "7121B8A5-DE38-4240-9956-93F0DA171E86";
paths = (
{
closed = 1;
nodes = (
"511 0 LINE",
"363 700 LINE {name = \"🧨\";}",
"293 700 LINE {name = \"🧨\";}",
"441 0 LINE"
);
},
{
closed = 1;
nodes = (
"627 654 LINE",
"618 700 LINE",
"38 700 LINE",
"47 654 LINE"
);
}
);
width = 669;
}
);
leftMetricsKey = N;
unicode = 0054;
},
{
color = 5;
glyphname = U;
lastChange = "2021-11-15 17:37:08 +0000";
layers = (
{
background = {
hints = (
{
origin = "{0, 3}";
scale = "{-1, -1}";
type = Corner;
name = _corner.CAP.leftSerif;
},
{
origin = "{0, 4}";
scale = "{-1, 1}";
type = Corner;
name = _corner.CAP.leftSerif;
},
{
origin = "{0, 12}";
scale = "{-1, -1}";
type = Corner;
name = _corner.CAP.leftSerif;
},
{
origin = "{0, 13}";
scale = "{1, -1}";
type = Corner;
name = _corner.CAP.leftSerif;
}
);
paths = (
{
closed = 1;
nodes = (
"511 -12 OFFCURVE",
"602 53 OFFCURVE",
"602 260 CURVE SMOOTH",
"602 700 LINE",
"550 700 LINE",
"550 255 LINE SMOOTH",
"550 94 OFFCURVE",
"490 30 OFFCURVE",
"351 30 CURVE SMOOTH",
"248 30 OFFCURVE",
"144 55 OFFCURVE",
"144 189 CURVE SMOOTH",
"144 700 LINE",
"82 700 LINE",
"82 189 LINE SMOOTH",
"82 32 OFFCURVE",
"153 -12 OFFCURVE",
"351 -12 CURVE SMOOTH"
);
}
);
};
backgroundImage = {
crop = "{{0, 0}, {294, 68.104}}";
imagePath = "palatino-source/alphabet.jpg";
locked = "1";
transform = "{72.664, 0, 0, 72.664, -14305, -3637}";
};
hints = (
{
origin = "{0, 3}";
scale = "{-1, -1}";
type = Corner;
name = _corner.CAP.leftSerif;
},
{
origin = "{0, 4}";
scale = "{-1, 1}";
type = Corner;
name = _corner.CAP.leftSerif;
},
{
origin = "{0, 12}";
scale = "{-1, -1}";
type = Corner;
name = _corner.CAP.leftSerif;
},
{
origin = "{0, 13}";
scale = "{1, -1}";
type = Corner;
name = _corner.CAP.leftSerif;
}
);
layerId = "A2204D38-078E-49A4-B70C-87904FFF8E34";
paths = (
{
closed = 1;
nodes = (
"511 -12 OFFCURVE",
"602 53 OFFCURVE",
"602 260 CURVE SMOOTH",
"602 700 LINE",
"550 700 LINE",
"550 255 LINE SMOOTH",
"550 94 OFFCURVE",
"490 30 OFFCURVE",
"351 30 CURVE SMOOTH",
"248 30 OFFCURVE",
"152 65 OFFCURVE",
"152 189 CURVE SMOOTH",
"152 700 LINE",
"82 700 LINE",
"82 189 LINE SMOOTH",
"82 32 OFFCURVE",
"153 -12 OFFCURVE",
"351 -12 CURVE SMOOTH"
);
}
);
width = 657;
},
{
backgroundImage = {
crop = "{{0, 0}, {305.16, 367}}";
imagePath = "img/05 Page 3.png";
locked = "1";
transform = "{42.083, 0, 0, 42.083, -6487, -8600}";
};
hints = (
{
origin = "{0, 13}";
scale = "{1, -1}";
type = Corner;
name = _corner.CAP.leftSerif;
},
{
origin = "{0, 12}";
scale = "{-1, -1}";
type = Corner;
name = _corner.CAP.leftSerif;
},
{
origin = "{0, 4}";
scale = "{-1, 1}";
type = Corner;
name = _corner.CAP.leftSerif;
},
{
origin = "{0, 3}";
scale = "{-1, -1}";
type = Corner;
name = _corner.CAP.leftSerif;
}
);
layerId = "3EDEE92B-4D9D-4D9A-9438-63C2E33416C1";
paths = (
{
closed = 1;
nodes = (
"541 -12 OFFCURVE",
"632 53 OFFCURVE",
"632 260 CURVE SMOOTH",
"632 700 LINE",
"580 700 LINE",
"580 255 LINE SMOOTH",
"580 94 OFFCURVE",
"520 30 OFFCURVE",
"381 30 CURVE SMOOTH",
"278 30 OFFCURVE",
"182 65 OFFCURVE",
"182 189 CURVE SMOOTH",
"182 700 LINE",
"112 700 LINE",
"112 189 LINE SMOOTH",
"112 32 OFFCURVE",
"183 -12 OFFCURVE",
"381 -12 CURVE SMOOTH"
);
}
);
width = 738;
},
{
background = {
hints = (
{
origin = "{0, 3}";
scale = "{-1, -1}";
type = Corner;
name = _corner.CAP.leftSerif;
},
{
origin = "{0, 4}";
scale = "{-1, 1}";
type = Corner;
name = _corner.CAP.leftSerif;
},
{
origin = "{0, 12}";
scale = "{-1, -1}";
type = Corner;
name = _corner.CAP.leftSerif;
},
{
origin = "{0, 13}";
scale = "{1, -1}";
type = Corner;
name = _corner.CAP.leftSerif;
}
);
paths = (
{
closed = 1;
nodes = (
"459 -12 OFFCURVE",
"550 53 OFFCURVE",
"550 260 CURVE SMOOTH",
"550 700 LINE",
"498 700 LINE",
"498 255 LINE SMOOTH",
"498 94 OFFCURVE",
"438 30 OFFCURVE",
"299 30 CURVE SMOOTH",
"196 30 OFFCURVE",
"92 55 OFFCURVE",
"92 189 CURVE SMOOTH",
"92 700 LINE",
"30 700 LINE",
"30 189 LINE SMOOTH",
"30 32 OFFCURVE",
"101 -12 OFFCURVE",
"299 -12 CURVE SMOOTH"
);
}
);
};
backgroundImage = {
crop = "{{0, 0}, {294, 68.104}}";
imagePath = "palatino-source/alphabet.jpg";
locked = "1";
transform = "{72.664, 0, -3.60134, 72.664, -14074, -3637}";
};
hints = (
{
origin = "{0, 3}";
scale = "{-1, -1}";
type = Corner;
name = _corner.CAP.leftSerif;
options = 1;
},
{
origin = "{0, 4}";
scale = "{-1, 1}";
type = Corner;
name = _corner.CAP.leftSerif;
},
{
origin = "{0, 12}";
scale = "{-1, -1}";
type = Corner;
name = _corner.CAP.leftSerif;
options = 1;
},
{
origin = "{0, 13}";
scale = "{1, -1}";
type = Corner;
name = _corner.CAP.leftSerif;
}
);
layerId = "12C15986-4B26-4DD1-ABCC-3DD937B37D00";
paths = (
{
closed = 1;
nodes = (
"412 -12 OFFCURVE",
"514 50 OFFCURVE",
"558 257 CURVE SMOOTH",
"652 700 LINE",
"600 700 LINE",
"506 258 LINE SMOOTH",
"472 97 OFFCURVE",
"396 30 OFFCURVE",
"255 30 CURVE SMOOTH",
"154 30 OFFCURVE",
"67 62 OFFCURVE",
"93 186 CURVE SMOOTH",
"202 700 LINE",
"132 700 LINE",
"24 192 LINE SMOOTH",
"-9 35 OFFCURVE",
"54 -12 OFFCURVE",
"254 -12 CURVE SMOOTH"
);
}
);
width = 662;
},
{
backgroundImage = {
crop = "{{0, 0}, {305.16, 367}}";
imagePath = "img/05 Page 3.png";
locked = "1";
transform = "{42.083, 0, 17.89004, 42.083, -10324, -8600}";
};
hints = (
{
origin = "{0, 13}";
scale = "{1, -1}";
type = Corner;
name = _corner.CAP.leftSerif;
options = 1;
},
{
origin = "{0, 12}";
scale = "{-1, -1}";
type = Corner;
name = _corner.CAP.leftSerif;
},
{
origin = "{0, 4}";
scale = "{-1, 1}";
type = Corner;
name = _corner.CAP.leftSerif;
options = 1;
},
{
origin = "{0, 3}";
scale = "{-1, -1}";
type = Corner;
name = _corner.CAP.leftSerif;
}
);
layerId = "1699526A-EFB7-4794-9793-F4E554F51E17";
paths = (
{
closed = 1;
nodes = (
"406 -12 OFFCURVE",
"508 50 OFFCURVE",
"552 257 CURVE SMOOTH",
"646 700 LINE",
"594 700 LINE",
"500 258 LINE SMOOTH",
"466 97 OFFCURVE",
"390 30 OFFCURVE",
"249 30 CURVE SMOOTH",
"148 30 OFFCURVE",
"61 62 OFFCURVE",
"87 186 CURVE SMOOTH",
"196 700 LINE",
"126 700 LINE",
"18 192 LINE SMOOTH",
"-15 35 OFFCURVE",
"48 -12 OFFCURVE",
"248 -12 CURVE SMOOTH"
);
}
);
width = 740;
},
{
backgroundImage = {
crop = "{{0, 0}, {305.16, 367}}";
imagePath = "img/05 Page 3.png";
locked = "1";
transform = "{42.083, 0, -17.89004, 42.083, -2716, -8600}";
};
hints = (
{
origin = "{0, 13}";
scale = "{1, -1}";
type = Corner;
name = _corner.CAP.leftSerif;
options = 1;
},
{
origin = "{0, 12}";
scale = "{-1, -1}";
type = Corner;
name = _corner.CAP.leftSerif;
},
{
origin = "{0, 4}";
scale = "{-1, 1}";
type = Corner;
name = _corner.CAP.leftSerif;
options = 1;
},
{
origin = "{0, 3}";
scale = "{-1, -1}";
type = Corner;
name = _corner.CAP.leftSerif;
}
);
layerId = "BC891ED8-9BFD-414F-9425-FE2804369777";
paths = (
{
closed = 1;
nodes = (
"610 -12 OFFCURVE",
"689 56 OFFCURVE",
"645 263 CURVE SMOOTH",
"552 700 LINE",
"500 700 LINE",
"595 252 LINE SMOOTH",
"629 91 OFFCURVE",
"584 30 OFFCURVE",
"447 30 CURVE SMOOTH",
"342 30 OFFCURVE",
"236 68 OFFCURVE",
"210 192 CURVE SMOOTH",
"102 700 LINE",
"32 700 LINE",
"141 186 LINE SMOOTH",
"174 29 OFFCURVE",
"252 -12 OFFCURVE",
"448 -12 CURVE SMOOTH"
);
}
);
width = 705;
},
{
background = {
hints = (
{
origin = "{0, 3}";
scale = "{-1, -1}";
type = Corner;
name = _corner.CAP.leftSerif;
},
{
origin = "{0, 4}";
scale = "{-1, 1}";
type = Corner;
name = _corner.CAP.leftSerif;
},
{
origin = "{0, 12}";
scale = "{-1, -1}";
type = Corner;
name = _corner.CAP.leftSerif;
},
{
origin = "{0, 13}";
scale = "{1, -1}";
type = Corner;
name = _corner.CAP.leftSerif;
}
);
paths = (
{
closed = 1;
nodes = (
"566 -12 OFFCURVE",
"657 53 OFFCURVE",
"657 260 CURVE SMOOTH",
"657 700 LINE",
"605 700 LINE",
"605 255 LINE SMOOTH",
"605 94 OFFCURVE",
"545 30 OFFCURVE",
"406 30 CURVE SMOOTH",
"303 30 OFFCURVE",
"199 55 OFFCURVE",
"199 189 CURVE SMOOTH",
"199 700 LINE",
"137 700 LINE",
"137 189 LINE SMOOTH",
"137 32 OFFCURVE",
"208 -12 OFFCURVE",
"406 -12 CURVE SMOOTH"
);
}
);
};
backgroundImage = {
crop = "{{0, 0}, {294, 68.104}}";
imagePath = "palatino-source/alphabet.jpg";
locked = "1";
transform = "{72.664, 0, -15.44521, 72.664, -13431, -3637}";
};
hints = (
{
origin = "{0, 3}";
scale = "{-1, -1}";
type = Corner;
name = _corner.CAP.leftSerif;
options = 1;
},
{
origin = "{0, 4}";
scale = "{-1, 1}";
type = Corner;
name = _corner.CAP.leftSerif;
},
{
origin = "{0, 12}";
scale = "{-1, -1}";
type = Corner;
name = _corner.CAP.leftSerif;
options = 1;
},
{
origin = "{0, 13}";
scale = "{1, -1}";
type = Corner;
name = _corner.CAP.leftSerif;
}
);
layerId = "7121B8A5-DE38-4240-9956-93F0DA171E86";
paths = (
{
closed = 1;
nodes = (
"613 -12 OFFCURVE",
"692 56 OFFCURVE",
"648 263 CURVE SMOOTH",
"555 700 LINE",
"503 700 LINE",
"598 252 LINE SMOOTH",
"632 91 OFFCURVE",
"587 30 OFFCURVE",
"450 30 CURVE SMOOTH",
"345 30 OFFCURVE",
"239 68 OFFCURVE",
"213 192 CURVE SMOOTH",
"105 700 LINE",
"35 700 LINE",
"144 186 LINE SMOOTH",
"177 29 OFFCURVE",
"255 -12 OFFCURVE",
"451 -12 CURVE SMOOTH"
);
}
);
width = 742;
}
);
leftMetricsKey = N;
rightMetricsKey = O;
unicode = 0055;
},
{
color = 5;
glyphname = V;
lastChange = "2021-11-15 16:40:22 +0000";
layers = (
{
backgroundImage = {
crop = "{{0, 0}, {294, 68.104}}";
imagePath = "palatino-source/alphabet.jpg";
locked = "1";
transform = "{72.664, 0, 0, 72.664, -14967, -3627}";
};
hints = (
{
origin = "{0, 1}";
scale = "{-0.8, -1.2}";
type = Corner;
name = _corner.CAP.leftSerif;
options = 1;
},
{
origin = "{0, 2}";
scale = "{1.6, -1}";
type = Corner;
name = _corner.CAP.leftSerif;
},
{
origin = "{0, 5}";
scale = "{-1.4, -1.1}";
type = Corner;
name = _corner.CAP.leftSerif;
options = 1;
},
{
origin = "{0, 6}";
scale = "{1, -1}";
type = Corner;
name = _corner.CAP.leftSerif;
}
);
layerId = "A2204D38-078E-49A4-B70C-87904FFF8E34";
paths = (
{
closed = 1;
nodes = (
"303 -7 LINE",
"636 700 LINE",
"579 700 LINE",
"303 114 LINE",
"289 114 LINE",
"85 700 LINE",
"20 699 LINE",
"265 -7 LINE"
);
}
);
width = 656;
},
{
background = {
paths = (
{
closed = 1;
nodes = (
"450 -362 LINE",
"520 -338 LINE",
"55 1017 LINE",
"-16 993 LINE"
);
}
);
};
backgroundImage = {
crop = "{{0, 0}, {305.16, 367}}";
imagePath = "img/05 Page 3.png";
locked = "1";
transform = "{42.083, 0, 0, 42.083, -7296, -8603}";
};
hints = (
{
origin = "{0, 1}";
scale = "{-0.8, -1}";
type = Corner;
name = _corner.CAP.leftSerif;
},
{
origin = "{0, 2}";
scale = "{1.6, -1}";
type = Corner;
name = _corner.CAP.leftSerif;
options = 1;
},
{
origin = "{0, 5}";
scale = "{-1.4, -1}";
type = Corner;
name = _corner.CAP.leftSerif;
},
{
origin = "{0, 6}";
scale = "{1, -1}";
type = Corner;
name = _corner.CAP.leftSerif;
options = 1;
}
);
layerId = "3EDEE92B-4D9D-4D9A-9438-63C2E33416C1";
paths = (
{
closed = 1;
nodes = (
"368 -7 LINE",
"701 700 LINE",
"644 700 LINE",
"368 114 LINE",
"354 114 LINE",
"150 700 LINE",
"85 699 LINE",
"330 -7 LINE"
);
}
);
width = 772;
},
{
backgroundImage = {
crop = "{{0, 0}, {294, 68.104}}";
imagePath = "palatino-source/alphabet.jpg";
locked = "1";
transform = "{72.664, 0, -3.60134, 72.664, -14788, -3627}";
};
hints = (
{
origin = "{0, 1}";
scale = "{-0.8, -1.2}";
type = Corner;
name = _corner.CAP.leftSerif;
options = 1;
},
{
origin = "{0, 2}";
scale = "{1.6, -1}";
type = Corner;
name = _corner.CAP.leftSerif;
},
{
origin = "{0, 5}";
scale = "{-1.4, -1.1}";
type = Corner;
name = _corner.CAP.leftSerif;
options = 1;
},
{
origin = "{0, 6}";
scale = "{1, -1}";
type = Corner;
name = _corner.CAP.leftSerif;
}
);
layerId = "12C15986-4B26-4DD1-ABCC-3DD937B37D00";
paths = (
{
closed = 1;
nodes = (
"153 -7 LINE",
"636 700 LINE",
"578 700 LINE",
"177 114 LINE",
"163 114 LINE",
"84 700 LINE",
"20 699 LINE",
"115 -7 LINE"
);
}
);
width = 596;
},
{
background = {
paths = (
{
closed = 1;
nodes = (
"450 -362 LINE",
"520 -338 LINE",
"55 1017 LINE",
"-16 993 LINE"
);
}
);
};
backgroundImage = {
crop = "{{0, 0}, {305.16, 367}}";
imagePath = "img/05 Page 3.png";
locked = "1";
transform = "{42.083, 0, 17.89004, 42.083, -11045.923, -8603}";
};
hints = (
{
origin = "{0, 1}";
scale = "{-0.8, -1}";
type = Corner;
name = _corner.CAP.leftSerif;
},
{
origin = "{0, 2}";
scale = "{1.6, -1}";
type = Corner;
name = _corner.CAP.leftSerif;
options = 1;
},
{
origin = "{0, 5}";
scale = "{-1.4, -1}";
type = Corner;
name = _corner.CAP.leftSerif;
},
{
origin = "{0, 6}";
scale = "{1, -1}";
type = Corner;
name = _corner.CAP.leftSerif;
options = 1;
}
);
layerId = "1699526A-EFB7-4794-9793-F4E554F51E17";
paths = (
{
closed = 1;
nodes = (
"321 -7 LINE",
"804 700 LINE",
"746 700 LINE",
"345 114 LINE",
"331 114 LINE",
"252 700 LINE",
"188 699 LINE",
"283 -7 LINE"
);
}
);
width = 772;
},
{
background = {
paths = (
{
closed = 1;
nodes = (
"450 -362 LINE",
"520 -338 LINE",
"55 1017 LINE",
"-16 993 LINE"
);
}
);
};
backgroundImage = {
crop = "{{0, 0}, {305.16, 367}}";
imagePath = "img/05 Page 3.png";
locked = "1";
transform = "{42.083, 0, -17.89004, 42.083, -3546.077, -8603}";
};
hints = (
{
origin = "{0, 1}";
scale = "{-0.8, -1}";
type = Corner;
name = _corner.CAP.leftSerif;
},
{
origin = "{0, 2}";
scale = "{1.6, -1}";
type = Corner;
name = _corner.CAP.leftSerif;
options = 1;
},
{
origin = "{0, 5}";
scale = "{-1.4, -1}";
type = Corner;
name = _corner.CAP.leftSerif;
},
{
origin = "{0, 6}";
scale = "{1, -1}";
type = Corner;
name = _corner.CAP.leftSerif;
options = 1;
}
);
layerId = "BC891ED8-9BFD-414F-9425-FE2804369777";
paths = (
{
closed = 1;
nodes = (
"415 -7 LINE",
"598 700 LINE",
"542 700 LINE",
"391 114 LINE",
"377 114 LINE",
"48 700 LINE",
"-18 699 LINE",
"377 -7 LINE"
);
}
);
width = 710;
},
{
backgroundImage = {
crop = "{{0, 0}, {294, 68.104}}";
imagePath = "palatino-source/alphabet.jpg";
locked = "1";
transform = "{72.664, 0, -15.44521, 72.664, -14149.72, -3627}";
};
hints = (
{
origin = "{0, 1}";
scale = "{-0.8, -1.2}";
type = Corner;
name = _corner.CAP.leftSerif;
options = 1;
},
{
origin = "{0, 2}";
scale = "{1.6, -1}";
type = Corner;
name = _corner.CAP.leftSerif;
},
{
origin = "{0, 5}";
scale = "{-1.4, -1.1}";
type = Corner;
name = _corner.CAP.leftSerif;
options = 1;
},
{
origin = "{0, 6}";
scale = "{1, -1}";
type = Corner;
name = _corner.CAP.leftSerif;
}
);
layerId = "7121B8A5-DE38-4240-9956-93F0DA171E86";
paths = (
{
closed = 1;
nodes = (
"350 -7 LINE",
"533 700 LINE",
"477 700 LINE",
"326 114 LINE",
"312 114 LINE",
"-17 700 LINE",
"-83 699 LINE",
"312 -7 LINE"
);
}
);
width = 656;
}
);
leftKerningGroup = V;
rightKerningGroup = V;
unicode = 0056;
},
{
color = 5;
glyphname = W;
lastChange = "2021-11-15 16:40:31 +0000";
layers = (
{
background = {
hints = (
{
origin = "{0, 2}";
scale = "{-0.8, -1.2}";
type = Corner;
name = _corner.CAP.leftSerif;
},
{
origin = "{0, 3}";
scale = "{1.6, -1}";
type = Corner;
name = _corner.CAP.leftSerif;
options = 1;
},
{
origin = "{0, 10}";
scale = "{-1.4, -1.1}";
type = Corner;
name = _corner.CAP.leftSerif;
},
{
origin = "{0, 11}";
scale = "{1, -1}";
type = Corner;
name = _corner.CAP.leftSerif;
options = 1;
}
);
paths = (
{
closed = 1;
nodes = (
"626 -12 LINE",
"665 -12 LINE",
"857 700 LINE",
"804 700 LINE",
"661 137 LINE",
"647 137 LINE",
"437 710 LINE",
"416 710 LINE",
"167 125 LINE",
"157 125 LINE",
"53 700 LINE",
"-21 700 LINE",
"119 -12 LINE",
"153 -12 LINE",
"423 611 LINE",
"393 612 LINE"
);
}
);
};
backgroundImage = {
crop = "{{0, 0}, {294, 68.104}}";
imagePath = "palatino-source/alphabet.jpg";
locked = "1";
transform = "{72.664, 0, 0, 72.664, -15752, -3627}";
};
hints = (
{
origin = "{0, 5}";
scale = "{-0.8, -1.2}";
type = Corner;
name = _corner.CAP.leftSerif;
options = 1;
},
{
origin = "{0, 6}";
scale = "{1.6, -1}";
type = Corner;
name = _corner.CAP.leftSerif;
},
{
origin = "{0, 13}";
scale = "{-1.4, -1.1}";
type = Corner;
name = _corner.CAP.leftSerif;
options = 1;
},
{
origin = "{0, 14}";
scale = "{1, -1}";
type = Corner;
name = _corner.CAP.leftSerif;
}
);
layerId = "A2204D38-078E-49A4-B70C-87904FFF8E34";
paths = (
{
closed = 1;
nodes = (
"192 -7 LINE",
"448 612 LINE",
"432 612 LINE",
"664 -7 LINE",
"706 -7 LINE",
"890 700 LINE",
"837 700 LINE",
"690 137 LINE",
"676 137 LINE",
"461 710 LINE",
"445 710 LINE",
"205 125 LINE",
"196 125 LINE",
"83 700 LINE",
"20 700 LINE",
"159 -7 LINE"
);
}
);
width = 910;
},
{
backgroundImage = {
crop = "{{0, 0}, {305.16, 367}}";
imagePath = "img/05 Page 3.png";
locked = "1";
transform = "{42.083, 0, 0, 42.083, -8101, -8603}";
};
hints = (
{
origin = "{0, 13}";
scale = "{-1.4, -1.1}";
type = Corner;
name = _corner.CAP.leftSerif;
},
{
origin = "{0, 14}";
scale = "{1, -1}";
type = Corner;
name = _corner.CAP.leftSerif;
options = 1;
},
{
origin = "{0, 5}";
scale = "{-0.8, -1.2}";
type = Corner;
name = _corner.CAP.leftSerif;
},
{
origin = "{0, 6}";
scale = "{1.6, -1}";
type = Corner;
name = _corner.CAP.leftSerif;
options = 1;
}
);
layerId = "3EDEE92B-4D9D-4D9A-9438-63C2E33416C1";
paths = (
{
closed = 1;
nodes = (
"257 -7 LINE",
"513 612 LINE",
"497 612 LINE",
"729 -7 LINE",
"771 -7 LINE",
"955 700 LINE",
"902 700 LINE",
"755 137 LINE",
"741 137 LINE",
"526 710 LINE",
"510 710 LINE",
"270 125 LINE",
"261 125 LINE",
"148 700 LINE",
"85 700 LINE",
"224 -7 LINE"
);
}
);
width = 1026;
},
{
background = {
hints = (
{
origin = "{0, 2}";
scale = "{-0.8, -1.2}";
type = Corner;
name = _corner.CAP.leftSerif;
},
{
origin = "{0, 3}";
scale = "{1.6, -1}";
type = Corner;
name = _corner.CAP.leftSerif;
options = 1;
},
{
origin = "{0, 10}";
scale = "{-1.4, -1.1}";
type = Corner;
name = _corner.CAP.leftSerif;
},
{
origin = "{0, 11}";
scale = "{1, -1}";
type = Corner;
name = _corner.CAP.leftSerif;
options = 1;
}
);
paths = (
{
closed = 1;
nodes = (
"534 -12 LINE",
"573 -12 LINE",
"765 700 LINE",
"712 700 LINE",
"569 137 LINE",
"555 137 LINE",
"345 710 LINE",
"324 710 LINE",
"75 125 LINE",
"65 125 LINE",
"-39 700 LINE",
"-113 700 LINE",
"27 -12 LINE",
"61 -12 LINE",
"331 611 LINE",
"301 612 LINE"
);
}
);
};
backgroundImage = {
crop = "{{0, 0}, {294, 68.104}}";
imagePath = "palatino-source/alphabet.jpg";
locked = "1";
transform = "{72.664, 0, -3.60134, 72.664, -15562, -3627}";
};
hints = (
{
origin = "{0, 5}";
scale = "{-0.8, -1.2}";
type = Corner;
name = _corner.CAP.leftSerif;
options = 1;
},
{
origin = "{0, 6}";
scale = "{1.6, -1}";
type = Corner;
name = _corner.CAP.leftSerif;
},
{
origin = "{0, 13}";
scale = "{-1.4, -1.1}";
type = Corner;
name = _corner.CAP.leftSerif;
options = 1;
},
{
origin = "{0, 14}";
scale = "{1, -1}";
type = Corner;
name = _corner.CAP.leftSerif;
}
);
layerId = "12C15986-4B26-4DD1-ABCC-3DD937B37D00";
paths = (
{
closed = 1;
nodes = (
"53 -7 LINE",
"440 612 LINE",
"424 612 LINE",
"525 -7 LINE",
"567 -7 LINE",
"901 700 LINE",
"847 700 LINE",
"580 137 LINE",
"566 137 LINE",
"473 710 LINE",
"457 710 LINE",
"93 125 LINE",
"84 125 LINE",
"93 700 LINE",
"31 700 LINE",
"20 -7 LINE"
);
}
);
width = 861;
},
{
backgroundImage = {
crop = "{{0, 0}, {305.16, 367}}";
imagePath = "img/05 Page 3.png";
locked = "1";
transform = "{42.083, 0, 17.89004, 42.083, -11850.923, -8603}";
};
hints = (
{
origin = "{0, 13}";
scale = "{-1.4, -1.1}";
type = Corner;
name = _corner.CAP.leftSerif;
},
{
origin = "{0, 14}";
scale = "{1, -1}";
type = Corner;
name = _corner.CAP.leftSerif;
options = 1;
},
{
origin = "{0, 5}";
scale = "{-0.8, -1.2}";
type = Corner;
name = _corner.CAP.leftSerif;
},
{
origin = "{0, 6}";
scale = "{1.6, -1}";
type = Corner;
name = _corner.CAP.leftSerif;
options = 1;
}
);
layerId = "1699526A-EFB7-4794-9793-F4E554F51E17";
paths = (
{
closed = 1;
nodes = (
"210 -7 LINE",
"597 612 LINE",
"581 612 LINE",
"682 -7 LINE",
"724 -7 LINE",
"1058 700 LINE",
"1004 700 LINE",
"737 137 LINE",
"723 137 LINE",
"630 710 LINE",
"614 710 LINE",
"250 125 LINE",
"241 125 LINE",
"250 700 LINE",
"188 700 LINE",
"177 -7 LINE"
);
}
);
width = 1026;
},
{
backgroundImage = {
crop = "{{0, 0}, {305.16, 367}}";
imagePath = "img/05 Page 3.png";
locked = "1";
transform = "{42.083, 0, -17.89004, 42.083, -4351.077, -8603}";
};
hints = (
{
origin = "{0, 13}";
scale = "{-1.4, -1.1}";
type = Corner;
name = _corner.CAP.leftSerif;
},
{
origin = "{0, 14}";
scale = "{1, -1}";
type = Corner;
name = _corner.CAP.leftSerif;
options = 1;
},
{
origin = "{0, 5}";
scale = "{-0.8, -1.2}";
type = Corner;
name = _corner.CAP.leftSerif;
},
{
origin = "{0, 6}";
scale = "{1.6, -1}";
type = Corner;
name = _corner.CAP.leftSerif;
options = 1;
}
);
layerId = "BC891ED8-9BFD-414F-9425-FE2804369777";
paths = (
{
closed = 1;
nodes = (
"304 -7 LINE",
"429 612 LINE",
"413 612 LINE",
"776 -7 LINE",
"818 -7 LINE",
"852 700 LINE",
"800 700 LINE",
"773 137 LINE",
"759 137 LINE",
"422 710 LINE",
"406 710 LINE",
"290 125 LINE",
"281 125 LINE",
"46 700 LINE",
"-18 700 LINE",
"271 -7 LINE"
);
}
);
width = 964;
},
{
background = {
hints = (
{
origin = "{0, 2}";
scale = "{-0.8, -1.2}";
type = Corner;
name = _corner.CAP.leftSerif;
},
{
origin = "{0, 3}";
scale = "{1.6, -1}";
type = Corner;
name = _corner.CAP.leftSerif;
options = 1;
},
{
origin = "{0, 10}";
scale = "{-1.4, -1.1}";
type = Corner;
name = _corner.CAP.leftSerif;
},
{
origin = "{0, 11}";
scale = "{1, -1}";
type = Corner;
name = _corner.CAP.leftSerif;
options = 1;
}
);
paths = (
{
closed = 1;
nodes = (
"741 -12 LINE",
"780 -12 LINE",
"972 700 LINE",
"919 700 LINE",
"776 137 LINE",
"762 137 LINE",
"552 710 LINE",
"531 710 LINE",
"282 125 LINE",
"272 125 LINE",
"168 700 LINE",
"94 700 LINE",
"234 -12 LINE",
"268 -12 LINE",
"538 611 LINE",
"508 612 LINE"
);
}
);
};
backgroundImage = {
crop = "{{0, 0}, {294, 68.104}}";
imagePath = "palatino-source/alphabet.jpg";
locked = "1";
transform = "{72.664, 0, -15.44521, 72.664, -14820, -3627}";
};
hints = (
{
origin = "{0, 5}";
scale = "{-0.8, -1.2}";
type = Corner;
name = _corner.CAP.leftSerif;
options = 1;
},
{
origin = "{0, 6}";
scale = "{1.6, -1}";
type = Corner;
name = _corner.CAP.leftSerif;
},
{
origin = "{0, 13}";
scale = "{-1.4, -1.1}";
type = Corner;
name = _corner.CAP.leftSerif;
options = 1;
},
{
origin = "{0, 14}";
scale = "{1, -1}";
type = Corner;
name = _corner.CAP.leftSerif;
}
);
layerId = "7121B8A5-DE38-4240-9956-93F0DA171E86";
paths = (
{
closed = 1;
nodes = (
"354 -7 LINE",
"479 612 LINE",
"463 612 LINE",
"826 -7 LINE",
"868 -7 LINE",
"902 700 LINE",
"850 700 LINE",
"823 137 LINE",
"809 137 LINE",
"472 710 LINE",
"456 710 LINE",
"340 125 LINE",
"331 125 LINE",
"96 700 LINE",
"32 700 LINE",
"321 -7 LINE"
);
}
);
width = 1022;
}
);
rightKerningGroup = W;
unicode = 0057;
},
{
color = 5;
glyphname = X;
lastChange = "2021-11-15 16:28:59 +0000";
layers = (
{
backgroundImage = {
crop = "{{0, 0}, {294, 68.104}}";
imagePath = "palatino-source/alphabet.jpg";
transform = "{72.664, 0, 0, 72.664, -16634, -3627}";
};
hints = (
{
origin = "{0, 0}";
scale = "{1, -1}";
type = Corner;
name = _corner.CAP.leftSerif;
},
{
origin = "{0, 2}";
scale = "{-1, 1}";
type = Corner;
name = _corner.CAP.leftSerif;
},
{
origin = "{1, 3}";
scale = "{0.5, 1}";
type = Corner;
name = _corner.CAP.leftSerif;
options = 1;
},
{
origin = "{2, 0}";
scale = "{0.5, 1}";
type = Corner;
name = _corner.CAP.leftSerif;
options = 1;
}
);
layerId = "A2204D38-078E-49A4-B70C-87904FFF8E34";
paths = (
{
closed = 1;
nodes = (
"584 0 LINE",
"177 700 LINE",
"105 700 LINE",
"512 0 LINE"
);
},
{
closed = 1;
nodes = (
"103 0 LINE",
"354 374 LINE",
"303 374 LINE",
"38 0 LINE"
);
},
{
closed = 1;
nodes = (
"580 700 LINE",
"515 700 LINE",
"310 379 LINE",
"354 379 LINE"
);
}
);
width = 604;
},
{
backgroundImage = {
crop = "{{0, 0}, {305.16, 367}}";
imagePath = "img/05 Page 3.png";
locked = "1";
transform = "{42.083, 0, 0, 42.083, -9157, -8592}";
};
hints = (
{
origin = "{0, 2}";
scale = "{-1, 1}";
type = Corner;
name = _corner.CAP.leftSerif;
options = 1;
},
{
origin = "{0, 0}";
scale = "{1, -1}";
type = Corner;
name = _corner.CAP.leftSerif;
options = 1;
},
{
origin = "{1, 3}";
scale = "{0.5, 1}";
type = Corner;
name = _corner.CAP.leftSerif;
},
{
origin = "{2, 0}";
scale = "{0.5, 1}";
type = Corner;
name = _corner.CAP.leftSerif;
}
);
layerId = "3EDEE92B-4D9D-4D9A-9438-63C2E33416C1";
paths = (
{
closed = 1;
nodes = (
"591 0 LINE",
"184 700 LINE",
"112 700 LINE",
"519 0 LINE"
);
},
{
closed = 1;
nodes = (
"110 0 LINE",
"361 374 LINE",
"311 374 LINE",
"45 0 LINE"
);
},
{
closed = 1;
nodes = (
"587 700 LINE",
"522 700 LINE",
"318 379 LINE",
"363 379 LINE"
);
}
);
width = 676;
},
{
backgroundImage = {
crop = "{{0, 0}, {294, 68.104}}";
imagePath = "palatino-source/alphabet.jpg";
transform = "{72.664, 0, -3.60134, 72.664, -16351.522, -3627}";
};
hints = (
{
origin = "{0, 0}";
scale = "{1, -1}";
type = Corner;
name = _corner.CAP.leftSerif;
},
{
origin = "{0, 2}";
scale = "{-1, 1}";
type = Corner;
name = _corner.CAP.leftSerif;
},
{
origin = "{1, 3}";
scale = "{0.5, 1}";
type = Corner;
name = _corner.CAP.leftSerif;
options = 1;
},
{
origin = "{2, 0}";
scale = "{0.5, 1}";
type = Corner;
name = _corner.CAP.leftSerif;
options = 1;
}
);
layerId = "12C15986-4B26-4DD1-ABCC-3DD937B37D00";
paths = (
{
closed = 1;
nodes = (
"537 0 LINE",
"279 700 LINE",
"208 700 LINE",
"466 0 LINE"
);
},
{
closed = 1;
nodes = (
"57 0 LINE",
"388 374 LINE",
"335 374 LINE",
"-9 0 LINE"
);
},
{
closed = 1;
nodes = (
"683 700 LINE",
"617 700 LINE",
"343 379 LINE",
"389 379 LINE"
);
}
);
width = 643;
},
{
backgroundImage = {
crop = "{{0, 0}, {305.16, 367}}";
imagePath = "img/05 Page 3.png";
locked = "1";
transform = "{42.083, 0, 17.89004, 42.083, -12922.247, -8592}";
};
hints = (
{
origin = "{0, 2}";
scale = "{-1, 1}";
type = Corner;
name = _corner.CAP.leftSerif;
options = 1;
},
{
origin = "{0, 0}";
scale = "{1, -1}";
type = Corner;
name = _corner.CAP.leftSerif;
options = 1;
},
{
origin = "{1, 3}";
scale = "{0.5, 1}";
type = Corner;
name = _corner.CAP.leftSerif;
},
{
origin = "{2, 0}";
scale = "{0.5, 1}";
type = Corner;
name = _corner.CAP.leftSerif;
}
);
layerId = "1699526A-EFB7-4794-9793-F4E554F51E17";
paths = (
{
closed = 1;
nodes = (
"524 0 LINE",
"266 700 LINE",
"195 700 LINE",
"453 0 LINE"
);
},
{
closed = 1;
nodes = (
"44 0 LINE",
"375 374 LINE",
"323 374 LINE",
"-22 0 LINE"
);
},
{
closed = 1;
nodes = (
"670 700 LINE",
"604 700 LINE",
"331 379 LINE",
"378 379 LINE"
);
}
);
width = 617;
},
{
backgroundImage = {
crop = "{{0, 0}, {305.16, 367}}";
imagePath = "img/05 Page 3.png";
locked = "1";
transform = "{42.083, 0, -17.89004, 42.083, -5431.753, -8592}";
};
hints = (
{
origin = "{0, 2}";
scale = "{-1, 1}";
type = Corner;
name = _corner.CAP.leftSerif;
options = 1;
},
{
origin = "{0, 0}";
scale = "{1, -1}";
type = Corner;
name = _corner.CAP.leftSerif;
options = 1;
},
{
origin = "{1, 3}";
scale = "{0.5, 1}";
type = Corner;
name = _corner.CAP.leftSerif;
},
{
origin = "{2, 0}";
scale = "{0.5, 1}";
type = Corner;
name = _corner.CAP.leftSerif;
}
);
layerId = "BC891ED8-9BFD-414F-9425-FE2804369777";
paths = (
{
closed = 1;
nodes = (
"618 0 LINE",
"62 700 LINE",
"-11 700 LINE",
"545 0 LINE"
);
},
{
closed = 1;
nodes = (
"136 0 LINE",
"307 374 LINE",
"259 374 LINE",
"72 0 LINE"
);
},
{
closed = 1;
nodes = (
"464 700 LINE",
"400 700 LINE",
"265 379 LINE",
"308 379 LINE"
);
}
);
width = 710;
},
{
backgroundImage = {
crop = "{{0, 0}, {294, 68.104}}";
imagePath = "palatino-source/alphabet.jpg";
transform = "{72.664, 0, -15.44521, 72.664, -15816.72, -3627}";
};
hints = (
{
origin = "{0, 0}";
scale = "{1, -1}";
type = Corner;
name = _corner.CAP.leftSerif;
},
{
origin = "{0, 2}";
scale = "{-1, 1}";
type = Corner;
name = _corner.CAP.leftSerif;
},
{
origin = "{1, 3}";
scale = "{0.5, 1}";
type = Corner;
name = _corner.CAP.leftSerif;
options = 1;
},
{
origin = "{2, 0}";
scale = "{0.5, 1}";
type = Corner;
name = _corner.CAP.leftSerif;
options = 1;
}
);
layerId = "7121B8A5-DE38-4240-9956-93F0DA171E86";
paths = (
{
closed = 1;
nodes = (
"631 0 LINE",
"75 700 LINE",
"2 700 LINE",
"558 0 LINE"
);
},
{
closed = 1;
nodes = (
"149 0 LINE",
"320 374 LINE",
"271 374 LINE",
"85 0 LINE"
);
},
{
closed = 1;
nodes = (
"477 700 LINE",
"413 700 LINE",
"277 379 LINE",
"319 379 LINE"
);
}
);
width = 754;
}
);
unicode = 0058;
},
{
color = 5;
glyphname = Y;
lastChange = "2021-11-15 16:40:09 +0000";
layers = (
{
backgroundImage = {
crop = "{{0, 0}, {294, 68.104}}";
imagePath = "palatino-source/alphabet.jpg";
locked = "1";
transform = "{72.664, 0, 0, 72.664, -17352, -3627}";
};
hints = (
{
origin = "{0, 1}";
scale = "{0.3, 1}";
type = Corner;
name = _corner.CAP.leftSerif;
options = 1;
},
{
origin = "{0, 6}";
scale = "{0.8, -1}";
type = Corner;
name = _corner.CAP.leftSerif;
},
{
origin = "{1, 0}";
scale = "{-1, 1}";
type = Corner;
name = _corner.CAP.leftSerif;
},
{
origin = "{1, 3}";
type = Corner;
name = _corner.CAP.leftSerif;
}
);
layerId = "A2204D38-078E-49A4-B70C-87904FFF8E34";
paths = (
{
closed = 1;
nodes = (
"339 292 LINE",
"616 700 LINE",
"557 700 LINE",
"330 363 LINE",
"325 363 LINE",
"112 700 LINE",
"38 700 LINE",
"297 292 LINE"
);
},
{
closed = 1;
nodes = (
"351 0 LINE",
"351 334 LINE",
"289 334 LINE",
"289 0 LINE"
);
}
);
width = 636;
},
{
backgroundImage = {
crop = "{{0, 0}, {305.16, 367}}";
imagePath = "img/05 Page 3.png";
locked = "1";
transform = "{42.083, 0, 0, 42.083, -9855, -8595}";
};
hints = (
{
origin = "{1, 3}";
type = Corner;
name = _corner.CAP.leftSerif;
},
{
origin = "{1, 0}";
scale = "{-1, 1}";
type = Corner;
name = _corner.CAP.leftSerif;
},
{
origin = "{0, 6}";
scale = "{0.6, -1}";
type = Corner;
name = _corner.CAP.leftSerif;
options = 1;
},
{
origin = "{0, 1}";
scale = "{0.2, 1}";
type = Corner;
name = _corner.CAP.leftSerif;
}
);
layerId = "3EDEE92B-4D9D-4D9A-9438-63C2E33416C1";
paths = (
{
closed = 1;
nodes = (
"373 297 LINE",
"650 700 LINE",
"591 700 LINE",
"359 363 LINE",
"352 363 LINE",
"130 700 LINE",
"52 700 LINE",
"321 292 LINE"
);
},
{
closed = 1;
nodes = (
"383 0 LINE",
"383 334 LINE",
"313 334 LINE",
"313 0 LINE"
);
}
);
width = 679;
},
{
backgroundImage = {
crop = "{{0, 0}, {294, 68.104}}";
imagePath = "palatino-source/alphabet.jpg";
locked = "1";
transform = "{72.664, 0, -3.60134, 72.664, -17191, -3627}";
};
hints = (
{
origin = "{0, 1}";
scale = "{0.3, 1}";
type = Corner;
name = _corner.CAP.leftSerif;
options = 1;
},
{
origin = "{0, 6}";
scale = "{0.8, -1}";
type = Corner;
name = _corner.CAP.leftSerif;
},
{
origin = "{1, 0}";
scale = "{-1, 1}";
type = Corner;
name = _corner.CAP.leftSerif;
},
{
origin = "{1, 3}";
type = Corner;
name = _corner.CAP.leftSerif;
options = 1;
}
);
layerId = "12C15986-4B26-4DD1-ABCC-3DD937B37D00";
paths = (
{
closed = 1;
nodes = (
"235 292 LINE",
"598 700 LINE",
"538 700 LINE",
"239 363 LINE",
"234 363 LINE",
"93 700 LINE",
"20 700 LINE",
"192 292 LINE"
);
},
{
closed = 1;
nodes = (
"184 0 LINE",
"255 334 LINE",
"193 334 LINE",
"122 0 LINE"
);
}
);
width = 558;
},
{
backgroundImage = {
crop = "{{0, 0}, {305.16, 367}}";
imagePath = "img/05 Page 3.png";
locked = "1";
transform = "{42.083, 0, 17.89004, 42.083, -13695, -8595}";
};
hints = (
{
origin = "{1, 3}";
type = Corner;
name = _corner.CAP.leftSerif;
},
{
origin = "{1, 0}";
scale = "{-1, 1}";
type = Corner;
name = _corner.CAP.leftSerif;
options = 1;
},
{
origin = "{0, 6}";
scale = "{0.6, -1}";
type = Corner;
name = _corner.CAP.leftSerif;
options = 1;
},
{
origin = "{0, 1}";
scale = "{0.2, 1}";
type = Corner;
name = _corner.CAP.leftSerif;
}
);
layerId = "1699526A-EFB7-4794-9793-F4E554F51E17";
paths = (
{
closed = 1;
nodes = (
"298 297 LINE",
"660 700 LINE",
"600 700 LINE",
"296 363 LINE",
"289 363 LINE",
"139 700 LINE",
"62 700 LINE",
"245 292 LINE"
);
},
{
closed = 1;
nodes = (
"244 0 LINE",
"315 334 LINE",
"245 334 LINE",
"174 0 LINE"
);
}
);
width = 586;
},
{
backgroundImage = {
crop = "{{0, 0}, {305.16, 367}}";
imagePath = "img/05 Page 3.png";
locked = "1";
transform = "{42.083, 0, -17.89004, 42.083, -6103, -8595}";
};
hints = (
{
origin = "{1, 3}";
type = Corner;
name = _corner.CAP.leftSerif;
},
{
origin = "{1, 0}";
scale = "{-1, 1}";
type = Corner;
name = _corner.CAP.leftSerif;
options = 1;
},
{
origin = "{0, 6}";
scale = "{0.6, -1}";
type = Corner;
name = _corner.CAP.leftSerif;
options = 1;
},
{
origin = "{0, 1}";
scale = "{0.2, 1}";
type = Corner;
name = _corner.CAP.leftSerif;
}
);
layerId = "BC891ED8-9BFD-414F-9425-FE2804369777";
paths = (
{
closed = 1;
nodes = (
"360 297 LINE",
"552 700 LINE",
"494 700 LINE",
"334 363 LINE",
"327 363 LINE",
"33 700 LINE",
"-46 700 LINE",
"309 292 LINE"
);
},
{
closed = 1;
nodes = (
"434 0 LINE",
"363 334 LINE",
"293 334 LINE",
"364 0 LINE"
);
}
);
width = 632;
},
{
backgroundImage = {
crop = "{{0, 0}, {294, 68.104}}";
imagePath = "palatino-source/alphabet.jpg";
locked = "1";
transform = "{72.664, 0, -15.44521, 72.664, -16440, -3627}";
};
hints = (
{
origin = "{0, 1}";
scale = "{0.3, 1}";
type = Corner;
name = _corner.CAP.leftSerif;
options = 1;
},
{
origin = "{0, 6}";
scale = "{0.8, -1}";
type = Corner;
name = _corner.CAP.leftSerif;
},
{
origin = "{1, 0}";
scale = "{-1, 1}";
type = Corner;
name = _corner.CAP.leftSerif;
},
{
origin = "{1, 3}";
type = Corner;
name = _corner.CAP.leftSerif;
options = 1;
}
);
layerId = "7121B8A5-DE38-4240-9956-93F0DA171E86";
paths = (
{
closed = 1;
nodes = (
"417 292 LINE",
"608 700 LINE",
"550 700 LINE",
"395 363 LINE",
"390 363 LINE",
"105 700 LINE",
"30 700 LINE",
"376 292 LINE"
);
},
{
closed = 1;
nodes = (
"492 0 LINE",
"421 334 LINE",
"359 334 LINE",
"430 0 LINE"
);
}
);
width = 638;
}
);
unicode = 0059;
},
{
color = 5;
glyphname = Z;
lastChange = "2021-11-15 16:36:47 +0000";
layers = (
{
backgroundImage = {
crop = "{{0, 0}, {294, 68.104}}";
imagePath = "palatino-source/alphabet.jpg";
locked = "1";
transform = "{72.664, 0, 0, 72.664, -17953, -3627}";
};
hints = (
{
origin = "{1, 1}";
scale = "{1, -0.8}";
type = Corner;
name = _corner.CAP.top.EE;
},
{
origin = "{2, 3}";
scale = "{-1, 1}";
type = Corner;
name = _corner.CAP.top.EE;
}
);
layerId = "A2204D38-078E-49A4-B70C-87904FFF8E34";
paths = (
{
closed = 1;
nodes = (
"73 0 LINE {name = \"🧨\";}",
"590 694 LINE",
"589 700 LINE",
"517 700 LINE {name = \"🧨\";}",
"5 11 LINE",
"5 0 LINE"
);
},
{
closed = 1;
nodes = (
"572 0 LINE",
"572 42 LINE",
"64 42 LINE",
"64 0 LINE {name = \"🧨\";}"
);
},
{
closed = 1;
nodes = (
"546 658 LINE",
"546 700 LINE {name = \"🧨\";}",
"76 700 LINE",
"76 658 LINE"
);
}
);
width = 610;
},
{
backgroundImage = {
crop = "{{0, 0}, {305.16, 367}}";
imagePath = "img/05 Page 3.png";
locked = "1";
transform = "{42.083, 0, 0, 42.083, -10552, -8591}";
};
hints = (
{
origin = "{1, 1}";
scale = "{1, -0.8}";
type = Corner;
name = _corner.CAP.top.EE;
},
{
origin = "{2, 3}";
scale = "{-1, 1}";
type = Corner;
name = _corner.CAP.top.EE;
}
);
layerId = "3EDEE92B-4D9D-4D9A-9438-63C2E33416C1";
paths = (
{
closed = 1;
nodes = (
"78 0 LINE {name = \"🧨\";}",
"595 694 LINE",
"594 700 LINE",
"522 700 LINE {name = \"🧨\";}",
"10 11 LINE",
"10 0 LINE"
);
},
{
closed = 1;
nodes = (
"577 0 LINE",
"580 42 LINE",
"69 42 LINE",
"69 0 LINE {name = \"🧨\";}"
);
},
{
closed = 1;
nodes = (
"551 658 LINE",
"551 700 LINE {name = \"🧨\";}",
"81 700 LINE",
"81 658 LINE"
);
}
);
width = 610;
},
{
backgroundImage = {
crop = "{{0, 0}, {294, 68.104}}";
imagePath = "palatino-source/alphabet.jpg";
locked = "1";
transform = "{72.664, 0, -3.60134, 72.664, -17690, -3627}";
};
hints = (
{
origin = "{1, 1}";
scale = "{1, -0.8}";
type = Corner;
name = _corner.CAP.top.EE;
},
{
origin = "{2, 3}";
scale = "{-1, 1}";
type = Corner;
name = _corner.CAP.top.EE;
}
);
layerId = "12C15986-4B26-4DD1-ABCC-3DD937B37D00";
paths = (
{
closed = 1;
nodes = (
"8 0 LINE {name = \"🧨\";}",
"672 694 LINE",
"672 700 LINE",
"600 700 LINE {name = \"🧨\";}",
"-59 11 LINE",
"-60 0 LINE"
);
},
{
closed = 1;
nodes = (
"507 0 LINE",
"516 42 LINE",
"8 42 LINE",
"-1 0 LINE {name = \"🧨\";}"
);
},
{
closed = 1;
nodes = (
"621 658 LINE",
"629 700 LINE {name = \"🧨\";}",
"159 700 LINE",
"151 658 LINE"
);
}
);
width = 632;
},
{
backgroundImage = {
crop = "{{0, 0}, {305.16, 367}}";
imagePath = "img/05 Page 3.png";
locked = "1";
transform = "{42.083, 0, 17.89004, 42.083, -14301.822, -8591}";
};
hints = (
{
origin = "{1, 1}";
scale = "{1, -0.8}";
type = Corner;
name = _corner.CAP.top.EE;
},
{
origin = "{2, 3}";
scale = "{-1, 1}";
type = Corner;
name = _corner.CAP.top.EE;
}
);
layerId = "1699526A-EFB7-4794-9793-F4E554F51E17";
paths = (
{
closed = 1;
nodes = (
"27 0 LINE {name = \"🧨\";}",
"691 694 LINE",
"691 700 LINE",
"619 700 LINE {name = \"🧨\";}",
"-40 11 LINE",
"-41 0 LINE"
);
},
{
closed = 1;
nodes = (
"526 0 LINE",
"538 42 LINE",
"27 42 LINE",
"18 0 LINE {name = \"🧨\";}"
);
},
{
closed = 1;
nodes = (
"640 658 LINE",
"648 700 LINE {name = \"🧨\";}",
"178 700 LINE",
"170 658 LINE"
);
}
);
width = 603;
},
{
backgroundImage = {
crop = "{{0, 0}, {305.16, 367}}";
imagePath = "img/05 Page 3.png";
locked = "1";
transform = "{42.083, 0, -17.89004, 42.083, -6812.178, -8591}";
};
hints = (
{
origin = "{1, 1}";
scale = "{1, -0.8}";
type = Corner;
name = _corner.CAP.top.EE;
},
{
origin = "{2, 3}";
scale = "{-1, 1}";
type = Corner;
name = _corner.CAP.top.EE;
}
);
layerId = "BC891ED8-9BFD-414F-9425-FE2804369777";
paths = (
{
closed = 1;
nodes = (
"119 0 LINE {name = \"🧨\";}",
"488 694 LINE",
"487 700 LINE",
"415 700 LINE {name = \"🧨\";}",
"50 11 LINE",
"52 0 LINE"
);
},
{
closed = 1;
nodes = (
"618 0 LINE",
"612 42 LINE",
"101 42 LINE",
"110 0 LINE {name = \"🧨\";}"
);
},
{
closed = 1;
nodes = (
"452 658 LINE",
"444 700 LINE {name = \"🧨\";}",
"-26 700 LINE",
"-18 658 LINE"
);
}
);
width = 670;
},
{
backgroundImage = {
crop = "{{0, 0}, {294, 68.104}}";
imagePath = "palatino-source/alphabet.jpg";
locked = "1";
transform = "{72.664, 0, -15.44521, 72.664, -17135.72, -3627}";
};
hints = (
{
origin = "{1, 1}";
scale = "{1, -0.8}";
type = Corner;
name = _corner.CAP.top.EE;
},
{
origin = "{2, 3}";
scale = "{-1, 1}";
type = Corner;
name = _corner.CAP.top.EE;
}
);
layerId = "7121B8A5-DE38-4240-9956-93F0DA171E86";
paths = (
{
closed = 1;
nodes = (
"119 0 LINE {name = \"🧨\";}",
"488 694 LINE",
"487 700 LINE",
"415 700 LINE {name = \"🧨\";}",
"50 11 LINE",
"52 0 LINE"
);
},
{
closed = 1;
nodes = (
"618 0 LINE",
"609 42 LINE",
"101 42 LINE",
"110 0 LINE {name = \"🧨\";}"
);
},
{
closed = 1;
nodes = (
"452 658 LINE",
"444 700 LINE {name = \"🧨\";}",
"-26 700 LINE",
"-18 658 LINE"
);
}
);
width = 741;
}
);
unicode = 005A;
},
